<svg height="349.748708" viewBox="0 0 654.16614 800" width="285.919569" xmlns="http://www.w3.org/2000/svg"><path d="m647.32577 64.212401 5.87425 361.829769s14.01058 279.77849-323.21433 373.04985c0 0-303.601903-58.91134-329.10043573-373.04985l6.72697003-360.370921s312.2948557-144.793584 639.7135457-1.458848z" fill="#131734" stroke="#fff" stroke-width="1.76917"/><path d="m615.13579 91.278172 2.66473 331.253278s17.77674 253.76831-288.07538 338.3696c0 0-270.298665-53.43177-293.416703-338.3696l3.422701-329.924888s278.434982-131.320006 575.404652-1.32839z" fill="none" stroke="#fff" stroke-width="31.9056"/><g fill="#fff" stroke-width="1.02242" transform="matrix(.97806849 0 0 .97807846 -22.261692 -17.806841)"><g stroke-width="1.02242"><path d="m325.62367 505.94037c0 2.18274 1.29565 3.17711 3.31782 3.17711.94449 0 1.48938.14551 1.48938.75183 0 .5942-.29061.83672-1.2351.83672-2.38543 0-4.8072-.20614-7.19264-.20614-2.57918 0-5.09781.20614-7.67699.20614-.49646 0-1.04136-.24252-1.04136-.83672 0-.60632.5449-.75183 1.48939-.75183 2.51863 0 3.7174-.54569 3.7174-2.32827v-21.24541c0-1.23689-.25428-1.58856-1.04135-1.58856-1.39252 0-2.78503 1.38241-3.66898 1.38241-.44802 0-.65387-.19402-.65387-.78821 0-.48506.60544-.94586 5.44897-3.22562 5.20679-2.42528 5.55795-2.67993 6.26026-2.67993.48435 0 .78707.20615.78707.65482z"/><path d="m349.72023 492.15268c4.21387 1.83108 7.88284 4.4625 7.88284 9.5192 0 6.25721-5.94543 9.64047-11.60025 9.64047-5.00094 0-11.10379-2.69205-11.10379-8.5976 0-4.57164 3.32992-5.55388 6.59931-7.14244-2.97877-1.78257-5.44897-4.36549-5.44897-8.1853 0-5.91767 5.30366-8.74312 10.59522-8.74312 5.75169 0 9.42066 3.03159 9.42066 7.15456 0 3.61366-3.41469 5.29923-6.34502 6.35423zm-6.79305 4.31699c-1.38041 1.9766-1.68313 3.56515-1.68313 6.00255 0 4.95969 2.08272 7.23945 5.15836 7.23945s4.85564-1.94022 4.85564-4.65653c0-4.71716-4.74666-6.8029-8.33087-8.58547zm5.41264-5.21435c1.68313-1.49154 2.4702-2.78906 2.4702-5.35986 0-2.4859-.98081-5.66301-4.75877-5.66301-2.6155 0-3.66897 1.84321-3.66897 3.7713 0 3.97745 3.23306 5.66302 5.95754 7.25157"/><path d="m376.49283 492.15268c4.21387 1.83108 7.88285 4.4625 7.88285 9.5192 0 6.25721-5.94544 9.64047-11.58815 9.64047-5.01305 0-11.10379-2.69205-11.10379-8.5976 0-4.57164 3.31782-5.55388 6.5872-7.14244-2.96666-1.78257-5.44897-4.36549-5.44897-8.1853 0-5.91767 5.30367-8.74312 10.60733-8.74312 5.75169 0 9.40856 3.03159 9.40856 7.15456 0 3.61366-3.41469 5.29923-6.34503 6.35423zm-6.78094 4.31699c-1.39251 1.9766-1.68312 3.56515-1.68312 6.00255 0 4.95969 2.08271 7.23945 5.14625 7.23945 3.07564 0 4.85563-1.94022 4.85563-4.65653 0-4.71716-4.75876-6.8029-8.31876-8.58547zm5.40054-5.21435c1.68312-1.49154 2.48231-2.78906 2.48231-5.35986 0-2.4859-.99293-5.66301-4.75877-5.66301-2.62762 0-3.66897 1.84321-3.66897 3.7713 0 3.97745 3.22094 5.66302 5.94543 7.25157"/><path d="m401.9819 505.94037c0 2.18274 1.29565 3.17711 3.32993 3.17711.93238 0 1.47727.14551 1.47727.75183 0 .5942-.29061.83672-1.23509.83672-2.38544 0-4.80721-.20614-7.19265-.20614-2.56707 0-5.09781.20614-7.67699.20614-.49646 0-1.04136-.24252-1.04136-.83672 0-.60632.5449-.75183 1.48939-.75183 2.53074 0 3.71741-.54569 3.71741-2.32827v-21.24541c0-1.23689-.24218-1.58856-1.04136-1.58856-1.38041 0-2.77292 1.38241-3.66898 1.38241-.44802 0-.64176-.19402-.64176-.78821 0-.48506.59333-.94586 5.44897-3.22562 5.20679-2.42528 5.54584-2.67993 6.24815-2.67993.49646 0 .78707.20615.78707.65482z"/></g><g stroke-width="1.02242"><path d="m269.63248 391.97667c0 1.49154-.10898 2.34039 1.63469 2.34039 1.04136 0 3.22095 0 4.15333-.20615 1.39251-.24253 1.98584-1.3339 2.38543-2.63143.19374-.64269.5449-1.62493 1.44095-1.62493.78708 0 .99293.58207.99293 1.2854-.10898 1.3824-.10898 2.88607-.20585 4.26848 0 1.38241.0969 2.87395.20585 4.26849 0 .64269-.20585 1.3824-1.05347 1.3824-2.37333 0-.64177-4.75354-5.897-4.75354l-2.11904.097c-1.6468.097-1.53782.78822-1.53782 2.13425v6.34209c0 2.93459-.20585 4.12297 2.91822 4.62015.64177.097 1.58626.25466 1.58626 1.15201 0 .73971-.5449.93373-1.18666.93373-2.57918 0-5.06149-.19402-7.62856-.19402-2.38544 0-4.75877.19402-7.14421.19402-.6902 0-1.18666-.19402-1.18666-.93373 0-.80034.73864-1.055 1.34408-1.15201 3.25727-.54568 3.11196-1.39453 3.11196-4.62015v-17.66812c0-2.97096.20585-4.31699-2.96666-4.81417-.64176-.0849-1.58625-.0849-1.58625-.93373 0-.80034.49646-.99437 1.18666-.99437 4.56503 0 9.21482.19403 13.77984.19403 3.17251 0 6.44189-.19403 9.61441-.19403 1.28353 0 1.63469.0485 1.63469 1.44304v4.75354c0 .65483-.24218 1.34603-.99293 1.34603-.94448 0-1.48938-1.18838-1.93741-1.89171-.73864-1.23689-1.13823-1.9766-2.4702-2.6193-1.44095-.70333-3.22094-.6427-4.8072-.6427-.59333 0-2.17959-.10914-2.78503.29103-.48435.35167-.48435 1.18839-.48435 1.73408z"/><path d="m467.5875 407.07401c-.0969 1.63706-.0484 2.27976-1.58626 3.17711-2.78502 1.68556-6.29658 2.27976-9.51753 2.27976-4.35918 0-9.4691-.99437-13.0412-3.6743-3.76584-2.82544-6.29659-7.5426-6.29659-12.30827 0-4.91118 2.48231-9.38582 6.39346-12.30827 3.87482-2.82545 9.17849-4.17148 13.93725-4.17148 2.3249 0 5.14625.40017 7.42271 1.04287 1.34408.40017 1.34408.59419 1.59837 1.98873l.39959 2.53441c.0969.49718.19374.93373.19374 1.43091 0 .54569-.39959.84885-.94449.84885-2.27646 0-2.43387-5.90555-9.11794-5.90555-3.28149 0-6.29659 1.83109-8.18557 4.46251-1.9253 2.72844-2.72448 6.35422-2.72448 9.62834 0 3.22562.75075 6.8029 2.48231 9.53134 1.88897 2.93458 4.85563 4.95969 8.42774 4.95969 1.93741 0 3.71741-.69121 5.20679-1.87959 1.47728-1.24902 2.37333-2.88608 3.26938-4.57165.24218-.54568.59334-1.04286 1.2351-1.04286 1.0898 0 1.04136 1.13987.99293 1.89171z"/></g><path d="m103.76583 493.66847h157.45102l98.54159 107.1608 98.26309-107.1608h157.45101l-255.7141 243.7402z"/><g stroke-width="1.02242"><g><path d="m362.5798 318.17553s25.51328 37.15522 8.63359 68.12599c-16.86759 30.95864-61.86398 29.57624-61.86398 29.57624s54.41705 18.33508 76.09184-21.68197c20.42758-37.68878-22.86145-76.02026-22.86145-76.02026"/><path d="m360.17014 319.16989s-25.51329 37.15523-8.63359 68.11387c16.86759 30.97077 61.86397 29.58836 61.86397 29.58836s-54.41704 18.32296-76.09184-21.68196c-20.42758-37.68879 22.86146-76.02027 22.86146-76.02027"/><path d="m416.65779 411.73054s-20.12486-40.33234-55.34942-40.52636-55.79745 39.90791-55.79745 39.90791 10.31671-56.55743 55.77323-56.20576c42.8168.32741 55.37364 56.82421 55.37364 56.82421"/></g><g><path d="m207.35681 191.0062c0 3.09223 1.6468 3.62579 3.30571 3.92895 1.64679.30316 3.40257.61845 3.40257 2.47378 0 1.13988-1.02925 1.44304-2.78503 1.44304-2.16747 0-5.3642-.4123-11.85453-.4123-6.50244 0-9.68706.4123-11.85454.4123-1.75578 0-2.78503-.30316-2.78503-1.44304 0-1.85533 1.75578-2.17062 3.81428-2.47378 2.26435-.30316 2.8819-1.86746 2.8819-6.60888v-46.25c0-2.36465 0-3.91682-1.85265-4.94756-1.75578-.83672-4.22598-.83672-4.22598-2.17063 0-1.44303 1.2351-1.55217 3.09986-1.55217 1.2351 0 4.41972.4123 10.92216.4123 6.49033 0 9.68706-.4123 11.85453-.4123 1.75578 0 2.78503.4123 2.78503 1.44304 0 1.23689-2.37333 1.86746-4.02012 2.47378-2.26435.93373-2.68816 2.27976-2.68816 5.16584z"/><path d="m308.80452 200.10099c-18.34487 0-28.75845-18.38359-28.75845-33.96599 0-17.656 10.00188-33.96598 28.75845-33.96598 18.34486 0 28.75845 18.37146 28.75845 33.96598 0 17.64388-10.00189 33.96599-28.75845 33.96599zm-1.13823-64.6336c-6.79305 0-10.30461 12.9146-10.30461 23.64644 0 19.92364 4.74666 37.67666 13.19862 37.67666 6.1755 0 9.68705-10.1134 9.68705-25.6958 0-16.52825-4.33495-35.6273-12.58106-35.6273"/><path d="m386.30098 145.18062c0-4.13509-.60544-7.85789-3.80217-8.27019-1.6468-.19402-3.81428-.71545-3.81428-2.06148 0-.92161.61755-1.44304 1.74367-1.44304 1.96163 0 3.60843.4123 7.32584.4123 2.26435 0 4.73455-.4123 7.31373-.4123 1.2351 0 1.96162.52143 1.96162 1.55217 0 1.2369-1.75577 1.64919-3.40257 1.95235-2.4702.52144-3.40258 1.96447-3.40258 5.48112v56.36341c0 1.03074-.8234 1.34603-2.99088 1.34603-1.2351 0-2.0585-.31529-2.8819-1.55218l-32.36688-51.3067h-.31483v40.25957c0 6.49974 1.96163 7.53048 4.02013 7.84577 2.0706.31528 4.1291.10913 4.1291 1.96447 0 .81247-.8355 1.54005-2.0585 1.54005-2.894 0-5.06148-.4123-7.4227-.4123-2.48231 0-5.15836.4123-6.91414.4123-1.54993 0-2.26435-.30316-2.26435-1.54005 0-3.61366 6.59931 0 6.59931-6.51186v-49.34224c0-7.02117-6.39346-3.29837-6.39346-6.19658 0-1.13988 1.02925-1.85533 2.78503-1.85533 2.36122 0 4.84353.4123 7.31373.4123s4.95251-.4123 7.42271-.4123c2.05849 0 3.3057.31528 4.22597 1.7462l22.98255 37.27648h.20585z"/><path d="m409.31985 142.5977c0-5.99043-6.9989-1.55217-6.9989-4.6444 0-2.26763 6.90203-5.78428 24.21764-5.78428 21.74745 0 34.32851 11.76258 34.32851 33.44455 0 20.44507-11.5397 33.2384-28.66158 33.2384-7.21686 0-11.9514-.4123-16.28636-.4123-5.25523 0-8.45196.4123-10.60733.4123-1.75578 0-2.78503-.30316-2.78503-1.44304 0-1.85533 1.74367-2.17062 3.39047-2.47378 1.65891-.30316 3.40258-.83672 3.40258-3.92895zm15.87466 46.86845c0 2.88608 2.48231 5.469 5.36421 5.469 7.01101 0 12.98066-6.19658 12.98066-29.73388 0-19.60835-5.14625-29.11543-13.70719-29.11543-3.08775 0-4.63768 1.55217-4.63768 4.65653z"/><path d="m489.20175 191.0062c0 3.09223 1.6468 3.62579 3.2936 3.92895s3.40258.61845 3.40258 2.47378c0 1.13988-1.02925 1.44304-2.78503 1.44304-2.16748 0-5.3521-.4123-11.85454-.4123-6.49033 0-9.68706.4123-11.85454.4123-1.74367 0-2.77292-.30316-2.77292-1.44304 0-1.85533 1.74367-2.17062 3.81428-2.47378 2.26435-.30316 2.8819-1.86746 2.8819-6.60888v-46.25c0-2.36465 0-3.91682-1.85265-4.94756-1.75578-.83672-4.23809-.83672-4.23809-2.17063 0-1.44303 1.24721-1.55217 3.09986-1.55217 1.2351 0 4.43183.4123 10.92216.4123 6.50244 0 9.68706-.4123 11.85454-.4123 1.75578 0 2.78503.4123 2.78503 1.44304 0 1.23689-2.37333 1.86746-4.00802 2.47378-2.27646.93373-2.68816 2.27976-2.68816 5.16584z"/><path d="m544.33321 145.18062c0-4.13509-.62965-7.85789-3.81427-8.27019-1.65891-.19402-3.82639-.71545-3.82639-2.06148 0-.92161.62966-1.44304 1.76789-1.44304 1.94952 0 3.59632.4123 7.31372.4123 2.26435 0 4.73455-.4123 7.31373-.4123 1.2351 0 1.96163.52143 1.96163 1.55217 0 1.2369-1.75578 1.64919-3.40258 1.95235-2.4702.52144-3.40258 1.96447-3.40258 5.48112v56.36341c0 1.03074-.8234 1.34603-2.99088 1.34603-1.2351 0-2.0585-.31529-2.8819-1.55218l-32.36688-51.3067h-.31483v40.25957c0 6.49974 1.96163 7.53048 4.02013 7.84577 2.0585.31528 4.12911.10913 4.12911 1.96447 0 .81247-.8234 1.54005-2.07061 1.54005-2.8819 0-5.04938-.4123-7.4106-.4123-2.4823 0-5.15835.4123-6.91413.4123-1.53782 0-2.26435-.30316-2.26435-1.54005 0-3.61366 6.5993 0 6.5993-6.51186v-49.34224c0-7.02117-6.39345-3.29837-6.39345-6.19658 0-1.13988 1.02925-1.85533 2.78503-1.85533 2.36122 0 4.84352.4123 7.31372.4123 2.48231 0 4.95251-.4123 7.42271-.4123 2.0585 0 3.30571.31528 4.22598 1.7462l22.98255 37.27648h.21795z"/><path d="m581.02294 132.16902c4.02013 0 9.57808 1.03074 12.78692 2.37677 1.44095.60632 2.56707.9216 2.56707 2.77694 0 3.41964 0 6.82715-.0969 10.22254 0 3.20136-.10898 4.54739-2.4702 4.54739-4.33496 0-4.85564-16.62527-14.22787-16.62527-4.85563 0-7.21685 3.3105-7.21685 7.63962 0 13.8362 26.69995 15.89768 26.69995 35.51816 0 12.90247-11.14012 21.47582-23.92703 21.47582-2.8819 0-17.10977-.10914-17.10977-5.57814 0-5.89342.20585-8.77949.31483-10.95012.30272-5.35985.8234-7.11818 3.40258-7.11818 5.25523 0 2.57918 20.33594 14.11889 20.33594 6.28448 0 10.00188-4.53527 10.00188-10.1134 0-14.45465-26.69995-18.4806-26.69995-35.93046 0-12.07787 11.64869-18.57761 21.85642-18.57761"/><path d="m129.13382 238.73563c0-2.41315-.61755-2.95884-2.85769-2.95884-1.06557 0-2.04639.1819-2.76081.1819-1.16244 0-1.34408-.27891-1.34408-1.16414 0-1.87958 13.04121-3.67429 20.19752-3.67429 16.6133 0 26.97845 11.09564 26.97845 29.07906 0 12.62356-6.97468 28.72739-23.93914 28.72739-3.8506 0-7.32583-.3638-10.72841-.3638-7.24108 0-9.7476.3638-11.61236.3638-.5449 0-.89606-.53356-.89606-1.16414 0-.98223.44803-1.16413 3.12408-1.34602 2.85768-.0849 3.8385-1.61281 3.8385-6.43911zm8.75467 40.52635c0 5.10521 2.42177 7.15457 7.07156 7.15457 9.2027 0 14.73643-11.09564 14.73643-25.0531 0-16.4555-6.42978-27.73303-16.26214-27.73303-3.40258 0-5.54585 1.24902-5.54585 5.35986z"/><path d="m178.8042 238.00805c0-2.23126-.61755-2.8497-3.3057-3.31051-1.69524-.25465-2.50653-.16977-2.50653-1.3339 0-.98223.72653-1.16413 2.6034-1.16413.79918 0 2.85768.35166 14.20364.35166 9.38434 0 13.5861-.35166 16.17739-.35166 1.59837 0 2.04639.35166 2.04639 1.69769v11.36242c0 1.16413-.35115 1.61281-.98081 1.61281-1.42884 0-.89606-.44868-2.95456-5.0082-2.40965-5.37198-4.90407-7.16669-11.79399-7.16669-4.28652 0-4.73455.3638-4.73455 2.42528v18.16531c0 1.24902.18164 1.60069 2.42177 1.60069 7.4106 0 7.76175-.0849 9.38433-3.39539 1.41674-2.94671 1.33197-4.11084 2.49442-4.11084.79918 0 1.06558.44867 1.06558 1.60068 0 1.87959-.35116 4.92331-.35116 7.70025 0 3.39539.35116 5.72365.35116 7.51835 0 1.61281-.16953 2.49804-1.24721 2.49804-1.33197 0-1.33197-1.78258-2.31279-4.91119-1.25931-4.12296-1.62258-4.38974-7.87073-4.38974-3.5721 0-3.93537.0849-3.93537 1.6128v17.08607c0 6.43911 1.07769 8.3187 7.15632 8.3187 5.88488 0 8.75467-2.49804 11.06746-8.76738 1.79211-4.74141 1.70734-5.09307 2.6034-5.09307.79918 0 .9687.26678.9687 2.04935v12.72057c0 1.23689-.35115 1.60069-2.14326 1.60069-2.40965 0-6.69618-.3638-15.80201-.3638-10.09876 0-12.69005.3638-16.98868.3638-1.59836 0-1.86476-.44868-1.86476-1.07925 0-.98224.2664-1.24902 1.5136-1.43091 3.85061-.61845 4.73455-1.43092 4.73455-4.11085z"/><path d="m245.16055 236.58926c0-1.16413-.53279-1.89172-2.0585-1.89172h-2.76081c-.62966 0-1.07769-.25465-1.07769-.98223 0-.88523.89606-1.3339 2.14326-1.5158 7.32584-.89735 11.97563-1.07925 17.50936-1.07925 11.97563 0 18.76867 4.12297 18.76867 12.97523 0 7.25157-4.46815 10.56207-11.16433 12.79333v.18189c8.30665.98224 14.5548 6.8029 14.5548 15.21861 0 8.40358-6.34502 16.63739-15.54772 16.63739-3.92326 0-7.32584-.3638-13.3076-.3638-5.27944 0-8.75468.3638-10.99481.3638-1.5136 0-1.96163-.3638-1.96163-.98224 0-.80034.44803-.80034 2.3249-1.43091 2.95455-.98224 3.5721-1.26115 3.5721-3.6743zm8.75468 16.00682c0 3.04372.89605 3.40751 3.48734 3.40751 6.16339 0 11.34596-3.04372 11.34596-11.99299 0-6.53612-3.75373-10.38018-10.00188-10.38018-4.117 0-4.83142 1.34603-4.83142 3.6743zm0 27.19946c0 4.30487 1.97374 6.62101 7.15631 6.62101 4.73455 0 10.35304-3.57729 10.35304-14.49103 0-7.43347-3.83849-13.41177-12.67793-13.41177-4.117 0-4.83142.52143-4.83142 2.49803z"/><path d="m307.70261 289.99383c-13.75562 0-22.34077-15.20648-22.34077-29.43072s8.58515-29.44285 22.34077-29.44285c13.75563 0 22.34078 15.21861 22.34078 29.44285s-8.58515 29.43072-22.34078 29.43072zm0-56.36341c-8.85154 0-12.69004 15.92194-12.69004 26.93269s3.8385 26.93268 12.69004 26.93268c8.85155 0 12.69005-15.92193 12.69005-26.93268s-3.8385-26.93269-12.69005-26.93269"/><path d="m349.15111 281.32347c0 2.59504.71442 4.37762 3.47523 4.92331 3.40258.61844 3.76585 1.07924 3.76585 1.69769 0 .61844-.2664.98224-1.16245.98224-1.97374 0-5.26734-.3638-9.56597-.3638-5.00094 0-7.4106.3638-9.65073.3638-.89605 0-1.33197-.3638-1.33197-1.16414 0-.61844.35116-1.16413 1.86476-1.34602 2.86979-.25466 3.8506-1.96448 3.8506-3.75918v-43.83686c0-2.95883-.62965-3.94107-3.22094-4.12297-2.0585-.16977-2.49442-.53356-2.49442-1.16413 0-.88522.61755-1.3339 1.59836-1.3339 2.50653 0 5.09782.35166 8.93632.35166 4.74665 0 7.95549-.35166 13.13807-.35166 9.73549 0 15.63249 6.26934 15.63249 14.67292 0 7.96703-6.51455 12.34465-13.75563 13.32689v.18189c2.67605.44868 3.75374 1.6977 5.08571 4.38975 7.32584 14.7578 8.22189 19.94789 10.81318 21.64559 1.7921 1.16413 3.22094.36379 3.22094 1.69769 0 .44867-.26639.81247-1.07768.81247-2.04639 0-4.10489-.3638-6.16339-.3638-2.22802 0-2.94244.3638-4.73455.3638-.61755 0-1.07769-.44868-1.61047-1.6977l-10.98271-23.98597c-.53278-1.16413-1.16244-1.87959-2.85768-1.87959-1.96163 0-2.77292.4608-2.77292 2.14637zm0-24.60442c0 1.7947.2664 2.14637 2.85768 2.14637 8.04026 0 12.32679-3.31051 12.32679-12.17489 0-6.43911-4.28653-11.99299-9.65074-11.99299-4.46815 0-5.6306 1.16414-5.53373 4.75354z"/><path d="m387.60873 238.73563c0-2.41315-.62966-2.95884-2.85768-2.95884-1.07769 0-2.0585.1819-2.77292.1819-1.16245 0-1.33197-.27891-1.33197-1.16414 0-1.87958 13.0412-3.67429 20.1854-3.67429 16.61331 0 26.97846 11.09564 26.97846 29.07906 0 12.62356-6.96257 28.72739-23.93914 28.72739-3.85061 0-7.32584-.3638-10.71631-.3638-7.24107 0-9.7476.3638-11.62447.3638-.53279 0-.88394-.53356-.88394-1.16414 0-.98223.43592-1.16413 3.12407-1.34602 2.85769-.0849 3.8385-1.61281 3.8385-6.43911zm8.75468 40.52635c0 5.10521 2.40965 7.15457 7.05944 7.15457 9.20271 0 14.74855-11.09564 14.74855-25.0531 0-16.4555-6.4419-27.73303-16.27426-27.73303-3.39047 0-5.53373 1.24902-5.53373 5.35986z"/><path d="m437.27912 238.00805c0-2.23126-.62966-2.8497-3.30571-3.31051-1.70734-.25465-2.50653-.16977-2.50653-1.3339 0-.98223.71442-1.16413 2.59129-1.16413.81129 0 2.85768.35166 14.20365.35166 9.38434 0 13.5861-.35166 16.17739-.35166 1.59836 0 2.04639.35166 2.04639 1.69769v11.36242c0 1.16413-.35116 1.61281-.98082 1.61281-1.42884 0-.89605-.44868-2.94244-5.0082-2.40966-5.37198-4.91618-7.16669-11.79399-7.16669-4.28653 0-4.73455.3638-4.73455 2.42528v18.16531c0 1.24902.16952 1.60069 2.40965 1.60069 7.4106 0 7.77387-.0849 9.38434-3.39539 1.42884-2.94671 1.33197-4.11084 2.49442-4.11084.81129 0 1.07768.44867 1.07768 1.60068 0 1.87959-.36326 4.92331-.36326 7.70025 0 3.39539.36326 5.72365.36326 7.51835 0 1.61281-.18163 2.49804-1.24721 2.49804-1.34408 0-1.34408-1.78258-2.32489-4.91119-1.25932-4.12296-1.61047-4.38974-7.85863-4.38974-3.58421 0-3.93536.0849-3.93536 1.6128v17.08607c0 6.43911 1.06557 8.3187 7.1442 8.3187 5.897 0 8.75468-2.49804 11.07957-8.76738 1.78-4.74141 1.69524-5.09307 2.59129-5.09307.79918 0 .98082.26678.98082 2.04935v12.72057c0 1.23689-.36327 1.60069-2.14326 1.60069-2.40966 0-6.69618-.3638-15.81413-.3638-10.09875 0-12.67793.3638-16.97656.3638-1.61048 0-1.87687-.44868-1.87687-1.07925 0-.98224.26639-1.24902 1.5136-1.43091 3.85061-.61845 4.74666-1.43092 4.74666-4.11085z"/><path d="m484.7457 268.69991c-1.34408 0-1.34408.54568-2.59129 5.73577-1.7921 7.50623-2.24013 8.67036-2.24013 9.30094 0 1.16413.71442 2.06148 2.68816 2.67993 1.69523.54568 4.20176.18189 4.20176 1.34602 0 .54569-.2785 1.16414-1.61047 1.16414-.81129 0-4.29863-.3638-6.4419-.3638-4.28652 0-5.80012.3638-6.69617.3638-.62966 0-.89606-.26678-.89606-.89736 0-1.34602 1.16245-.80034 3.05143-1.6128 2.04639-.88523 2.94244-5.09308 10.17141-28.98205 7.87073-25.95045 7.24107-26.31424 8.85155-26.31424 1.87686 0 1.15033 1.07925 12.14514 36.87632 4.46816 14.49102 5.00095 17.80152 6.79305 18.41997 2.0585.72758 3.12408.44867 3.12408 1.52792 0 .61844-.2664.98224-1.86476.98224-1.44095 0-4.28652-.3638-7.60434-.3638-4.81931 0-8.04026.3638-9.02107.3638-.98082 0-1.16245-.44868-1.16245-1.07925 0-.80034.89605-.70333 3.93537-1.43091 1.16244-.25466 1.5136-1.33391 1.5136-2.04936 0-.81247-.43592-1.9766-2.22802-8.41571-1.79211-6.52399-1.79211-7.25157-2.95456-7.25157zm10.44991-2.49804c.62966 0 .79919 0 .79919-.26678 0-.63057-.53279-2.24338-3.92326-14.05447-1.34408-4.6444-1.34408-5.00819-1.69524-5.00819-.44802 0-.44802.53356-3.39047 11.09563-1.87686 6.9848-2.24013 7.70025-2.24013 7.96703 0 .1819.16952.26678.98082.26678z"/><path d="m549.50368 273.35644v-31.6741c0-6.00256-1.24721-6.70589-3.5721-6.9848-2.50653-.25465-2.77292-.53356-2.77292-1.3339 0-.63057.36326-1.16413 1.88897-1.16413.96871 0 2.39755.35166 5.6185.35166 3.66897 0 4.55292-.35166 5.89699-.35166.89606 0 1.78.44868 1.78 1.16413 0 .88523-.52068 1.16413-2.84557 1.3339-2.0585.1819-3.48734 1.44304-3.48734 4.48676v33.1899c0 12.34465-5.99387 17.61963-15.54773 17.61963-9.29958 0-17.69099-2.41315-17.69099-13.145v-38.56188c0-2.24338-.36326-3.40751-1.61047-3.58941-3.12408-.44867-3.39047-.80034-3.39047-1.51579 0-.53356.44802-.98224 1.24721-.98224 1.69523 0 3.48734.35166 8.30665.35166 5.6306 0 8.66991-.35166 9.29957-.35166 1.06558 0 1.51361.44868 1.51361.98224 0 .89735-.53279.98223-3.30571 1.51579-2.24013.3638-3.30571 1.26115-3.30571 4.12297v35.96684c0 8.05191 4.02013 12.17488 11.17644 12.17488 5.88489 0 10.80107-4.30486 10.80107-13.60579"/><path d="m562.99291 238.82051c-1.5136-2.86182-1.69524-3.75917-3.47523-4.12297-1.61048-.35166-2.42177-.35166-2.42177-1.3339 0-.71545.44803-1.16413 1.34408-1.16413 1.61048 0 3.75374.35166 7.77387.35166 5.98175 0 7.76175-.35166 9.11794-.35166.70231 0 1.24721.35166 1.24721.89735 0 .89735-.36327 1.34603-3.12408 1.60068-.99292.097-1.87687.63058-1.87687 1.62494 0 1.24902.71442 2.41315 7.677 16.37061 6.26026-12.70845 7.59223-14.32125 7.59223-15.84918 0-1.41878-1.33197-2.14637-3.75374-2.14637-.79918 0-1.77999-.25465-1.77999-1.16413 0-1.152.98081-1.3339 1.87686-1.3339.89606 0 2.94245.35166 7.14421.35166 2.85768 0 4.38339-.35166 5.71536-.35166 1.34408 0 1.79211.35166 1.79211 1.16413 0 .71546-.18163 1.24902-1.34408 1.3339-3.8385.27891-5.53373 1.79471-7.04734 4.75354l-8.66991 16.55251 7.22897 14.7578c6.87781 14.04235 7.1442 14.67292 9.2027 15.65516 1.25932.63057 1.97374.81246 1.97374 1.43091 0 .63057-.18163 1.07925-1.42884 1.07925-1.62259 0-4.56503-.3638-6.79305-.3638-6.79305 0-8.31876.3638-9.11795.3638-1.06557 0-1.42884-.3638-1.42884-.98224 0-1.07925 1.34408-1.07925 2.67605-1.52792 1.42884-.44868 2.3249-1.06713 2.3249-2.04936 0-.89735-1.16245-2.95884-6.51455-14.32125-2.0585-4.47464-2.50653-5.09308-2.68816-5.09308-.44802 0-.79918 1.16413-4.38339 7.78513-3.65687 6.79077-4.45605 9.03415-4.45605 10.46507 0 1.60068.98082 2.67993 3.5721 3.21349 1.69524.36379 2.40966.54568 2.40966 1.34602 0 .89736-.53279 1.16414-1.16245 1.16414-1.34408 0-2.85768-.3638-7.22896-.3638-4.64979 0-6.26026.3638-7.24108.3638-1.52571 0-1.7921-.26678-1.7921-1.16414 0-1.16413.62965-1.16413 2.32489-1.51579 2.94244-.71546 3.12408-.99437 6.16339-6.35423l10.28039-18.16531z"/><path d="m229.55228 141.39719c0-3.11648-1.65891-4.25636-3.32993-4.57164-1.54993-.31529-3.31782-.61845-3.31782-1.86747 0-1.152.93238-1.45516 2.70027-1.45516 2.17959 0 5.40054.4123 11.9393.4123 4.2502 0 10.47413-.4123 17.10977-.4123 11.21276 0 19.50731 5.40836 19.50731 16.30998 0 16.3221-18.46596 14.86694-18.46596 16.00682 0 .52143.83551.61844 1.97374.61844 5.29156 0 7.88285.94586 9.85658 5.9298l7.2653 18.28658c3.00298 7.48197 6.84148 4.15935 6.84148 7.16669 0 1.152-.93238 1.5643-1.86476 1.5643h-14.0099c-4.45605 0-4.77088-.4123-6.42979-4.88693l-7.36216-20.05703c-1.35619-3.73492-2.49442-6.02681-5.50952-6.02681-.72653 0-.93238.42442-.93238.83672v19.42646c0 3.22562.10898 5.72365 2.6034 6.75439 1.96163.83672 3.72952.52144 3.72952 2.49804 0 1.13988-1.04136 1.45516-2.79714 1.45516-1.76789 0-4.98884-.4123-11.51549-.4123-6.53876 0-9.75971.4123-11.9393.4123-1.34408 0-2.28857-.31528-2.28857-1.45516 0-1.86747 1.24721-2.18275 2.90612-2.49804 1.67102-.31528 3.32993-.82459 3.32993-3.94107zm15.97153 22.55506c0 .30316.52068.52144.93238.52144 7.2653 0 11.73345-5.82066 11.73345-14.04235 0-7.2637-3.8385-13.60579-9.44488-13.60579-2.07061 0-3.22095.83672-3.22095 4.77779z"/><path d="m174.16653 191.44275c0 3.58941-11.04325 8.43996-20.51235 8.43996-17.25507 0-29.2428-15.59452-29.2428-32.87461 0-22.11851 13.46501-36.43976 31.24076-36.43976 4.31074 0 8.63359.83672 12.20569 1.89171 2.10693.73971 3.68108 1.37028 3.88693 3.68642.21796 3.15286.31483 7.2637.31483 12.74482 0 2.10999-.94449 2.94671-2.09483 2.94671-6.10284 0-4.9525-17.91066-15.36609-17.91066-5.57006 0-12.52052 8.42784-12.52052 30.55848 0 20.43294 5.15836 32.01363 12.73848 32.01363 2.40965 0 3.77795-2.72843 3.77795-7.2637v-15.27923c0-5.68727-6.41768-2.52229-6.41768-5.26285 0-1.46729.84762-1.89172 2.7366-1.89172 3.58421 0 8.20978.42443 11.99984.42443 3.14829 0 7.45904-.42443 10.30461-.42443 1.88897 0 2.31278.52144 2.31278 1.57643 0 2.52229-5.3642.31529-5.3642 6.42698z"/></g></g></g><path d="m647.32577 64.212401 5.87425 361.829769s14.01058 279.77849-323.21433 373.04985c0 0-303.601903-58.91134-329.10043573-373.04985l6.72697003-360.370921s312.2948557-144.793584 639.7135457-1.458848z" fill="#131734" stroke="#fff" stroke-width="1.76917"/><path d="m615.13579 91.278172 2.66473 331.253278s17.77674 253.76831-288.07538 338.3696c0 0-270.298665-53.43177-293.416703-338.3696l3.422701-329.924888s278.434982-131.320006 575.404652-1.32839z" fill="none" stroke="#fff" stroke-width="31.9056"/><g fill="#fff" stroke-width="1.02242" transform="matrix(.97806849 0 0 .97807846 -22.261692 -17.806841)"><g stroke-width="1.02242"><path d="m325.62367 505.94037c0 2.18274 1.29565 3.17711 3.31782 3.17711.94449 0 1.48938.14551 1.48938.75183 0 .5942-.29061.83672-1.2351.83672-2.38543 0-4.8072-.20614-7.19264-.20614-2.57918 0-5.09781.20614-7.67699.20614-.49646 0-1.04136-.24252-1.04136-.83672 0-.60632.5449-.75183 1.48939-.75183 2.51863 0 3.7174-.54569 3.7174-2.32827v-21.24541c0-1.23689-.25428-1.58856-1.04135-1.58856-1.39252 0-2.78503 1.38241-3.66898 1.38241-.44802 0-.65387-.19402-.65387-.78821 0-.48506.60544-.94586 5.44897-3.22562 5.20679-2.42528 5.55795-2.67993 6.26026-2.67993.48435 0 .78707.20615.78707.65482z"/><path d="m349.72023 492.15268c4.21387 1.83108 7.88284 4.4625 7.88284 9.5192 0 6.25721-5.94543 9.64047-11.60025 9.64047-5.00094 0-11.10379-2.69205-11.10379-8.5976 0-4.57164 3.32992-5.55388 6.59931-7.14244-2.97877-1.78257-5.44897-4.36549-5.44897-8.1853 0-5.91767 5.30366-8.74312 10.59522-8.74312 5.75169 0 9.42066 3.03159 9.42066 7.15456 0 3.61366-3.41469 5.29923-6.34502 6.35423zm-6.79305 4.31699c-1.38041 1.9766-1.68313 3.56515-1.68313 6.00255 0 4.95969 2.08272 7.23945 5.15836 7.23945s4.85564-1.94022 4.85564-4.65653c0-4.71716-4.74666-6.8029-8.33087-8.58547zm5.41264-5.21435c1.68313-1.49154 2.4702-2.78906 2.4702-5.35986 0-2.4859-.98081-5.66301-4.75877-5.66301-2.6155 0-3.66897 1.84321-3.66897 3.7713 0 3.97745 3.23306 5.66302 5.95754 7.25157"/><path d="m376.49283 492.15268c4.21387 1.83108 7.88285 4.4625 7.88285 9.5192 0 6.25721-5.94544 9.64047-11.58815 9.64047-5.01305 0-11.10379-2.69205-11.10379-8.5976 0-4.57164 3.31782-5.55388 6.5872-7.14244-2.96666-1.78257-5.44897-4.36549-5.44897-8.1853 0-5.91767 5.30367-8.74312 10.60733-8.74312 5.75169 0 9.40856 3.03159 9.40856 7.15456 0 3.61366-3.41469 5.29923-6.34503 6.35423zm-6.78094 4.31699c-1.39251 1.9766-1.68312 3.56515-1.68312 6.00255 0 4.95969 2.08271 7.23945 5.14625 7.23945 3.07564 0 4.85563-1.94022 4.85563-4.65653 0-4.71716-4.75876-6.8029-8.31876-8.58547zm5.40054-5.21435c1.68312-1.49154 2.48231-2.78906 2.48231-5.35986 0-2.4859-.99293-5.66301-4.75877-5.66301-2.62762 0-3.66897 1.84321-3.66897 3.7713 0 3.97745 3.22094 5.66302 5.94543 7.25157"/><path d="m401.9819 505.94037c0 2.18274 1.29565 3.17711 3.32993 3.17711.93238 0 1.47727.14551 1.47727.75183 0 .5942-.29061.83672-1.23509.83672-2.38544 0-4.80721-.20614-7.19265-.20614-2.56707 0-5.09781.20614-7.67699.20614-.49646 0-1.04136-.24252-1.04136-.83672 0-.60632.5449-.75183 1.48939-.75183 2.53074 0 3.71741-.54569 3.71741-2.32827v-21.24541c0-1.23689-.24218-1.58856-1.04136-1.58856-1.38041 0-2.77292 1.38241-3.66898 1.38241-.44802 0-.64176-.19402-.64176-.78821 0-.48506.59333-.94586 5.44897-3.22562 5.20679-2.42528 5.54584-2.67993 6.24815-2.67993.49646 0 .78707.20615.78707.65482z"/></g><g stroke-width="1.02242"><path d="m269.63248 391.97667c0 1.49154-.10898 2.34039 1.63469 2.34039 1.04136 0 3.22095 0 4.15333-.20615 1.39251-.24253 1.98584-1.3339 2.38543-2.63143.19374-.64269.5449-1.62493 1.44095-1.62493.78708 0 .99293.58207.99293 1.2854-.10898 1.3824-.10898 2.88607-.20585 4.26848 0 1.38241.0969 2.87395.20585 4.26849 0 .64269-.20585 1.3824-1.05347 1.3824-2.37333 0-.64177-4.75354-5.897-4.75354l-2.11904.097c-1.6468.097-1.53782.78822-1.53782 2.13425v6.34209c0 2.93459-.20585 4.12297 2.91822 4.62015.64177.097 1.58626.25466 1.58626 1.15201 0 .73971-.5449.93373-1.18666.93373-2.57918 0-5.06149-.19402-7.62856-.19402-2.38544 0-4.75877.19402-7.14421.19402-.6902 0-1.18666-.19402-1.18666-.93373 0-.80034.73864-1.055 1.34408-1.15201 3.25727-.54568 3.11196-1.39453 3.11196-4.62015v-17.66812c0-2.97096.20585-4.31699-2.96666-4.81417-.64176-.0849-1.58625-.0849-1.58625-.93373 0-.80034.49646-.99437 1.18666-.99437 4.56503 0 9.21482.19403 13.77984.19403 3.17251 0 6.44189-.19403 9.61441-.19403 1.28353 0 1.63469.0485 1.63469 1.44304v4.75354c0 .65483-.24218 1.34603-.99293 1.34603-.94448 0-1.48938-1.18838-1.93741-1.89171-.73864-1.23689-1.13823-1.9766-2.4702-2.6193-1.44095-.70333-3.22094-.6427-4.8072-.6427-.59333 0-2.17959-.10914-2.78503.29103-.48435.35167-.48435 1.18839-.48435 1.73408z"/><path d="m467.5875 407.07401c-.0969 1.63706-.0484 2.27976-1.58626 3.17711-2.78502 1.68556-6.29658 2.27976-9.51753 2.27976-4.35918 0-9.4691-.99437-13.0412-3.6743-3.76584-2.82544-6.29659-7.5426-6.29659-12.30827 0-4.91118 2.48231-9.38582 6.39346-12.30827 3.87482-2.82545 9.17849-4.17148 13.93725-4.17148 2.3249 0 5.14625.40017 7.42271 1.04287 1.34408.40017 1.34408.59419 1.59837 1.98873l.39959 2.53441c.0969.49718.19374.93373.19374 1.43091 0 .54569-.39959.84885-.94449.84885-2.27646 0-2.43387-5.90555-9.11794-5.90555-3.28149 0-6.29659 1.83109-8.18557 4.46251-1.9253 2.72844-2.72448 6.35422-2.72448 9.62834 0 3.22562.75075 6.8029 2.48231 9.53134 1.88897 2.93458 4.85563 4.95969 8.42774 4.95969 1.93741 0 3.71741-.69121 5.20679-1.87959 1.47728-1.24902 2.37333-2.88608 3.26938-4.57165.24218-.54568.59334-1.04286 1.2351-1.04286 1.0898 0 1.04136 1.13987.99293 1.89171z"/></g><path d="m103.76583 493.66847h157.45102l98.54159 107.1608 98.26309-107.1608h157.45101l-255.7141 243.7402z"/><g stroke-width="1.02242"><g><path d="m362.5798 318.17553s25.51328 37.15522 8.63359 68.12599c-16.86759 30.95864-61.86398 29.57624-61.86398 29.57624s54.41705 18.33508 76.09184-21.68197c20.42758-37.68878-22.86145-76.02026-22.86145-76.02026"/><path d="m360.17014 319.16989s-25.51329 37.15523-8.63359 68.11387c16.86759 30.97077 61.86397 29.58836 61.86397 29.58836s-54.41704 18.32296-76.09184-21.68196c-20.42758-37.68879 22.86146-76.02027 22.86146-76.02027"/><path d="m416.65779 411.73054s-20.12486-40.33234-55.34942-40.52636-55.79745 39.90791-55.79745 39.90791 10.31671-56.55743 55.77323-56.20576c42.8168.32741 55.37364 56.82421 55.37364 56.82421"/></g><g><path d="m207.35681 191.0062c0 3.09223 1.6468 3.62579 3.30571 3.92895 1.64679.30316 3.40257.61845 3.40257 2.47378 0 1.13988-1.02925 1.44304-2.78503 1.44304-2.16747 0-5.3642-.4123-11.85453-.4123-6.50244 0-9.68706.4123-11.85454.4123-1.75578 0-2.78503-.30316-2.78503-1.44304 0-1.85533 1.75578-2.17062 3.81428-2.47378 2.26435-.30316 2.8819-1.86746 2.8819-6.60888v-46.25c0-2.36465 0-3.91682-1.85265-4.94756-1.75578-.83672-4.22598-.83672-4.22598-2.17063 0-1.44303 1.2351-1.55217 3.09986-1.55217 1.2351 0 4.41972.4123 10.92216.4123 6.49033 0 9.68706-.4123 11.85453-.4123 1.75578 0 2.78503.4123 2.78503 1.44304 0 1.23689-2.37333 1.86746-4.02012 2.47378-2.26435.93373-2.68816 2.27976-2.68816 5.16584z"/><path d="m308.80452 200.10099c-18.34487 0-28.75845-18.38359-28.75845-33.96599 0-17.656 10.00188-33.96598 28.75845-33.96598 18.34486 0 28.75845 18.37146 28.75845 33.96598 0 17.64388-10.00189 33.96599-28.75845 33.96599zm-1.13823-64.6336c-6.79305 0-10.30461 12.9146-10.30461 23.64644 0 19.92364 4.74666 37.67666 13.19862 37.67666 6.1755 0 9.68705-10.1134 9.68705-25.6958 0-16.52825-4.33495-35.6273-12.58106-35.6273"/><path d="m386.30098 145.18062c0-4.13509-.60544-7.85789-3.80217-8.27019-1.6468-.19402-3.81428-.71545-3.81428-2.06148 0-.92161.61755-1.44304 1.74367-1.44304 1.96163 0 3.60843.4123 7.32584.4123 2.26435 0 4.73455-.4123 7.31373-.4123 1.2351 0 1.96162.52143 1.96162 1.55217 0 1.2369-1.75577 1.64919-3.40257 1.95235-2.4702.52144-3.40258 1.96447-3.40258 5.48112v56.36341c0 1.03074-.8234 1.34603-2.99088 1.34603-1.2351 0-2.0585-.31529-2.8819-1.55218l-32.36688-51.3067h-.31483v40.25957c0 6.49974 1.96163 7.53048 4.02013 7.84577 2.0706.31528 4.1291.10913 4.1291 1.96447 0 .81247-.8355 1.54005-2.0585 1.54005-2.894 0-5.06148-.4123-7.4227-.4123-2.48231 0-5.15836.4123-6.91414.4123-1.54993 0-2.26435-.30316-2.26435-1.54005 0-3.61366 6.59931 0 6.59931-6.51186v-49.34224c0-7.02117-6.39346-3.29837-6.39346-6.19658 0-1.13988 1.02925-1.85533 2.78503-1.85533 2.36122 0 4.84353.4123 7.31373.4123s4.95251-.4123 7.42271-.4123c2.05849 0 3.3057.31528 4.22597 1.7462l22.98255 37.27648h.20585z"/><path d="m409.31985 142.5977c0-5.99043-6.9989-1.55217-6.9989-4.6444 0-2.26763 6.90203-5.78428 24.21764-5.78428 21.74745 0 34.32851 11.76258 34.32851 33.44455 0 20.44507-11.5397 33.2384-28.66158 33.2384-7.21686 0-11.9514-.4123-16.28636-.4123-5.25523 0-8.45196.4123-10.60733.4123-1.75578 0-2.78503-.30316-2.78503-1.44304 0-1.85533 1.74367-2.17062 3.39047-2.47378 1.65891-.30316 3.40258-.83672 3.40258-3.92895zm15.87466 46.86845c0 2.88608 2.48231 5.469 5.36421 5.469 7.01101 0 12.98066-6.19658 12.98066-29.73388 0-19.60835-5.14625-29.11543-13.70719-29.11543-3.08775 0-4.63768 1.55217-4.63768 4.65653z"/><path d="m489.20175 191.0062c0 3.09223 1.6468 3.62579 3.2936 3.92895s3.40258.61845 3.40258 2.47378c0 1.13988-1.02925 1.44304-2.78503 1.44304-2.16748 0-5.3521-.4123-11.85454-.4123-6.49033 0-9.68706.4123-11.85454.4123-1.74367 0-2.77292-.30316-2.77292-1.44304 0-1.85533 1.74367-2.17062 3.81428-2.47378 2.26435-.30316 2.8819-1.86746 2.8819-6.60888v-46.25c0-2.36465 0-3.91682-1.85265-4.94756-1.75578-.83672-4.23809-.83672-4.23809-2.17063 0-1.44303 1.24721-1.55217 3.09986-1.55217 1.2351 0 4.43183.4123 10.92216.4123 6.50244 0 9.68706-.4123 11.85454-.4123 1.75578 0 2.78503.4123 2.78503 1.44304 0 1.23689-2.37333 1.86746-4.00802 2.47378-2.27646.93373-2.68816 2.27976-2.68816 5.16584z"/><path d="m544.33321 145.18062c0-4.13509-.62965-7.85789-3.81427-8.27019-1.65891-.19402-3.82639-.71545-3.82639-2.06148 0-.92161.62966-1.44304 1.76789-1.44304 1.94952 0 3.59632.4123 7.31372.4123 2.26435 0 4.73455-.4123 7.31373-.4123 1.2351 0 1.96163.52143 1.96163 1.55217 0 1.2369-1.75578 1.64919-3.40258 1.95235-2.4702.52144-3.40258 1.96447-3.40258 5.48112v56.36341c0 1.03074-.8234 1.34603-2.99088 1.34603-1.2351 0-2.0585-.31529-2.8819-1.55218l-32.36688-51.3067h-.31483v40.25957c0 6.49974 1.96163 7.53048 4.02013 7.84577 2.0585.31528 4.12911.10913 4.12911 1.96447 0 .81247-.8234 1.54005-2.07061 1.54005-2.8819 0-5.04938-.4123-7.4106-.4123-2.4823 0-5.15835.4123-6.91413.4123-1.53782 0-2.26435-.30316-2.26435-1.54005 0-3.61366 6.5993 0 6.5993-6.51186v-49.34224c0-7.02117-6.39345-3.29837-6.39345-6.19658 0-1.13988 1.02925-1.85533 2.78503-1.85533 2.36122 0 4.84352.4123 7.31372.4123 2.48231 0 4.95251-.4123 7.42271-.4123 2.0585 0 3.30571.31528 4.22598 1.7462l22.98255 37.27648h.21795z"/><path d="m581.02294 132.16902c4.02013 0 9.57808 1.03074 12.78692 2.37677 1.44095.60632 2.56707.9216 2.56707 2.77694 0 3.41964 0 6.82715-.0969 10.22254 0 3.20136-.10898 4.54739-2.4702 4.54739-4.33496 0-4.85564-16.62527-14.22787-16.62527-4.85563 0-7.21685 3.3105-7.21685 7.63962 0 13.8362 26.69995 15.89768 26.69995 35.51816 0 12.90247-11.14012 21.47582-23.92703 21.47582-2.8819 0-17.10977-.10914-17.10977-5.57814 0-5.89342.20585-8.77949.31483-10.95012.30272-5.35985.8234-7.11818 3.40258-7.11818 5.25523 0 2.57918 20.33594 14.11889 20.33594 6.28448 0 10.00188-4.53527 10.00188-10.1134 0-14.45465-26.69995-18.4806-26.69995-35.93046 0-12.07787 11.64869-18.57761 21.85642-18.57761"/><path d="m129.13382 238.73563c0-2.41315-.61755-2.95884-2.85769-2.95884-1.06557 0-2.04639.1819-2.76081.1819-1.16244 0-1.34408-.27891-1.34408-1.16414 0-1.87958 13.04121-3.67429 20.19752-3.67429 16.6133 0 26.97845 11.09564 26.97845 29.07906 0 12.62356-6.97468 28.72739-23.93914 28.72739-3.8506 0-7.32583-.3638-10.72841-.3638-7.24108 0-9.7476.3638-11.61236.3638-.5449 0-.89606-.53356-.89606-1.16414 0-.98223.44803-1.16413 3.12408-1.34602 2.85768-.0849 3.8385-1.61281 3.8385-6.43911zm8.75467 40.52635c0 5.10521 2.42177 7.15457 7.07156 7.15457 9.2027 0 14.73643-11.09564 14.73643-25.0531 0-16.4555-6.42978-27.73303-16.26214-27.73303-3.40258 0-5.54585 1.24902-5.54585 5.35986z"/><path d="m178.8042 238.00805c0-2.23126-.61755-2.8497-3.3057-3.31051-1.69524-.25465-2.50653-.16977-2.50653-1.3339 0-.98223.72653-1.16413 2.6034-1.16413.79918 0 2.85768.35166 14.20364.35166 9.38434 0 13.5861-.35166 16.17739-.35166 1.59837 0 2.04639.35166 2.04639 1.69769v11.36242c0 1.16413-.35115 1.61281-.98081 1.61281-1.42884 0-.89606-.44868-2.95456-5.0082-2.40965-5.37198-4.90407-7.16669-11.79399-7.16669-4.28652 0-4.73455.3638-4.73455 2.42528v18.16531c0 1.24902.18164 1.60069 2.42177 1.60069 7.4106 0 7.76175-.0849 9.38433-3.39539 1.41674-2.94671 1.33197-4.11084 2.49442-4.11084.79918 0 1.06558.44867 1.06558 1.60068 0 1.87959-.35116 4.92331-.35116 7.70025 0 3.39539.35116 5.72365.35116 7.51835 0 1.61281-.16953 2.49804-1.24721 2.49804-1.33197 0-1.33197-1.78258-2.31279-4.91119-1.25931-4.12296-1.62258-4.38974-7.87073-4.38974-3.5721 0-3.93537.0849-3.93537 1.6128v17.08607c0 6.43911 1.07769 8.3187 7.15632 8.3187 5.88488 0 8.75467-2.49804 11.06746-8.76738 1.79211-4.74141 1.70734-5.09307 2.6034-5.09307.79918 0 .9687.26678.9687 2.04935v12.72057c0 1.23689-.35115 1.60069-2.14326 1.60069-2.40965 0-6.69618-.3638-15.80201-.3638-10.09876 0-12.69005.3638-16.98868.3638-1.59836 0-1.86476-.44868-1.86476-1.07925 0-.98224.2664-1.24902 1.5136-1.43091 3.85061-.61845 4.73455-1.43092 4.73455-4.11085z"/><path d="m245.16055 236.58926c0-1.16413-.53279-1.89172-2.0585-1.89172h-2.76081c-.62966 0-1.07769-.25465-1.07769-.98223 0-.88523.89606-1.3339 2.14326-1.5158 7.32584-.89735 11.97563-1.07925 17.50936-1.07925 11.97563 0 18.76867 4.12297 18.76867 12.97523 0 7.25157-4.46815 10.56207-11.16433 12.79333v.18189c8.30665.98224 14.5548 6.8029 14.5548 15.21861 0 8.40358-6.34502 16.63739-15.54772 16.63739-3.92326 0-7.32584-.3638-13.3076-.3638-5.27944 0-8.75468.3638-10.99481.3638-1.5136 0-1.96163-.3638-1.96163-.98224 0-.80034.44803-.80034 2.3249-1.43091 2.95455-.98224 3.5721-1.26115 3.5721-3.6743zm8.75468 16.00682c0 3.04372.89605 3.40751 3.48734 3.40751 6.16339 0 11.34596-3.04372 11.34596-11.99299 0-6.53612-3.75373-10.38018-10.00188-10.38018-4.117 0-4.83142 1.34603-4.83142 3.6743zm0 27.19946c0 4.30487 1.97374 6.62101 7.15631 6.62101 4.73455 0 10.35304-3.57729 10.35304-14.49103 0-7.43347-3.83849-13.41177-12.67793-13.41177-4.117 0-4.83142.52143-4.83142 2.49803z"/><path d="m307.70261 289.99383c-13.75562 0-22.34077-15.20648-22.34077-29.43072s8.58515-29.44285 22.34077-29.44285c13.75563 0 22.34078 15.21861 22.34078 29.44285s-8.58515 29.43072-22.34078 29.43072zm0-56.36341c-8.85154 0-12.69004 15.92194-12.69004 26.93269s3.8385 26.93268 12.69004 26.93268c8.85155 0 12.69005-15.92193 12.69005-26.93268s-3.8385-26.93269-12.69005-26.93269"/><path d="m349.15111 281.32347c0 2.59504.71442 4.37762 3.47523 4.92331 3.40258.61844 3.76585 1.07924 3.76585 1.69769 0 .61844-.2664.98224-1.16245.98224-1.97374 0-5.26734-.3638-9.56597-.3638-5.00094 0-7.4106.3638-9.65073.3638-.89605 0-1.33197-.3638-1.33197-1.16414 0-.61844.35116-1.16413 1.86476-1.34602 2.86979-.25466 3.8506-1.96448 3.8506-3.75918v-43.83686c0-2.95883-.62965-3.94107-3.22094-4.12297-2.0585-.16977-2.49442-.53356-2.49442-1.16413 0-.88522.61755-1.3339 1.59836-1.3339 2.50653 0 5.09782.35166 8.93632.35166 4.74665 0 7.95549-.35166 13.13807-.35166 9.73549 0 15.63249 6.26934 15.63249 14.67292 0 7.96703-6.51455 12.34465-13.75563 13.32689v.18189c2.67605.44868 3.75374 1.6977 5.08571 4.38975 7.32584 14.7578 8.22189 19.94789 10.81318 21.64559 1.7921 1.16413 3.22094.36379 3.22094 1.69769 0 .44867-.26639.81247-1.07768.81247-2.04639 0-4.10489-.3638-6.16339-.3638-2.22802 0-2.94244.3638-4.73455.3638-.61755 0-1.07769-.44868-1.61047-1.6977l-10.98271-23.98597c-.53278-1.16413-1.16244-1.87959-2.85768-1.87959-1.96163 0-2.77292.4608-2.77292 2.14637zm0-24.60442c0 1.7947.2664 2.14637 2.85768 2.14637 8.04026 0 12.32679-3.31051 12.32679-12.17489 0-6.43911-4.28653-11.99299-9.65074-11.99299-4.46815 0-5.6306 1.16414-5.53373 4.75354z"/><path d="m387.60873 238.73563c0-2.41315-.62966-2.95884-2.85768-2.95884-1.07769 0-2.0585.1819-2.77292.1819-1.16245 0-1.33197-.27891-1.33197-1.16414 0-1.87958 13.0412-3.67429 20.1854-3.67429 16.61331 0 26.97846 11.09564 26.97846 29.07906 0 12.62356-6.96257 28.72739-23.93914 28.72739-3.85061 0-7.32584-.3638-10.71631-.3638-7.24107 0-9.7476.3638-11.62447.3638-.53279 0-.88394-.53356-.88394-1.16414 0-.98223.43592-1.16413 3.12407-1.34602 2.85769-.0849 3.8385-1.61281 3.8385-6.43911zm8.75468 40.52635c0 5.10521 2.40965 7.15457 7.05944 7.15457 9.20271 0 14.74855-11.09564 14.74855-25.0531 0-16.4555-6.4419-27.73303-16.27426-27.73303-3.39047 0-5.53373 1.24902-5.53373 5.35986z"/><path d="m437.27912 238.00805c0-2.23126-.62966-2.8497-3.30571-3.31051-1.70734-.25465-2.50653-.16977-2.50653-1.3339 0-.98223.71442-1.16413 2.59129-1.16413.81129 0 2.85768.35166 14.20365.35166 9.38434 0 13.5861-.35166 16.17739-.35166 1.59836 0 2.04639.35166 2.04639 1.69769v11.36242c0 1.16413-.35116 1.61281-.98082 1.61281-1.42884 0-.89605-.44868-2.94244-5.0082-2.40966-5.37198-4.91618-7.16669-11.79399-7.16669-4.28653 0-4.73455.3638-4.73455 2.42528v18.16531c0 1.24902.16952 1.60069 2.40965 1.60069 7.4106 0 7.77387-.0849 9.38434-3.39539 1.42884-2.94671 1.33197-4.11084 2.49442-4.11084.81129 0 1.07768.44867 1.07768 1.60068 0 1.87959-.36326 4.92331-.36326 7.70025 0 3.39539.36326 5.72365.36326 7.51835 0 1.61281-.18163 2.49804-1.24721 2.49804-1.34408 0-1.34408-1.78258-2.32489-4.91119-1.25932-4.12296-1.61047-4.38974-7.85863-4.38974-3.58421 0-3.93536.0849-3.93536 1.6128v17.08607c0 6.43911 1.06557 8.3187 7.1442 8.3187 5.897 0 8.75468-2.49804 11.07957-8.76738 1.78-4.74141 1.69524-5.09307 2.59129-5.09307.79918 0 .98082.26678.98082 2.04935v12.72057c0 1.23689-.36327 1.60069-2.14326 1.60069-2.40966 0-6.69618-.3638-15.81413-.3638-10.09875 0-12.67793.3638-16.97656.3638-1.61048 0-1.87687-.44868-1.87687-1.07925 0-.98224.26639-1.24902 1.5136-1.43091 3.85061-.61845 4.74666-1.43092 4.74666-4.11085z"/><path d="m484.7457 268.69991c-1.34408 0-1.34408.54568-2.59129 5.73577-1.7921 7.50623-2.24013 8.67036-2.24013 9.30094 0 1.16413.71442 2.06148 2.68816 2.67993 1.69523.54568 4.20176.18189 4.20176 1.34602 0 .54569-.2785 1.16414-1.61047 1.16414-.81129 0-4.29863-.3638-6.4419-.3638-4.28652 0-5.80012.3638-6.69617.3638-.62966 0-.89606-.26678-.89606-.89736 0-1.34602 1.16245-.80034 3.05143-1.6128 2.04639-.88523 2.94244-5.09308 10.17141-28.98205 7.87073-25.95045 7.24107-26.31424 8.85155-26.31424 1.87686 0 1.15033 1.07925 12.14514 36.87632 4.46816 14.49102 5.00095 17.80152 6.79305 18.41997 2.0585.72758 3.12408.44867 3.12408 1.52792 0 .61844-.2664.98224-1.86476.98224-1.44095 0-4.28652-.3638-7.60434-.3638-4.81931 0-8.04026.3638-9.02107.3638-.98082 0-1.16245-.44868-1.16245-1.07925 0-.80034.89605-.70333 3.93537-1.43091 1.16244-.25466 1.5136-1.33391 1.5136-2.04936 0-.81247-.43592-1.9766-2.22802-8.41571-1.79211-6.52399-1.79211-7.25157-2.95456-7.25157zm10.44991-2.49804c.62966 0 .79919 0 .79919-.26678 0-.63057-.53279-2.24338-3.92326-14.05447-1.34408-4.6444-1.34408-5.00819-1.69524-5.00819-.44802 0-.44802.53356-3.39047 11.09563-1.87686 6.9848-2.24013 7.70025-2.24013 7.96703 0 .1819.16952.26678.98082.26678z"/><path d="m549.50368 273.35644v-31.6741c0-6.00256-1.24721-6.70589-3.5721-6.9848-2.50653-.25465-2.77292-.53356-2.77292-1.3339 0-.63057.36326-1.16413 1.88897-1.16413.96871 0 2.39755.35166 5.6185.35166 3.66897 0 4.55292-.35166 5.89699-.35166.89606 0 1.78.44868 1.78 1.16413 0 .88523-.52068 1.16413-2.84557 1.3339-2.0585.1819-3.48734 1.44304-3.48734 4.48676v33.1899c0 12.34465-5.99387 17.61963-15.54773 17.61963-9.29958 0-17.69099-2.41315-17.69099-13.145v-38.56188c0-2.24338-.36326-3.40751-1.61047-3.58941-3.12408-.44867-3.39047-.80034-3.39047-1.51579 0-.53356.44802-.98224 1.24721-.98224 1.69523 0 3.48734.35166 8.30665.35166 5.6306 0 8.66991-.35166 9.29957-.35166 1.06558 0 1.51361.44868 1.51361.98224 0 .89735-.53279.98223-3.30571 1.51579-2.24013.3638-3.30571 1.26115-3.30571 4.12297v35.96684c0 8.05191 4.02013 12.17488 11.17644 12.17488 5.88489 0 10.80107-4.30486 10.80107-13.60579"/><path d="m562.99291 238.82051c-1.5136-2.86182-1.69524-3.75917-3.47523-4.12297-1.61048-.35166-2.42177-.35166-2.42177-1.3339 0-.71545.44803-1.16413 1.34408-1.16413 1.61048 0 3.75374.35166 7.77387.35166 5.98175 0 7.76175-.35166 9.11794-.35166.70231 0 1.24721.35166 1.24721.89735 0 .89735-.36327 1.34603-3.12408 1.60068-.99292.097-1.87687.63058-1.87687 1.62494 0 1.24902.71442 2.41315 7.677 16.37061 6.26026-12.70845 7.59223-14.32125 7.59223-15.84918 0-1.41878-1.33197-2.14637-3.75374-2.14637-.79918 0-1.77999-.25465-1.77999-1.16413 0-1.152.98081-1.3339 1.87686-1.3339.89606 0 2.94245.35166 7.14421.35166 2.85768 0 4.38339-.35166 5.71536-.35166 1.34408 0 1.79211.35166 1.79211 1.16413 0 .71546-.18163 1.24902-1.34408 1.3339-3.8385.27891-5.53373 1.79471-7.04734 4.75354l-8.66991 16.55251 7.22897 14.7578c6.87781 14.04235 7.1442 14.67292 9.2027 15.65516 1.25932.63057 1.97374.81246 1.97374 1.43091 0 .63057-.18163 1.07925-1.42884 1.07925-1.62259 0-4.56503-.3638-6.79305-.3638-6.79305 0-8.31876.3638-9.11795.3638-1.06557 0-1.42884-.3638-1.42884-.98224 0-1.07925 1.34408-1.07925 2.67605-1.52792 1.42884-.44868 2.3249-1.06713 2.3249-2.04936 0-.89735-1.16245-2.95884-6.51455-14.32125-2.0585-4.47464-2.50653-5.09308-2.68816-5.09308-.44802 0-.79918 1.16413-4.38339 7.78513-3.65687 6.79077-4.45605 9.03415-4.45605 10.46507 0 1.60068.98082 2.67993 3.5721 3.21349 1.69524.36379 2.40966.54568 2.40966 1.34602 0 .89736-.53279 1.16414-1.16245 1.16414-1.34408 0-2.85768-.3638-7.22896-.3638-4.64979 0-6.26026.3638-7.24108.3638-1.52571 0-1.7921-.26678-1.7921-1.16414 0-1.16413.62965-1.16413 2.32489-1.51579 2.94244-.71546 3.12408-.99437 6.16339-6.35423l10.28039-18.16531z"/><path d="m229.55228 141.39719c0-3.11648-1.65891-4.25636-3.32993-4.57164-1.54993-.31529-3.31782-.61845-3.31782-1.86747 0-1.152.93238-1.45516 2.70027-1.45516 2.17959 0 5.40054.4123 11.9393.4123 4.2502 0 10.47413-.4123 17.10977-.4123 11.21276 0 19.50731 5.40836 19.50731 16.30998 0 16.3221-18.46596 14.86694-18.46596 16.00682 0 .52143.83551.61844 1.97374.61844 5.29156 0 7.88285.94586 9.85658 5.9298l7.2653 18.28658c3.00298 7.48197 6.84148 4.15935 6.84148 7.16669 0 1.152-.93238 1.5643-1.86476 1.5643h-14.0099c-4.45605 0-4.77088-.4123-6.42979-4.88693l-7.36216-20.05703c-1.35619-3.73492-2.49442-6.02681-5.50952-6.02681-.72653 0-.93238.42442-.93238.83672v19.42646c0 3.22562.10898 5.72365 2.6034 6.75439 1.96163.83672 3.72952.52144 3.72952 2.49804 0 1.13988-1.04136 1.45516-2.79714 1.45516-1.76789 0-4.98884-.4123-11.51549-.4123-6.53876 0-9.75971.4123-11.9393.4123-1.34408 0-2.28857-.31528-2.28857-1.45516 0-1.86747 1.24721-2.18275 2.90612-2.49804 1.67102-.31528 3.32993-.82459 3.32993-3.94107zm15.97153 22.55506c0 .30316.52068.52144.93238.52144 7.2653 0 11.73345-5.82066 11.73345-14.04235 0-7.2637-3.8385-13.60579-9.44488-13.60579-2.07061 0-3.22095.83672-3.22095 4.77779z"/><path d="m174.16653 191.44275c0 3.58941-11.04325 8.43996-20.51235 8.43996-17.25507 0-29.2428-15.59452-29.2428-32.87461 0-22.11851 13.46501-36.43976 31.24076-36.43976 4.31074 0 8.63359.83672 12.20569 1.89171 2.10693.73971 3.68108 1.37028 3.88693 3.68642.21796 3.15286.31483 7.2637.31483 12.74482 0 2.10999-.94449 2.94671-2.09483 2.94671-6.10284 0-4.9525-17.91066-15.36609-17.91066-5.57006 0-12.52052 8.42784-12.52052 30.55848 0 20.43294 5.15836 32.01363 12.73848 32.01363 2.40965 0 3.77795-2.72843 3.77795-7.2637v-15.27923c0-5.68727-6.41768-2.52229-6.41768-5.26285 0-1.46729.84762-1.89172 2.7366-1.89172 3.58421 0 8.20978.42443 11.99984.42443 3.14829 0 7.45904-.42443 10.30461-.42443 1.88897 0 2.31278.52144 2.31278 1.57643 0 2.52229-5.3642.31529-5.3642 6.42698z"/></g></g></g></svg>