<svg xmlns="http://www.w3.org/2000/svg" xmlns:xlink="http://www.w3.org/1999/xlink" version="1.1" width="500pt" height="500pt" viewBox="0 0 500 500">
<defs>
<clipPath id="clip_0">
<path transform="matrix(1,0,0,-1,0,500)" d="M0 500H500V0H0Z"/>
</clipPath>
</defs>
<g id="layer_1" data-name="Layer 1">
<g clip-path="url(#clip_0)">
<path transform="matrix(1,0,0,-1,113.2925,220.19379)" d="M0 0C0-84.412 .103-137.667 .266-139.095 .408-140.36 .653-142.686 .837-144.257 1-145.828 1.429-148.889 1.796-151.072 2.143-153.235 2.551-155.5 2.693-156.091 2.836-156.704 3.224-158.295 3.55-159.642 3.856-160.988 4.245-162.458 4.367-162.906 4.51-163.355 5.081-165.252 5.673-167.11 6.265-168.987 7.346-172.047 8.081-173.924 8.835-175.781 9.835-178.168 10.304-179.23 10.794-180.271 11.712-182.167 12.344-183.433 12.978-184.718 13.896-186.392 14.365-187.187 14.834-187.962 15.201-188.676 15.201-188.739 15.201-188.82 16.018-190.207 17.017-191.798 18.017-193.411 19.874-196.207 21.159-198.001 22.424-199.797 24.138-202.124 24.975-203.164 25.791-204.205 27.342-206.102 28.403-207.387 29.464-208.653 31.28-210.734 32.463-211.999 33.626-213.285 35.769-215.488 37.176-216.896 38.605-218.324 40.686-220.365 41.808-221.405 42.931-222.466 45.318-224.608 47.134-226.18 48.929-227.731 52.173-230.362 54.316-232.036 56.479-233.708 60.498-236.585 63.253-238.462 66.028-240.32 70.109-242.952 72.353-244.298 74.598-245.645 77.413-247.277 78.597-247.911 79.8-248.563 81.76-249.624 82.942-250.297 84.147-250.95 87.187-252.501 89.737-253.766 92.267-255.01 96.185-256.847 98.43-257.847 100.674-258.826 102.857-259.805 103.306-260.009 103.755-260.213 105.653-260.989 107.53-261.744 109.387-262.499 112.203-263.6 113.773-264.192 115.324-264.805 119.181-266.13 122.323-267.192 125.444-268.233 129.484-269.477 131.28-269.947 133.076-270.416 134.81-270.926 135.136-271.069 135.483-271.191 136.177-271.313 136.708-271.313 137.238-271.313 137.932-271.191 138.279-271.069 138.605-270.926 140.339-270.416 142.135-269.947 143.93-269.477 147.971-268.233 151.092-267.192 154.235-266.13 158.091-264.805 159.642-264.192 161.213-263.6 164.029-262.499 165.885-261.744 167.762-260.989 169.661-260.213 170.109-260.009 170.558-259.805 172.741-258.826 174.986-257.847 177.23-256.847 181.147-255.01 183.677-253.766 186.228-252.501 189.268-250.95 190.472-250.297 191.656-249.624 193.615-248.563 194.818-247.911 196.001-247.277 198.818-245.645 201.062-244.298 203.307-242.952 207.387-240.32 210.163-238.462 212.917-236.585 216.937-233.708 219.099-232.036 221.242-230.362 224.486-227.731 226.282-226.18 228.097-224.608 230.485-222.466 231.607-221.405 232.729-220.365 234.81-218.324 236.239-216.896 237.647-215.488 239.79-213.285 240.952-211.999 242.135-210.734 243.952-208.653 245.012-207.387 246.074-206.102 247.625-204.205 248.44-203.164 249.277-202.124 250.991-199.797 252.256-198.001 253.542-196.207 255.399-193.411 256.398-191.798 257.398-190.207 258.214-188.82 258.214-188.739 258.214-188.676 258.581-187.962 259.05-187.187 259.52-186.392 260.438-184.718 261.071-183.433 261.703-182.167 262.621-180.271 263.111-179.23 263.581-178.168 264.581-175.781 265.335-173.924 266.07-172.047 267.151-168.987 267.743-167.11 268.334-165.252 268.906-163.355 269.048-162.906 269.171-162.458 269.558-160.988 269.865-159.642 270.192-158.295 270.579-156.704 270.721-156.091 270.865-155.5 271.273-153.235 271.62-151.072 271.987-148.889 272.416-145.828 272.579-144.257 272.762-142.686 273.007-140.36 273.149-139.095 273.313-137.667 273.415-84.412 273.415 0V136.769H0Z" fill="#fddb00"/>
<path transform="matrix(1,0,0,-1,335.3906,123.41751)" d="M0 0V-23.669C.939-23.893 2.144-23.934 3.265-23.893L5.285-23.812 5.571-2.591 10.448-2.306C12.019 1.694 12.446 2.897 12.427 2.938 12.386 2.979 10.836 3.041 8.958 3.061L5.571 3.122 5.428 17.956H11.142C12.61 21.853 13.039 23.138 13.039 23.322 13.039 23.587 11.549 23.669 6.509 23.669H0ZM-33.055-.061-32.993-23.812C-21.995-23.812-21.812-23.791-20.362-23.098-19.546-22.71-18.465-21.975-17.955-21.465-17.444-20.955-16.71-19.874-16.322-19.037L-15.608-17.547C-15.486 14.242-15.527 16.364-15.915 17.69-16.159 18.507-16.71 19.69-17.139 20.343-17.567 20.975-18.444 21.832-19.077 22.261-19.709 22.689-20.648 23.179-21.179 23.363-21.791 23.567-24.117 23.669-27.627 23.669H-33.136ZM-50.907 23.322C-50.969 23.138-51.214 21.465-51.438 19.588-51.663 17.71-52.152 13.609-52.54 10.467-52.907 7.325-53.417 3.224-53.642 1.367-53.866-.51-54.295-4-54.58-6.387-54.866-8.794-55.355-12.896-55.661-15.507-55.968-18.119-56.335-20.996-56.457-21.894-56.58-22.792-56.642-23.628-56.58-23.73-56.52-23.853-55.396-23.954-54.091-23.954-52.479-23.954-51.622-23.853-51.417-23.607-51.254-23.424-51.051-22.281-50.948-21.077-50.846-19.894-50.663-17.69-50.499-16.18-50.356-14.691-50.173-12.998-50.092-12.446L-49.948-11.426-43.582-11.569C-43.032-16.833-42.726-19.588-42.542-21.077L-42.215-23.812C-38.217-23.914-36.972-23.853-36.849-23.73-36.727-23.628-37.012-20.526-37.461-16.875-37.91-13.201-38.828-5.611-39.502 0-40.195 5.611-41.114 13.141-41.563 16.731-41.991 20.322-42.358 23.363-42.358 23.464-42.358 23.587-44.256 23.669-46.562 23.669-49.704 23.669-50.826 23.587-50.907 23.322M-77.229 23.506C-77.372 23.383-77.453 13.181-77.433-.184L-77.372-23.669C-76.434-23.914-73.72-23.934-70.72-23.893-65.496-23.812-65.252-23.771-63.803-23.077-62.986-22.689-61.885-21.894-61.375-21.322-60.864-20.73-60.191-19.71-59.885-19.037-59.375-17.935-59.314-17.221-59.232-11.426-59.15-5.407-59.191-4.937-59.742-3.408-60.171-2.224-60.701-1.428-61.66-.551L-62.967 .673C-61.294 2.367-60.538 3.468-60.211 4.224-59.641 5.489-59.601 5.958-59.601 11.284-59.62 16.486-59.661 17.14-60.191 18.507-60.518 19.323-61.313 20.547-61.946 21.22-62.599 21.894-63.619 22.689-64.211 22.996-65.17 23.464-65.966 23.546-71.148 23.607-74.352 23.669-77.106 23.607-77.229 23.506M-95.144 23.322C-95.205 23.138-95.388 21.71-95.572 20.139-95.735 18.568-96.062 15.875-96.266 14.14-96.47 12.426-97.082 7.407-97.612 3-98.143-1.428-98.755-6.57-98.98-8.427-99.204-10.304-99.632-13.793-99.918-16.18-100.224-18.588-100.49-21.281-100.53-22.179L-100.591-23.812C-97.429-23.934-96.286-23.914-95.98-23.832-95.49-23.709-95.388-23.322-95.083-20.343-94.899-18.507-94.593-15.752-94.409-14.222L-94.083-11.426H-87.839C-87.329-15.528-87.023-18.302-86.818-20.22-86.513-23.322-86.411-23.709-85.942-23.832-85.636-23.914-84.411-23.934-83.228-23.893L-81.044-23.812C-81.146-21.057-81.616-16.772-82.146-12.507-82.677-8.244-83.391-2.306-83.758 .673-84.125 3.673-84.737 8.692-85.125 11.834-85.493 14.977-85.942 18.588-86.084 19.854-86.227 21.139-86.411 22.506-86.472 22.914L-86.615 23.669C-93.96 23.669-95.062 23.587-95.144 23.322M-121.302-.061-121.241-23.812-116.201-23.934-116.078-4.754-112.671-4.631C-112.303-6.203-112.059-7.345-111.875-8.162-111.711-8.978-110.875-12.834-110.018-16.731L-108.467-23.812C-104.162-23.914-103.407-23.853-103.285-23.607-103.203-23.404-103.326-22.465-103.55-21.485-103.774-20.526-104.203-18.69-104.489-17.405-104.795-16.14-105.611-12.507-106.346-9.345L-107.651-3.591C-105.876-1.856-105.019-.653-104.591 .204L-103.856 1.775V17.282C-104.938 19.588-105.611 20.669-106.06 21.179-106.488 21.669-107.569 22.444-108.467 22.893L-110.1 23.689-121.363 23.669ZM-139.216-.061-139.155-23.812C-128.749-23.954-127.402-23.893-127.178-23.607-127.015-23.424-126.484-22.241-126.015-21.017-125.546-19.792-125.158-18.649-125.158-18.507-125.158-18.323-126.811-18.201-129.443-18.16L-133.728-18.099-133.851-2.448-127.791-2.306C-126.382 1.265-125.975 2.489-125.975 2.714-125.975 3.061-126.586 3.122-129.851 3.122H-133.728L-133.851 17.956C-128.382 17.935-127.382 18.037-127.178 18.282-127.015 18.486-126.484 19.649-126.015 20.874-125.546 22.118-125.158 23.24-125.158 23.404-125.158 23.567-127.708 23.669-132.238 23.669H-139.298ZM-162.579-.061-162.498-23.812C-151.929-23.791-151.255-23.73-150.153-23.24-149.48-22.935-148.398-22.2-147.745-21.608-147.092-21.017-146.256-19.874-145.848-19.037L-145.134-17.547V17.282C-146.113 19.384-146.766 20.465-147.255 21.037-147.745 21.628-148.827 22.444-149.745 22.893L-151.377 23.689-162.641 23.669ZM-184.779 22.914C-184.677 22.506-184.044 19.915-183.371 17.14-182.718 14.365-181.943 11.12-181.677 9.937-181.392 8.733-180.413 4.57-179.494 .673L-177.821-6.387C-177.841-19.67-177.76-23.628-177.638-23.75-177.535-23.853-176.393-23.914-175.127-23.873L-172.822-23.812-172.516-4.489C-171.169 .775-170.415 3.836-169.965 5.713-169.537 7.59-168.864 10.406-168.496 11.978-168.129 13.548-167.395 16.67-166.864 18.915-166.334 21.159-165.905 23.138-165.905 23.322-165.905 23.587-166.558 23.649-168.538 23.607L-171.169 23.526C-173.679 10.998-174.414 6.57-174.536 4.897-174.699 2.469-174.781 2.041-175.189 1.979-175.597 1.918-175.679 2.142-175.679 3.734-175.679 4.897-176.311 8.896-177.433 14.548-178.413 19.486-179.208 23.567-179.208 23.607-179.208 23.649-180.494 23.669-182.085 23.669H-184.983ZM-205.734-.061-205.673-23.812H-200.51L-200.245-2.591C-195.083-2.489-193.553-2.489-193.532-2.51-193.492-2.55-193.41-7.366-193.328-13.201L-193.186-23.812H-188.289L-188.166 23.669H-193.308C-193.287 5.835-193.369 3.591-193.655 3.326-193.9 3.102-194.919 3.02-197.123 3.061L-200.245 3.122-200.388 23.669H-205.815ZM23.486 24.24C23.037 24.138 22.077 23.709 21.363 23.301 20.649 22.893 19.649 21.975 19.14 21.261 18.649 20.567 18.018 19.384 17.732 18.629 17.283 17.384 17.242 15.895 17.16 .816 17.1-10.896 17.16-16.12 17.386-17.282 17.568-18.18 17.977-19.465 18.323-20.139 18.67-20.812 19.446-21.812 20.058-22.383 20.67-22.935 21.507-23.567 21.935-23.771 22.343-23.975 23.343-24.301 24.159-24.485 25.017-24.668 26.24-24.75 27.016-24.648 27.771-24.566 29.158-24.077 30.138-23.607 31.28-23.016 32.157-22.343 32.668-21.628 33.096-21.037 33.708-19.996 34.035-19.323 34.565-18.18 34.606-17.568 34.688-10.671 34.729-4.897 34.688-3.265 34.422-3.265 34.238-3.265 33.157-3.632 32.035-4.102 30.913-4.55 29.852-5.081 29.647-5.244 29.382-5.489 29.301-6.896 29.321-11.018 29.321-15.997 29.28-16.527 28.771-17.343 28.485-17.833 27.812-18.404 27.28-18.628 26.751-18.874 25.954-18.976 25.465-18.894 24.976-18.833 24.2-18.425 23.751-17.996 23.302-17.568 22.854-16.813 22.73-16.303 22.629-15.792 22.526-8.365 22.526 .204 22.526 12.732 22.608 15.956 22.914 16.67 23.118 17.14 23.506 17.772 23.792 18.037 24.077 18.282 24.853 18.588 25.526 18.67 26.403 18.792 26.975 18.71 27.566 18.404 28.016 18.16 28.587 17.588 28.852 17.14 29.261 16.446 29.321 15.588 29.321 11.223 29.321 8.427 29.382 6.04 29.444 5.917 29.525 5.815 30.729 6.183 32.117 6.754L34.626 7.794C34.626 17.813 34.606 17.833 33.81 19.567 33.3 20.649 32.525 21.73 31.749 22.424 31.015 23.077 29.913 23.73 29.035 24.016 28.198 24.281 26.852 24.485 25.934 24.464 25.036 24.444 23.935 24.342 23.486 24.24" fill="#231f20"/>
<path transform="matrix(1,0,0,-1,263.5898,126.21289)" d="M0 0C-.041-.184-.082-3.713-.062-7.814L-.021-15.303C4.591-15.303 5.101-15.201 5.733-14.731 6.161-14.405 6.692-13.793 6.916-13.365 7.223-12.752 7.324-11.467 7.324-7.407 7.324-2.714 7.264-2.163 6.773-1.367 6.468-.877 5.896-.306 5.487-.061 4.978 .204 3.999 .347 2.428 .347 .795 .347 .081 .245 0 0M-19.792 17.14C-19.874 15.467-20.078 12.916-20.241 11.508-20.425 10.08-20.812 6.244-21.139 2.979-21.466-.286-21.669-3.02-21.609-3.081-21.527-3.142-20.404-3.203-19.079-3.203-17.772-3.203-16.67-3.102-16.609-2.979-16.549-2.876-16.609-1.918-16.732-.877-16.875 .163-17.344 4.631-17.793 9.059-18.242 13.467-18.609 17.792-18.609 18.649-18.609 19.976-18.691 20.2-19.119 20.2-19.568 20.2-19.629 19.894-19.792 17.14M24.525 20.139C24.28 19.915 24.199 19.078 24.239 17.507 24.26 16.222 23.913 11.631 23.484 7.284 23.036 2.938 22.607-1.184 22.525-1.898L22.383-3.183C27.239-3.183 27.545-3.142 27.545-2.714 27.545-2.448 27.239 .694 26.872 4.285 26.504 7.876 26.076 11.978 25.933 13.406 25.77 14.834 25.646 16.935 25.627 18.078 25.627 19.588 25.525 20.18 25.239 20.302 25.036 20.364 24.709 20.302 24.525 20.139M44.174 2.734 44.235-15.303C46.766-15.426 47.949-15.344 48.521-15.181 49.173-14.997 49.806-14.528 50.275-13.895L51.03-12.896C51.03 16.915 50.989 18.241 50.561 19.058 50.296 19.527 49.704 20.119 49.275 20.343 48.745 20.608 47.663 20.751 46.276 20.751H44.113ZM-.082 13.344-.021 5.917C3.387 5.815 4.183 5.917 4.896 6.264 5.447 6.529 6.08 7.04 6.324 7.427 6.692 7.978 6.794 9.019 6.876 12.854 6.957 17.078 6.916 17.751 6.468 18.69 6.182 19.282 5.59 19.996 5.141 20.262 4.529 20.628 3.774 20.751 2.081 20.751H-.164ZM-44.277 20.567C-44.399 20.465-44.481 16.792-44.461 12.406-44.42 8.019-44.339 4.244-44.277 4.02-44.176 3.713-43.686 3.612-42.237 3.612-40.992 3.612-39.993 3.775-39.34 4.081-38.789 4.346-38.115 4.937-37.83 5.386-37.401 6.101-37.34 6.897-37.34 12.12-37.34 16.833-37.421 18.201-37.748 18.854-37.973 19.302-38.503 19.915-38.911 20.221-39.523 20.669-40.054 20.771-41.849 20.751-43.053 20.751-44.155 20.669-44.277 20.567M-85.331 2.734-85.27-15.303C-81.964-15.426-81.208-15.323-80.536-14.957-80.005-14.691-79.332-14.059-79.026-13.528-78.495-12.61-78.475-12.079-78.394 1.021-78.352 8.509-78.394 15.548-78.495 16.67-78.658 18.527-78.76 18.792-79.658 19.71L-80.658 20.73-85.412 20.751Z" fill="#fddb00"/>
<path transform="matrix(1,0,0,-1,302.6836,202.21829)" d="M0 0C-.143-.102-.225-56.049-.184-124.342-.163-206.876-.061-248.481 .123-248.481 .286-248.481 1.47-247.828 2.774-247.032 4.08-246.237 5.877-245.114 6.774-244.542 7.672-243.971 9.875-242.523 11.671-241.319 13.467-240.115 16.323-238.095 18.037-236.81 19.771-235.524 22.322-233.504 23.75-232.321 25.157-231.117 27.484-229.117 28.913-227.852 30.32-226.567 33.259-223.751 35.422-221.568 37.584-219.385 40.625-216.14 42.175-214.345 43.706-212.549 46.031-209.672 47.317-207.938 48.603-206.224 50.766-203.102 52.111-201 53.438-198.918 55.54-195.247 56.743-192.839 57.947-190.452 59.376-187.453 59.927-186.187 60.458-184.902 61.519-182.025 62.273-179.78 63.028-177.536 64.008-174.231 64.456-172.435 64.905-170.639 65.496-167.824 65.803-166.191 66.089-164.539 66.517-161.723 66.742-159.927 66.986-158.132 67.293-154.582 67.456-152.031 67.68-148.786 67.742-125.649 67.68-73.679L67.599 .041C15.385 .143 .123 .103 0 0M-86.493-65.191V-130.545C-85.534-131.158-84.167-131.953-82.82-132.749-81.474-133.524-78.719-135.095-76.72-136.258-74.699-137.421-72.68-138.584-72.231-138.849-71.782-139.115-70.19-140.034-68.701-140.89-67.211-141.747-65.62-142.665-65.171-142.93-64.722-143.175-63.13-144.093-61.641-144.951-60.151-145.828-58.56-146.746-58.111-146.991-57.662-147.255-56.071-148.174-54.582-149.032-53.092-149.909-51.5-150.827-51.051-151.092-50.603-151.358-49.194-152.153-47.93-152.868-46.664-153.582-45.113-154.52-44.461-154.949L-43.318-155.704V-244.666C-48.48-246.522-50.581-247.257-51.316-247.501-52.684-247.929-52.684-247.929-55.397-247.012-56.887-246.501-59.008-245.767-60.09-245.379L-62.049-244.666-62.192-167.844C-69.965-163.293-73.271-161.396-74.536-160.662-75.801-159.927-77.271-159.09-77.801-158.785-78.311-158.479-79.964-157.519-81.474-156.642-82.963-155.786-84.698-154.805-85.33-154.439L-86.493-153.805V-258.275C-84.901-259.071-82.677-260.071-80.515-260.989-78.352-261.927-74.862-263.356-72.781-264.171-70.68-264.988-68.109-265.967-67.068-266.355-66.028-266.722-63.212-267.681-60.825-268.477-58.438-269.252-55.622-270.129-54.582-270.395-52.765-270.865-52.602-270.884-50.929-270.416-49.949-270.17-47.746-269.518-46.031-268.987-44.318-268.436-41.563-267.518-39.931-266.926-38.278-266.334-35.095-265.13-32.871-264.274-30.627-263.396-27.015-261.927-24.853-260.989-22.689-260.071-20.466-259.071-19.894-258.785L-18.873-258.275V.184H-43.318C-43.318-100.613-43.399-129.913-43.522-129.995-43.624-130.055-44.155-129.852-44.665-129.525-45.195-129.219-46.726-128.322-48.072-127.545-49.419-126.771-52.153-125.178-54.173-124.015-56.193-122.853-58.784-121.364-59.947-120.71L-62.049-119.527V.184H-86.493ZM-172.966 0C-173.088-.102-173.169-33.626-173.149-74.474-173.108-120.894-172.986-150.195-172.823-152.582-172.68-154.683-172.435-157.499-172.272-158.845-172.108-160.192-171.68-163.07-171.313-165.232-170.945-167.395-170.272-170.639-169.824-172.435-169.375-174.231-168.395-177.536-167.64-179.78-166.885-182.025-165.702-185.147-165.048-186.717-164.375-188.289-162.947-191.288-161.866-193.39-160.785-195.491-159.009-198.613-157.907-200.328-156.826-202.042-155.193-204.49-154.275-205.775-153.378-207.04-151.766-209.163-150.705-210.489-149.664-211.794-148.705-212.774-148.603-212.651-148.481-212.529-148.419-186.024-148.46-153.745-148.521-106.938-148.46-95.042-148.195-95.042-148.012-95.042-147.093-95.491-146.154-96.022-145.216-96.572-144.094-97.225-143.645-97.491-143.196-97.755-141.666-98.633-140.237-99.45-138.83-100.265-135.953-101.939-133.871-103.142L-130.055-105.326-129.934-231.607C-127.934-233.341-125.771-235.035-123.812-236.483-121.874-237.953-118.833-240.115-117.038-241.319-115.243-242.543-113.039-243.971-112.141-244.542-111.243-245.114-109.448-246.237-108.142-247.032-106.836-247.828-105.652-248.481-105.489-248.481-105.306-248.481-105.244-206.917-105.286-124.22L-105.367 .041H-129.791C-129.892-62.049-129.954-80.085-129.995-80.085-130.035-80.085-133.055-78.352-136.708-76.229-140.38-74.108-144.461-71.761-145.788-70.986-147.114-70.231-148.236-69.516-148.297-69.394-148.358-69.292-148.419-53.622-148.46-34.585L-148.521 .041C-167.293 .143-172.843 .103-172.966 0M11.794 39.421C11.794 39.298 11.386 38.687 10.875 38.054 10.365 37.421 8.386 35.646 6.468 34.136 4.551 32.626 2.204 30.627 1.265 29.729 .306 28.811-.796 27.566-1.224 26.975-1.652 26.383-2.244 25.118-2.551 24.179-2.897 23.18-3.143 21.792-3.143 20.792-3.143 19.854-2.897 18.201-2.592 17.12-2.285 16.018-1.734 14.528-1.367 13.773L-.694 12.426H25.097C26.097 14.63 26.606 15.895 26.852 16.629 27.117 17.384 27.403 18.854 27.484 19.894 27.586 21.098 27.504 22.302 27.28 23.159 27.076 23.914 26.647 25.077 26.321 25.75 25.994 26.423 24.994 27.75 24.117 28.709 23.24 29.667 20.812 31.831 18.731 33.483 16.629 35.156 14.303 37.237 13.568 38.074 12.813 38.931 12.12 39.625 11.998 39.625 11.896 39.625 11.794 39.543 11.794 39.421M-31.749 38.952C-31.994 38.564-32.892 37.584-33.749 36.748-34.605 35.932-36.462 34.361-37.87 33.279-39.278 32.219-41.298 30.464-42.359 29.423-43.686 28.117-44.583 26.913-45.236 25.628-46.072 23.935-46.174 23.444-46.256 21.139-46.337 18.813-46.256 18.282-45.501 16.099-45.032 14.752-44.48 13.365-44.256 13.038L-43.869 12.426C-24.179 12.426-18.344 12.508-18.2 12.63-18.037 12.732-17.589 13.569-17.18 14.467-16.772 15.365-16.263 17.017-16.018 18.14-15.711 19.527-15.629 20.69-15.752 21.812-15.854 22.71-16.14 23.935-16.364 24.526-16.609 25.118-17.263 26.281-17.812 27.117-18.363 27.934-19.344 29.096-19.996 29.709-20.649 30.3-22.71 32.035-24.587 33.544-26.443 35.034-28.687 37.034-29.545 37.952-30.402 38.87-31.157 39.625-31.197 39.625-31.259 39.625-31.504 39.319-31.749 38.952M-75.903 37.931C-76.72 37.013-78.923 35.034-80.78 33.544-82.657 32.035-84.718 30.3-85.371 29.709-86.024 29.096-87.023 27.934-87.574 27.117-88.125 26.281-88.819 24.995-89.084 24.261-89.39 23.363-89.553 22.159-89.553 20.71-89.553 19.119-89.35 17.956-88.84 16.365-88.452 15.16-87.88 13.793-87.574 13.304L-87.023 12.426H-61.498C-60.682 13.793-60.111 15.16-59.723 16.365-59.111 18.221-59.029 18.915-59.111 21.139-59.192 23.383-59.315 23.955-60.049 25.485-60.56 26.525-61.621 27.975-62.641 29.035-63.579 30.015-65.823 31.994-67.62 33.422-69.415 34.83-71.414 36.544-72.067 37.197-72.72 37.87-73.414 38.666-73.618 39.013-73.822 39.36-74.087 39.625-74.209 39.604-74.312 39.604-75.067 38.85-75.903 37.931M-118.935 38.074C-119.67 37.217-121.996 35.156-124.098 33.483-126.179 31.811-128.505 29.79-129.26 28.974-130.015 28.178-130.974 26.975-131.361 26.301-131.77 25.628-132.28 24.403-132.504 23.567-132.729 22.751-132.913 21.465-132.913 20.71-132.892 19.976-132.729 18.69-132.545 17.854-132.341 17.038-131.831 15.507-131.382 14.467L-130.586 12.549H-104.592C-103.836 14.038-103.347 15.201-103.02 16.099-102.653 17.078-102.388 18.629-102.306 20.037-102.225 21.465-102.306 22.812-102.531 23.567-102.714 24.241-103.102 25.22-103.388 25.75-103.694 26.281-104.204 27.077-104.53 27.525-104.877 27.975-105.876 29.015-106.754 29.872-107.631 30.708-109.876 32.626-111.733 34.116-113.61 35.605-115.589 37.36-116.14 38.013-116.712 38.687-117.161 39.298-117.161 39.421-117.161 39.543-117.262 39.625-117.365 39.625-117.487 39.625-118.18 38.931-118.935 38.074" fill="#231f20"/>
<path transform="matrix(1,0,0,-1,327.1885,313.37989)" d="M0 0C-.041-49.867-.02-90.757 .062-90.879 .123-90.981 1.164-89.899 2.367-88.451 3.551-87.023 5.244-84.84 6.121-83.615 6.999-82.412 8.386-80.311 9.223-78.964 10.06-77.616 11.631-74.679 12.712-72.435 13.793-70.189 15.12-67.067 15.63-65.497 16.16-63.926 16.793-61.845 17.038-60.864 17.282-59.906 17.67-58.191 17.915-57.07 18.303-55.233 18.363-47.419 18.507 17.486 18.589 57.355 18.629 90.125 18.589 90.329 18.526 90.595 16.467 90.656 9.284 90.656H.062Z" fill="#fddb00"/>
<path transform="matrix(1,0,0,-1,246.4678,9.942902)" d="M0 0C2.627-6.231 4.595-12.754 6.46-19.252 12.945-19.62 19.442-19.239 25.94-19.493 23.567-22.653 19.785-24.24 16.866-26.803 14.785-28.313 12.704-29.824 10.584-31.283 10.851-32.273 11.396-34.266 11.663-35.255 12.12-36.537 12.603-37.819 13.098-39.088 13.25-39.786 13.541-41.195 13.693-41.893 14.861-44.773 16.017-47.718 16.244-50.853 11.625-47.134 6.663-43.898 2.018-40.243 .774-39.177-1.041-39.52-2.17-40.547-6.637-44.19-11.713-47.033-15.901-51.03-15.927-47.794-14.645-44.786-13.427-41.842-13.274-41.144-12.982-39.748-12.843-39.063-12.335-37.781-11.853-36.512-11.384-35.23-11.117-34.253-10.571-32.286-10.305-31.309-15.343-27.298-21.333-24.265-25.636-19.455-19.468-19.341-13.3-19.404-7.12-19.48-6.777-19.062-6.066-18.211-5.711-17.792-4.01-11.802-1.865-5.939 0 0" fill="#ffffff"/>
<path transform="matrix(1,0,0,-1,246.4678,9.942902)" stroke-width="1" stroke-linecap="butt" stroke-miterlimit="10" stroke-linejoin="miter" fill="none" stroke="#000000" d="M0 0C2.627-6.231 4.595-12.754 6.46-19.252 12.945-19.62 19.442-19.239 25.94-19.493 23.567-22.653 19.785-24.24 16.866-26.803 14.785-28.313 12.704-29.824 10.584-31.283 10.851-32.273 11.396-34.266 11.663-35.255 12.12-36.537 12.603-37.819 13.098-39.088 13.25-39.786 13.541-41.195 13.693-41.893 14.861-44.773 16.017-47.718 16.244-50.853 11.625-47.134 6.663-43.898 2.018-40.243 .774-39.177-1.041-39.52-2.17-40.547-6.637-44.19-11.713-47.033-15.901-51.03-15.927-47.794-14.645-44.786-13.427-41.842-13.274-41.144-12.982-39.748-12.843-39.063-12.335-37.781-11.853-36.512-11.384-35.23-11.117-34.253-10.571-32.286-10.305-31.309-15.343-27.298-21.333-24.265-25.636-19.455-19.468-19.341-13.3-19.404-7.12-19.48-6.777-19.062-6.066-18.211-5.711-17.792-4.01-11.802-1.865-5.939 0 0Z"/>
</g>
</g>
</svg>
