<svg xmlns="http://www.w3.org/2000/svg" viewBox="0 0 153 200" width="153" height="200">
	<style>
		tspan { white-space:pre }
		.shp0 { fill: #f8ec4a } 
		.shp1 { fill: #2e3192 } 
		.shp2 { fill: none;stroke: #2e3192;stroke-width: 0.072 } 
		.shp3 { fill: #013ca6 } 
		.shp4 { fill: none;stroke: #013ca6;stroke-width: 0.072 } 
		.shp5 { fill: #ffffff } 
	</style>
	<g >
		<g >
			<path fill-rule="evenodd" class="shp0" d="M0.16 115.94L0.16 0.01L76.5 0.01C76.5 66.67 76.5 133.33 76.5 199.98C31.58 184.51 1.47 147.94 0.16 115.94Z" />
			<path fill-rule="evenodd" class="shp0" d="M152.85 115.94L152.85 0.01L76.5 0.01C76.5 66.67 76.5 133.33 76.5 199.98C121.43 184.51 151.54 147.94 152.85 115.94Z" />
			<path fill-rule="evenodd" class="shp1" d="M4.77 115.18L4.77 4.75L76.5 4.75C76.5 68.25 76.5 131.75 76.5 195.24C33.71 180.5 6.02 145.67 4.77 115.18Z" />
			<path class="shp2" d="M4.77 115.18L4.77 4.75L76.5 4.75C76.5 68.25 76.5 131.75 76.5 195.24C33.71 180.5 6.02 145.67 4.77 115.18Z" />
			<path fill-rule="evenodd" class="shp3" d="M148.24 115.18L148.24 4.75L76.5 4.75C76.5 68.25 76.5 131.75 76.5 195.24C119.3 180.5 146.99 145.67 148.24 115.18Z" />
			<path class="shp4" d="M148.24 115.18L148.24 4.75L76.5 4.75C76.5 68.25 76.5 131.75 76.5 195.24C119.3 180.5 146.99 145.67 148.24 115.18Z" />
			<path fill-rule="evenodd" class="shp0" d="M9.12 28.37L17.3 28.43C19.34 28.45 21.2 29.01 22.56 30.13C23.92 31.26 24.46 32.72 24.6 34.51C24.82 37.26 23.77 40.47 21.43 41.15C22.73 42.02 25.12 42.82 24.85 48.33C24.74 50.78 23.86 52.14 22.3 53.59C19.68 56.03 12.06 51.84 8.79 51.18C9.32 50.77 9.9 49.82 9.9 48.49C9.92 43.6 10 34.26 10 31.28C10 29.93 9.24 29.05 9.12 28.37ZM14.38 49.07C16.47 49.67 18.18 50.09 19.19 49.51C21.7 48.07 20.82 42.35 14.34 42.31L14.38 49.07ZM14.3 38.56L15.61 38.71C17.26 38.89 18.76 38.82 19.45 38.01C20.96 36.24 20.31 32.48 16.71 32.55L14.3 32.59L14.3 38.56Z" />
			<path class="shp0" d="M28.14 50.83C28.14 48.98 28.73 35.99 28.3 30.82C28.21 29.7 27.73 28.75 27.56 28.58C27.56 28.43 32.22 28.54 32.92 28.52C32.92 35.86 32.55 45.86 32.55 53.27C36.57 54.11 38.71 54.49 39.94 54.83C40.17 55.23 38.59 58.88 38.4 59.53C34.55 58.49 31.07 58.28 27.25 56.8C27.25 56.75 27.25 56.7 27.25 56.64C28.09 56.53 28.14 54.03 28.14 51.7C28.14 51.41 28.14 51.12 28.14 50.83Z" />
			<path fill-rule="evenodd" class="shp0" d="M61.68 62.71L56.76 62.3L55.49 55.34L47.56 54.52L45.91 60.86L41.05 59.97L42.01 57.38L49.61 28.6L53.94 28.59L61.68 62.71ZM54.31 50.04L51.63 37.01L48.57 49.59L54.31 50.04Z" />
			<path fill-rule="evenodd" class="shp0" d="M76.09 34.85C76.09 33.01 76.09 30.52 76.09 29.6C76.09 29.05 74.29 28.47 72.08 28.47C70.59 28.47 69.28 28.95 67.49 29.87C63 32.18 61.76 44.62 67.43 47.12C75.88 50.84 74.09 61.05 63.83 56.61C64.42 58.65 65 60.69 65.59 62.73C68.22 63.4 71.91 64.81 74.97 60.62C78.32 57.39 78.25 47.54 73.69 44.26C71.13 41.96 66 38.91 69.52 34.8C71.95 32.76 73.77 34.05 76.09 34.85Z" />
			<path fill-rule="evenodd" class="shp0" d="M143.26 32.66C143.26 31.29 143.36 29.58 143.36 28.9C143.36 28.2 139.92 27.64 136.77 28.55C133.98 29.35 131.42 31.35 131.5 34.73C131.54 36.05 131.43 38.48 132.28 40.19C133.74 43.09 136.51 41.81 139.2 43.98C139.87 44.51 140.05 45.21 140.06 45.9C140.09 48.12 136.99 50.62 131.37 50.43C131.96 51.94 132.47 53.15 133.06 54.66C140.61 54.86 146.09 46.8 143.92 41.85C143.41 40.67 142.3 39.75 140.86 39.07C138.82 38.09 135.59 38.58 135.78 35.22C135.81 34.61 135.73 33.88 136.53 33.18C138.97 31.67 140.93 32.07 143.26 32.66Z" />
			<path fill-rule="evenodd" class="shp0" d="M89.38 34.31L89.5 62.87L85.25 63.34L85.25 34.31L79.58 34.31L79.58 28.65L95.92 28.65L94.26 34.31L89.38 34.31Z" />
			<path fill-rule="evenodd" class="shp0" d="M109.82 60.52L98.1 62.07L99.05 58.85L98.76 32.36L97.73 28.69L110.46 28.69L110.39 33.76L103.39 33.91L103.22 41.71L109.66 41.4L109.66 46.64L103.28 47.12L103.37 56L111.37 54.94L109.82 60.52Z" />
			<path fill-rule="evenodd" class="shp0" d="M112.89 28.54C113.23 29.81 113.57 31.07 113.92 32.34C113.99 40.69 114.06 49.04 114.14 57.39C113.62 58.25 113.1 59.11 112.58 59.97C114.59 59.55 116.59 59.13 118.6 58.71C118.44 54.53 118.79 50.48 118.63 46.3C119.3 46.37 119.46 46.3 120.13 46.36C121.57 50.02 123.01 53.67 124.45 57.32C126.28 56.83 128.11 56.35 129.93 55.86C128.03 52.06 126.13 48.26 124.23 44.46C131.4 39.14 129.44 28.16 118.94 28.33C117.35 28.36 114.84 28.44 112.89 28.54Z" />
			<path fill-rule="evenodd" class="shp3" d="M118.47 33.27C118.47 36.24 118.47 39.21 118.47 42.18C119.88 41.84 121.2 41.69 122.05 40.93C124.32 38.88 124.17 35.29 122.02 33.83C121.2 33.28 119.96 33.34 118.47 33.27Z" />
			<path fill-rule="evenodd" class="shp5" d="M46.24 24.16L46.24 10.28L48.4 10.28L48.4 16.42L52.74 10.28L55.64 10.28L51.62 15.68L55.84 24.16L53.06 24.16L50.13 17.64L48.4 19.96L48.4 24.16L46.24 24.16ZM56.95 24.16L56.95 10.28L64.84 10.28L64.84 12.62L59.11 12.62L59.11 15.7L64.44 15.7L64.44 18.05L59.11 18.05L59.11 21.81L65.05 21.81L65.05 24.16L56.95 24.16ZM66.88 24.16L66.88 10.28L71.41 10.28C72.55 10.28 73.38 10.4 73.89 10.65C74.41 10.9 74.82 11.34 75.13 11.98C75.44 12.62 75.6 13.35 75.6 14.17C75.6 15.21 75.37 16.07 74.9 16.75C74.43 17.43 73.73 17.85 72.8 18.03C73.26 18.38 73.64 18.77 73.94 19.19C74.24 19.62 74.65 20.37 75.16 21.45L76.46 24.16L73.89 24.16L72.35 21.13C71.79 20.05 71.41 19.37 71.21 19.09C71.01 18.81 70.79 18.62 70.56 18.52C70.33 18.41 69.97 18.36 69.47 18.36L69.04 18.36L69.04 24.16L66.88 24.16ZM69.04 16.15L70.63 16.15C71.66 16.15 72.3 16.09 72.56 15.98C72.82 15.87 73.02 15.67 73.16 15.39C73.31 15.11 73.38 14.76 73.38 14.35C73.38 13.88 73.28 13.5 73.09 13.21C72.9 12.93 72.63 12.74 72.29 12.67C72.11 12.64 71.59 12.62 70.72 12.62L69.04 12.62L69.04 16.15ZM87.22 24.16L84.9 24.16L83.98 21L79.7 21L78.82 24.16L76.54 24.16L80.67 10.28L82.95 10.28L87.22 24.16ZM83.28 18.65L81.8 13.51L80.36 18.65L83.28 18.65ZM88.43 24.16L88.43 10.39L90.59 10.39L90.59 21.81L95.93 21.81L95.93 24.16L88.43 24.16ZM107.06 24.16L104.73 24.16L103.81 21L99.54 21L98.65 24.16L96.37 24.16L100.51 10.28L102.79 10.28L107.06 24.16ZM103.11 18.65L101.63 13.51L100.19 18.65L103.11 18.65Z" />
			<path fill-rule="evenodd" class="shp0" d="M54.52 135.79C53.92 136.14 53.31 136.5 52.71 136.85C46.31 131.67 40.04 126.26 34.29 120.89C29.63 116.54 28.66 116.66 30.27 109.78C31.29 105.43 33.21 100.56 34.1 98.8C35.82 93.68 38.88 88.5 42.23 83.61C43.22 82.26 44.76 81.43 46.62 80.99C48.16 80.61 49.76 80.78 51.18 79.99C56.76 76.92 60.4 64.21 76.7 73.03C76.7 76.03 76.7 79.03 76.7 82.03C71.43 77.42 65.76 76.72 62.3 77.65C56.81 80.2 54.66 83.25 46.92 84.94C46.23 85.09 46.23 85.07 45.67 85.52C39.91 90.19 43.16 98.98 47.91 103.36C45.5 102.44 42.42 100.75 40.51 97.23C37.61 103.36 40.67 106.95 46.27 109.67C43.06 110.36 40 108.2 37.96 106.99C37.17 111.24 35.78 111.57 41.36 114.76C39.63 115.16 37.73 114.94 36.62 114.29C36.38 114.82 36.24 115.34 36.27 115.87C41.65 122.68 47.69 129.27 54.52 135.79Z" />
			<path fill-rule="evenodd" class="shp0" d="M63.63 125.42C61.77 129.55 58.26 135.06 53.48 137.43C54.07 137.98 55.25 139.03 55.89 139.59C60.47 138.43 64.22 129.62 63.63 125.42Z" />
			<path fill-rule="evenodd" class="shp0" d="M63.27 86.03C65.82 86.38 68.44 86.37 70.79 87.49C71.89 87.99 72.76 88.89 73.83 89.63C74.45 89.79 75.25 89.78 76.05 89.63C75.01 84.05 67.29 84.76 63.27 86.03Z" />
			<path fill-rule="evenodd" class="shp0" d="M63.26 110.21C60.98 110.56 59.16 109.53 57.54 109C57.36 110.08 57.48 111.26 58.31 112.05C60.91 111.68 64.59 112.39 64.31 116.99C63.8 118.19 63.03 118.59 62.37 118.65C61.74 118.71 61.27 118.46 60.74 118.16C56.81 115.85 56.45 110.53 55.85 106.56C57.66 107.91 60.19 109.42 63.26 110.21Z" />
			<path fill-rule="evenodd" class="shp0" d="M63.09 99.82C62.45 101.31 61.6 102.73 60.75 103.97C64.82 111.67 69.05 120.17 67.24 129.14C73.44 118.85 68.77 109.92 65.22 105.78C65.26 104.98 65.22 104.18 65.65 103.46C67.22 100.86 69.09 98.46 67.71 96.26C67.51 94.11 65.74 92.61 64.32 91.58C63.91 94.33 64.17 97.05 63.09 99.82Z" />
			<path fill-rule="evenodd" class="shp0" d="M67.86 133.01C72 136.83 76.48 143.14 72.8 148.81C69.03 153.72 66.94 155.31 68.43 160.62C65.63 161.65 66.98 161.7 67.9 163.92C67.52 164.62 66.91 165.26 66.38 165.85C66.87 166.51 67.56 167.13 67.84 167.83C67.72 168.37 67.66 168.92 67.14 169.29C67.61 169.7 68.29 170.04 68.54 170.52C68.55 171.24 68.58 171.95 68.51 172.69C69.03 173.12 69.84 173.28 69.89 174.03C70.21 174.7 70.27 175.56 70.18 176.36C71.57 176.85 71.44 176.62 71.53 178.12C72.29 178.55 73.14 178.94 73.81 179.4C74.86 181.02 78.93 181.94 81.27 182.12C65.24 174.27 77.27 152.64 83.43 143.09C84.25 143.9 84.87 144.31 85.69 145.13C82.94 149.65 80 154.48 78.29 159.24C87.18 152.88 95.87 157.66 98.9 164.69C101.99 171.87 99.29 181.56 85.8 183.76C74.15 185.66 64.42 180.41 62.79 169.41C61.25 160.12 65.36 153.21 69.58 146.27C72.73 140.84 71.03 137.81 67.86 133.01Z" />
			<path fill-rule="evenodd" class="shp0" d="M98.87 135.79C99.48 136.14 100.08 136.5 100.69 136.85C107.09 131.67 113.36 126.26 119.11 120.89C123.77 116.54 124.74 116.66 123.13 109.78C122.11 105.43 120.18 100.56 119.3 98.8C117.58 93.68 114.52 88.5 111.16 83.61C110.17 82.26 108.64 81.43 106.78 80.99C105.23 80.61 103.64 80.78 102.21 79.99C96.64 76.92 93 64.21 76.7 73.03C76.7 76.03 76.7 79.03 76.7 82.03C81.96 77.42 87.64 76.72 91.09 77.65C96.59 80.2 98.74 83.25 106.48 84.94C107.16 85.09 107.17 85.07 107.73 85.52C113.49 90.19 110.24 98.98 105.49 103.36C107.9 102.44 110.97 100.75 112.88 97.23C115.79 103.36 112.72 106.95 107.13 109.67C110.33 110.36 113.4 108.2 115.43 106.99C116.23 111.24 117.62 111.57 112.04 114.76C113.77 115.16 115.67 114.94 116.78 114.29C117.01 114.82 117.16 115.34 117.13 115.87C111.75 122.68 105.71 129.27 98.87 135.79Z" />
			<path fill-rule="evenodd" class="shp0" d="M89.76 125.42C91.63 129.55 95.14 135.06 99.92 137.43C99.33 137.98 98.15 139.03 97.51 139.59C92.92 138.43 89.17 129.62 89.76 125.42Z" />
			<path fill-rule="evenodd" class="shp0" d="M90.13 86.03C87.58 86.38 84.96 86.37 82.61 87.49C81.51 87.99 80.63 88.89 79.57 89.63C78.94 89.79 78.14 89.78 77.34 89.63C78.39 84.05 86.11 84.76 90.13 86.03Z" />
			<path fill-rule="evenodd" class="shp0" d="M90.14 110.21C92.42 110.56 94.24 109.53 95.86 109C96.04 110.08 95.92 111.26 95.09 112.05C92.48 111.68 88.81 112.39 89.09 116.99C89.6 118.19 90.37 118.59 91.02 118.65C91.66 118.71 92.13 118.46 92.66 118.16C96.59 115.85 96.95 110.53 97.54 106.56C95.74 107.91 93.21 109.42 90.14 110.21Z" />
			<path fill-rule="evenodd" class="shp0" d="M90.31 99.82C90.94 101.31 91.8 102.73 92.65 103.97C88.58 111.67 84.34 120.17 86.16 129.14C79.96 118.85 84.63 109.92 88.17 105.78C88.14 104.98 88.18 104.18 87.74 103.46C86.18 100.86 84.31 98.46 85.69 96.26C85.88 94.11 87.66 92.61 89.08 91.58C89.49 94.33 89.23 97.05 90.31 99.82Z" />
			<path fill-rule="evenodd" class="shp0" d="M25.83 131.79C32.85 140.2 50.34 152.57 65.4 133.77C66.55 135.04 69.78 140.37 69.6 142.16C50.59 158.46 33.14 149.36 25.83 131.79Z" />
			<path fill-rule="evenodd" class="shp1" d="M54.03 148.71C47.62 149.49 44.94 147.99 42.15 146.31C48.92 147.52 56.26 148.06 61.6 142.93C62.32 143.73 63.26 144.4 63.98 145.2C60.96 147.07 57.29 148.13 54.03 148.71Z" />
			<path fill-rule="evenodd" class="shp0" d="M127.46 131.79C120.44 140.2 102.96 152.57 87.9 133.77C86.75 135.04 83.51 140.37 83.7 142.16C102.7 158.46 120.15 149.36 127.46 131.79Z" />
			<path fill-rule="evenodd" class="shp0" d="M127.42 131.79C120.4 140.2 102.92 152.57 87.86 133.77C86.71 135.04 83.47 140.37 83.66 142.16C102.66 158.46 120.11 149.36 127.42 131.79Z" />
			<path fill-rule="evenodd" class="shp3" d="M99.22 148.71C105.64 149.49 108.31 147.99 111.1 146.31C104.34 147.52 97 148.06 91.66 142.93C90.93 143.73 90 144.4 89.28 145.2C92.3 147.07 95.97 148.13 99.22 148.71Z" />
			<path fill-rule="evenodd" class="shp3" d="M81.98 167.52C80.9 167.05 79.8 166.75 78.82 166.67C78.94 173.03 77.62 176.6 83.94 179.35C81.54 175.35 81.7 171.55 81.98 167.52Z" />
			<path fill-rule="evenodd" class="shp3" d="M87.67 174.46C87.8 175.64 88.09 176.73 88.51 177.62C93.25 175.11 98.69 173.26 96.95 166.85C94.68 170.93 91.3 172.7 87.67 174.46Z" />
			<path fill-rule="evenodd" class="shp3" d="M78.67 162.97C78.16 163.83 77.66 164.69 77.15 165.55C81.56 165.83 82.62 165.92 86.83 168.67C87.95 168.28 89.01 167.52 89.99 166.74C86.82 164.04 82.41 162.64 78.67 162.97Z" />
			<path fill-rule="evenodd" class="shp3" d="M96.43 165.41C96.32 164.38 95.7 163.67 95.01 162.89C92.55 166.56 91.9 167.35 87.41 169.62C87.2 170.78 87.32 172.08 87.5 173.31C91.43 171.92 94.86 168.81 96.43 165.41Z" />
			<path fill-rule="evenodd" class="shp3" d="M85.41 179.58C86.4 179.59 87.4 179.6 88.4 179.61C86.44 175.65 85.99 174.69 86.27 169.67C85.37 168.91 84.18 168.36 83.01 167.9C82.26 171.99 83.25 176.52 85.41 179.58Z" />
			<path fill-rule="evenodd" class="shp3" d="M79.8 161.81C84.59 161.61 87.19 163.52 90.97 166.01C91.74 165.24 92.45 164.67 93.02 163.62C88.38 160.52 84.36 157.5 79.8 161.81Z" />
			<path fill-rule="evenodd" class="shp3" d="M89.5 179.31C89.38 179.09 89.25 178.79 89.12 178.57C91.75 177.5 93.22 176.52 95.79 174.49C94.69 177.17 91.62 178.82 89.5 179.31Z" />
			<path fill-rule="evenodd" class="shp3" d="M76.87 166.54C77.12 166.54 77.44 166.58 77.7 166.58C77.31 169.39 77.43 171.15 77.9 174.39C76.14 172.1 76.23 168.62 76.87 166.54Z" />
			<path fill-rule="evenodd" class="shp3" d="M94.1 162.01C94.08 162.36 93.87 162.61 93.65 162.71C91.41 160.97 89.83 160.19 86.78 158.98C89.65 158.6 92.75 160.39 94.1 162.01Z" />
		</g>
	</g>
</svg>