<svg height="355.902608" viewBox="0 0 39.729281 50.15458" width="280.975743" xmlns="http://www.w3.org/2000/svg" xmlns:xlink="http://www.w3.org/1999/xlink"><symbol id="a" overflow="visible"/><symbol id="b" overflow="visible"/><g transform="translate(340.1312 531.83539)"><use height="100%" transform="matrix(.3527778 0 0 .3527778 99.5353 139.75266)" width="100%" x="186.99159" xlink:href="#a" y="49.888199"/><use fill="#fff" height="100%" transform="matrix(.3527778 0 0 .3527778 99.5353 139.75266)" width="100%" x="181.7433" xlink:href="#b" y="384.35489"/><g clip-rule="evenodd" fill-rule="evenodd" image-rendering="optimizeQuality" shape-rendering="geometricPrecision" text-rendering="geometricPrecision"><path d="m-320.26863-482.37726c4.998-1.93292 9.60563-5.33059 13.01712-9.3212 3.86648-4.52274 6.21645-10.36985 6.21645-16.66317l.00013-22.902h-38.46723v22.902c0 6.29325 2.35005 12.14049 6.21644 16.66317 3.41157 3.99061 8.01924 7.38827 13.01707 9.3212z" fill="#fff" stroke-width=".016769"/><path d="m-301.03489-530.2458v-1.0179h-10.45853l-28.00855 16.35132v6.55071c0 .18745.002.37484.006.56162l5.40089-3.15196c-.79438-.16925-1.49594-.38584-1.97669-.59613 1.91826-.39072 6.88254-4.31942 7.38833-6.53535 1.00604.18997 1.49571.15979 2.20944.0473-.0134-1.00566.55597-1.95175 1.57689-2.25026-.0348-1.25127 1.04202-2.27068 2.31604-2.78221 1.35609-.5444 3.05947-.46389 3.75898.47577.65363-.40085 2.00066-.17196 2.65231 1.07348-.56194.13378-.71499.20272-1.08707.36941.12034.0549.24811.10409.3825.14786l15.83911-9.24366z" fill="#0079bb" stroke-width=".016769"/><path d="m-301.03489-520.15885v-2.70351l-10.56799 6.17117.25081.27296c.71177.006 2.2.12223 3.37294.31386l6.94423-4.05447zm-31.98938 15.97645-5.38925 3.147c.23055.76022.49579 1.50653.79386 2.23711l5.84053-3.41013c.0714-.25415.11451-.49529.11451-.69514-.56231.0668-1.4837.29685-1.94351.39443.17726-.29632.43797-1.00014.58385-1.67328z" fill="#dc351b" stroke-width=".016769"/><path d="m-301.03489-517.47055v-2.68832l-6.94415 4.05439c.007.001.015.002.0224.004.80096-.0612 2.41785-.46828 3.17444-.66165-.54508 1.56104-2.04693 2.80041-3.34279 3.38315.0113.01.0227.0191.0339.0285l7.05619-4.11976zm-30.74411 15.26213-5.84053 3.41013c.22547.72173.59814 1.42813.97799 2.11714l4.87561-2.84667c.40351-.40833.77261-.84874.98147-1.2344-.61993.006-1.07407.12759-1.77994.19615.28822-.36645.61615-1.04043.7854-1.64234z" fill="#1f1a17" stroke-width=".016769"/><path d="m-301.67212-502.73269c.41658-1.81783.63715-3.70259.63715-5.62903l.00013-1.84503-6.28591 3.66813c-.0644 1.5707-.18219 3.54951-.19139 4.22264-1.69528-.37144-2.5943-1.34688-3.25391-2.21209l-2.5824 1.50699c.4292.94465 2.06014 2.064 2.93096 2.48179-2.12017.0215-3.89598.53518-6.56629 2.35813-2.43357 1.66141-4.2702 3.69534-5.35275 5.43506.1035-.93408.0697-3.16498-.19523-4.91599l-10.5747 6.17111c1.37606 1.58196 2.93987 3.06725 4.64039 4.40097l26.79395-15.64271z" fill="#0079bb" stroke-width=".016769"/><path d="m-328.42164-517.53632c-.67941 2.11043-4.91424 5.60386-6.62394 5.976 1.70668.33464 3.60334.56074 5.47014.34651.0878.33896.15555.74132-.0528 1.06658-.4809-.0499-2.03633.1635-2.5171.43367.077.80332.0122 2.05215-.14801 2.81613l-2.99105-.007c-.013-.46564-.12594-.92047-.26448-1.31937l-1.97036-.00054c-.32399.9966-.35794 2.29072.009 3.50236l1.94548.003c.15633-.38218.22338-1.0381.27046-1.40145l2.28965-.00075c-.22888.27757-.60896.60632-.96091.8095l1.58409.0615c.006.76687-.27403 1.65883-.52151 2.07239.43791-.0929 1.30334-.30417 1.83889-.30417 0 .64109-.3162 2.07361-.70663 2.37219.88865-.20017 1.40238-.15791 1.8699.007-.44636.79725-1.51378 1.82445-2.16901 2.29365 1.50902-.11602 6.10125.13773 7.84938.92003.13001-.87391.47765-2.21188 1.15419-3.01663.92676.66687 1.43041 5.0683 1.26941 6.52177 1.14913-1.94654 6.86637-6.71821 9.87225-6.51911-.72083-.4388-1.60858-1.1805-1.97179-2.0928-.2825-.70949-.24779-1.52218.42935-2.37574.50548-.637 1.40615-.90581 2.18549-.51289.87421.44085 1.33711 2.16507 3.28306 2.92205.01-.72817.15012-2.73648.20092-4.28164.029-.88123.58924-1.61831 1.7699-1.24678-.50813-.96462-1.04626-3.01775-1.1644-3.88681-.64185-.21189-1.09064-.62765-1.67632-1.12617 1.23411-.55506 2.54953-1.44371 3.33871-2.66056-.72062.1842-2.07218.57161-2.82281.45596-1.10838-.17076-2.57113-.26457-3.25335-.2704l-.8293-.83557c1.12577-.65296 3.72036-2.03559 5.65631-4.8131-2.55732.78938-9.00649 1.72702-11.4682.60411.0476-.20605.33493-.62559 1.31846-.70579-.61668-.77116-1.585-.4425-2.14853-.29095-1.29192-1.73556-5.38252-.42883-5.3139 2.03152-.81804.31173-1.29668.70164-1.57259 1.62393.58977-.33577 1.14082-.47805 1.65325-.42688.15624 1.45407-3.51157 1.4481-4.11147 1.25481z" fill="#1f1a17" stroke-width=".016769"/><path d="m2318.96 1409.18v-1392.0722h34.21v1392.0722z" fill="#1f1a17" transform="matrix(.01676918 0 0 .01676918 -339.99891 -531.70312)"/><path d="m-300.53819-508.07233c0 3.14868-.58312 6.13973-1.63565 8.91808-1.11459 2.94222-2.75543 5.64407-4.78688 8.04016-1.72709 2.03696-3.73684 3.85356-5.9456 5.40922-2.24232 1.57932-4.69079 2.89074-7.25803 3.89177h-.20841c-2.56712-1.00098-5.01559-2.31233-7.25801-3.89172-2.20877-1.55566-4.21844-3.37221-5.94553-5.40921-2.03152-2.39602-3.67228-5.09772-4.78688-8.04009-1.05253-2.77858-1.63572-5.76955-1.63572-8.91823h.57375c0 3.07943.56957 6.00285 1.59753 8.71647 1.09047 2.87875 2.69762 5.52412 4.68829 7.87205 1.69484 1.99892 3.66812 3.78236 5.83789 5.31057 2.17452 1.53157 4.54634 2.80684 7.03282 3.78597 2.48648-.97919 4.85838-2.25434 7.03282-3.78597 2.17-1.52821 4.14323-3.31165 5.83804-5.31057 1.9907-2.34807 3.59774-4.99339 4.68829-7.8721 1.02798-2.71355 1.59747-5.63689 1.59747-8.7164h.57374z" fill="#1f1a17" stroke-width=".016769"/><path d="m0 1409.18v-1409.17874934h2336.06v34.21814934h-2301.8456v1374.9606z" fill="#1f1a17" transform="matrix(.0168937 0 0 .01676918 -339.99891 -531.70312)"/></g></g></svg>