<?xml version="1.0" encoding="UTF-8" standalone="no"?>
<!-- Created with Inkscape (http://www.inkscape.org/) -->

<svg
   xmlns:dc="http://purl.org/dc/elements/1.1/"
   xmlns:cc="http://creativecommons.org/ns#"
   xmlns:rdf="http://www.w3.org/1999/02/22-rdf-syntax-ns#"
   xmlns:svg="http://www.w3.org/2000/svg"
   xmlns="http://www.w3.org/2000/svg"
   xmlns:sodipodi="http://sodipodi.sourceforge.net/DTD/sodipodi-0.dtd"
   xmlns:inkscape="http://www.inkscape.org/namespaces/inkscape"
   width="316.41"
   height="316.41125"
   id="svg5538"
   version="1.1"
   inkscape:version="0.48.4 r9939"
   sodipodi:docname="New document 10">
  <defs
     id="defs5540">
    <clipPath
       clipPathUnits="userSpaceOnUse"
       id="clipPath3021">
      <path
         inkscape:connector-curvature="0"
         d="m 331.417,134.221 267.874,0 0,265.039 -267.874,0 0,-265.039 z"
         id="path3023" />
    </clipPath>
  </defs>
  <sodipodi:namedview
     id="base"
     pagecolor="#ffffff"
     bordercolor="#666666"
     borderopacity="1.0"
     inkscape:pageopacity="0.0"
     inkscape:pageshadow="2"
     inkscape:zoom="0.35"
     inkscape:cx="345.34786"
     inkscape:cy="-213.22295"
     inkscape:document-units="px"
     showgrid="false"
     fit-margin-top="0"
     fit-margin-left="0"
     fit-margin-right="0"
     fit-margin-bottom="0"
     inkscape:window-width="1680"
     inkscape:window-height="987"
     inkscape:window-x="-8"
     inkscape:window-y="-8"
     inkscape:window-maximized="1"
     inkscape:current-layer="svg5538" />
  <metadata
     id="metadata5543">
    <rdf:RDF>
      <cc:Work
         rdf:about="">
        <dc:format>image/svg+xml</dc:format>
        <dc:type
           rdf:resource="http://purl.org/dc/dcmitype/StillImage" />
        <dc:title></dc:title>
      </cc:Work>
    </rdf:RDF>
  </metadata>
  <g
     id="g3017"
     transform="matrix(1.25,0,0,-1.25,-422.01138,493.76062)">
    <g
       id="g3019"
       clip-path="url(#clipPath3021)">
      <g
         id="g3025"
         transform="translate(590.7371,268.4455)">
        <path
           d="m 0,0 c 0,-69.904 -56.665,-126.566 -126.559,-126.566 -69.901,0 -126.569,56.662 -126.569,126.566 0,69.898 56.668,126.563 126.569,126.563 C -56.665,126.563 0,69.898 0,0"
           style="fill:#17233a;fill-opacity:1;fill-rule:nonzero;stroke:none"
           id="path3027"
           inkscape:connector-curvature="0" />
      </g>
      <g
         id="g3029"
         transform="translate(533.3691,344.1402)">
        <path
           d="m 0,0 c -23.086,5.583 -59.923,7.109 -69.197,6.929 -9.269,0.18 -46.108,-1.346 -69.192,-6.929 -3.664,-17.036 -6.42,-46.628 -3.475,-64.927 11.278,-70.045 72,-93.249 72.659,-93.497 l 0.003,0 0.014,0 0.002,0 c 0.66,0.248 61.381,23.452 72.662,93.497 C 6.42,-46.628 3.662,-17.036 0,0"
           style="fill:#fddd04;fill-opacity:1;fill-rule:nonzero;stroke:none"
           id="path3031"
           inkscape:connector-curvature="0" />
      </g>
      <g
         id="g3033"
         transform="translate(549.1271,353.3932)">
        <path
           d="m 0,0 c -21.756,21.747 -51.768,35.186 -84.95,35.186 -33.191,0 -63.202,-13.439 -84.953,-35.186 -21.747,-21.749 -35.185,-51.765 -35.185,-84.948 0,-33.186 13.438,-63.202 35.185,-84.955 21.751,-21.747 51.762,-35.188 84.953,-35.19 33.182,0.002 63.194,13.443 84.95,35.19 21.746,21.753 35.185,51.769 35.185,84.955 C 35.185,-51.765 21.746,-21.749 0,0 m -122.803,-174.17 c -34.707,14.741 -59.047,49.137 -59.047,89.222 0,20.805 6.579,40.062 17.74,55.851 -15.255,-101.224 46.829,-139.233 61.626,-148.357 -3.083,-0.516 -12.043,0.152 -20.319,3.284 m 37.858,0.428 -0.016,0 -0.002,0 c -0.701,0.265 -65.346,24.089 -77.354,99.448 -3.135,19.69 -0.199,51.527 3.701,69.856 8.053,1.967 17.682,3.464 27.334,4.585 13.761,7.517 29.542,11.801 46.332,11.801 16.787,0 32.565,-4.284 46.328,-11.801 9.651,-1.121 19.28,-2.618 27.333,-4.585 3.9,-18.329 6.835,-50.166 3.701,-69.856 -12.008,-75.359 -76.653,-99.183 -77.355,-99.448 l -0.002,0 z m 38.974,0.081 c -8.615,-3.57 -18.365,-4.336 -21.609,-3.793 14.809,9.133 76.996,47.204 61.584,148.636 11.281,-15.84 17.939,-35.202 17.939,-56.13 0,-39.646 -23.82,-73.707 -57.914,-88.713"
           style="fill:#ffffff;fill-opacity:1;fill-rule:nonzero;stroke:none"
           id="path3035"
           inkscape:connector-curvature="0" />
      </g>
      <g
         id="g3037"
         transform="translate(492.7482,251.9245)">
        <path
           d="m 0,0 c -1.865,-1.596 -3.293,-1.985 -3.293,-1.985 1.076,1.098 0.957,1.781 0.957,1.781 0,0 -2.569,-0.749 -4.407,-0.398 -1.839,0.358 -3.138,1.043 -3.548,2.574 -0.414,1.528 0.609,2.875 1.078,3.613 0.469,0.739 2.494,3.164 2.184,6.691 -0.313,3.527 -2.292,5.406 -2.854,6.049 -0.564,0.636 -2.306,2.308 -3.67,3.798 -1.365,1.488 -3.17,3.365 -4.263,5.842 -1.089,2.479 -0.923,3.821 -0.923,3.821 -6.89,1.846 -6.904,8.255 -6.904,8.255 0,0 2.325,-8.974 13.643,-7.102 -5.125,2.356 -5.454,5.598 -5.063,8.12 0.292,1.898 1.381,3.441 2.122,5.057 0.757,1.622 0.683,4.147 0.683,4.147 0,0 1.023,-1.23 0.278,-4.431 0,0 6.212,6.144 0.068,16.643 0,0 0.91,-0.428 1.935,-2.176 0,0 1.024,10.293 -13.219,12.819 0,0 2.141,2.123 3.216,2.832 0,0 -2.831,0.241 -4.222,-0.19 -1.388,-0.428 -1.988,-0.711 -2.336,-1.076 -0.347,-0.365 -0.56,-0.741 -1.091,-0.901 0,0 -0.979,-0.014 -1.952,-0.139 -0.56,-0.073 -5.314,-0.42 -5.935,-0.519 -0.627,-0.095 -1.605,-0.371 -1.453,-1.276 0.142,-0.895 -0.363,-1.236 -0.363,-1.236 0,0 -4.868,-0.967 -5.359,-1.136 -0.493,-0.18 -0.659,-0.714 -0.499,-1.339 0.168,-0.626 1.905,-4.707 2.098,-4.923 0,0 0.424,0.762 1.207,0.966 0.787,0.21 3.693,0.489 4.232,0.094 0.544,-0.392 0.99,-1.595 1.135,-2.485 0.154,-0.883 0.133,-2.062 -0.348,-2.23 -0.476,-0.177 -3.181,-0.68 -3.441,-0.665 -0.255,0.016 -1.164,0.286 -1.453,0.661 l 0.756,-6.445 c 0,0 0.658,1.341 2.586,1.941 1.924,0.6 6.371,1.341 7.422,2.204 0,0 0.29,0.199 0.6,0.651 0,0 -0.452,-1.904 -3.077,-2.591 -3.063,-0.806 -13.978,-3.958 -13.884,-18.45 0,0 1.277,3.496 6.658,4.381 0,0 -3.26,-1.076 -4.673,-3.73 0,0 -3.116,-4.809 -5.46,-5.338 0.623,-0.398 1.568,-0.343 1.568,-0.343 -0.65,-0.912 -1.58,-1.75 -2.32,-2.204 -1.988,-1.248 -3.484,-1.337 -5.854,-0.829 -1.847,0.4 -4.404,1.804 -5.178,1.852 -0.775,0.05 -1.39,-0.63 -1.39,-0.63 0,0 -2.201,1.069 -3.465,-1.421 0,0 1.438,0.516 1.963,-0.501 0,0 -0.897,-0.995 -0.221,-2.644 0,0 -1.656,-1.403 -0.484,-3.197 0,0 0.453,1.429 1.852,1.093 0,0 0.355,-1.5 1.578,-1.887 0,0 0.26,-2.157 2.445,-2.775 0,0 -0.571,1.019 0.119,1.794 0,0 2.646,-0.243 3.929,1.754 0,0 2.001,-0.28 3.202,0.268 0,0 -0.533,-1.055 -1.647,-1.449 0,0 3.735,0 6.092,1.555 0,0 -0.736,-1.733 -1.053,-1.868 0,0 3.145,0.736 5.575,3.45 0,0 1.18,1.255 2.46,2.685 1.272,1.426 3.321,2.116 3.321,2.116 0.074,-1.686 0.273,-3.618 1.779,-5.971 1.516,-2.345 3.652,-3.689 4.696,-4.483 1.051,-0.799 1.509,-1.317 1.509,-1.317 -0.544,0.072 -1.125,0.125 -1.738,0.167 -5.269,0.332 -11.996,-2.737 -9.487,-11.028 0,0 -0.158,1.646 1.296,2.663 0,0 -0.363,-1.479 0.718,-4.029 1.083,-2.546 2.01,-3.917 1.848,-5.229 -0.16,-1.306 -0.875,-2.076 -1.728,-2.099 -1.625,-0.031 -4.756,1.464 -5.86,1.585 -1.371,0.143 -1.84,-0.29 -2.268,-1.151 0,0 -2.328,0.241 -2.711,-2.109 0,0 1.125,0.715 1.909,-0.138 0,0 -0.769,-1.286 -0.535,-2.548 0,0 -1.838,-0.431 -0.967,-3.588 0,0 0.388,1.212 1.629,1.024 0,0 0.479,-0.976 2.391,-1.074 0,0 -0.84,-1.643 1.865,-3.253 0,0 -0.419,0.927 0.23,1.534 0,0 1.934,-0.322 3.266,1.07 1.334,1.388 3.654,3.328 6.533,3.614 0,0 0.802,-0.492 1.146,-2.213 0,0 1.053,0.583 1.422,2.286 0,0 3.745,-2.327 7.096,-0.989 0,0 -2.379,0.461 -3.23,1.832 0,0 0.546,-0.036 1.105,0.237 0,0 -3.756,0.939 -4.367,4.772 -0.614,3.833 1.214,5.582 2.564,6.115 0,0 0.5,4.226 6.245,6.421 0,0 -6.007,-3.881 -5.055,-10.992 0.955,-7.109 13.83,-6.445 13.83,-6.445 -1.37,-2.317 -3.031,-3.591 -5.061,-4.631 -2.029,-1.041 -4.312,-1.384 -5.417,-1.494 -1.1,-0.11 -2.417,-0.258 -3.667,-0.795 -1.254,-0.53 -1.365,-1.945 -1.365,-1.945 0,0 -2.027,-0.099 -1.934,-2.642 0,0 0.85,0.438 1.977,0.273 0,0 -0.629,-1.055 -0.131,-2.39 0,0 -2.053,-1.149 -0.522,-3.81 0,0 0.323,0.962 1.594,1.326 0,0 0.727,-1.092 1.932,-1.267 0,0 0.101,-0.857 0.959,-1.349 0,0 -0.541,-1.523 1.698,-2.679 0,0 -0.485,1.229 0.823,1.827 0,0 2.274,0.333 2.826,2.459 0.549,2.128 0.935,6.41 4.254,8.223 0,0 5.03,2.494 7.893,3.962 2.866,1.475 3.778,2.691 5.645,5.568 C 0.156,-2.825 0,0 0,0 m -35.973,70.074 c 0,0 -0.3,-0.209 -0.523,-0.43 -0.213,-0.212 -0.637,-0.638 -0.637,-0.638 l 0.334,1.656 c 0,0 0.111,0.398 0.553,0.506 0.434,0.112 3.4,0.573 3.4,0.573 l -3.127,-1.667 z"
           style="fill:#a8173c;fill-opacity:1;fill-rule:nonzero;stroke:none"
           id="path3039"
           inkscape:connector-curvature="0" />
      </g>
      <g
         id="g3041"
         transform="translate(449.2952,300.0953)">
        <path
           d="m 0,0 -1.596,-5.182 -2.307,-6.123 c -2.268,4.764 -4.914,5.87 -4.914,5.87 -0.113,-1.791 -0.83,-2.172 -0.83,-2.172 -2.651,7.873 -5.713,11.459 -6.702,12.666 -0.956,1.17 -2.433,1.729 -2.968,1.621 -0.535,-0.11 -1.422,-0.484 -2.847,-0.295 -1.428,0.178 -1.94,1.237 -1.94,1.237 -1.239,0.365 -1.713,-0.447 -1.713,-0.447 -0.496,2.029 1.375,2.395 1.375,2.395 0.014,0.804 0.648,1.426 0.648,1.426 -0.462,0.973 -0.048,2.166 -0.048,2.166 -0.944,0.806 -2.096,0.319 -2.096,0.319 1.137,2.572 3.402,1.602 3.402,1.602 0.719,1.001 2.289,1.224 2.289,1.224 0.012,0.936 -0.939,1.285 -0.939,1.285 1.311,1.098 2.679,-0.186 2.679,-0.186 0.239,0.28 1.729,0.39 2.499,-0.748 0,0 0.965,-1.588 1.419,-2.68 0.457,-1.091 0.959,-1.737 0.959,-1.737 0,0 1.459,-1.405 2.153,-2.437 0.689,-1.033 1.381,-2.255 2.342,-4.034 C -8.175,3.989 -8.14,3.584 -6.841,2.758 -5.545,1.931 -2.69,0.162 0,0"
           style="fill:#a8173c;fill-opacity:1;fill-rule:nonzero;stroke:none"
           id="path3043"
           inkscape:connector-curvature="0" />
      </g>
      <g
         id="g3045"
         transform="translate(442.3572,298.8073)">
        <path
           d="m 0,0 c 0,0 -0.305,0.859 0.027,1.8 0,0 2.213,-1.179 6.097,-0.415 L 6.131,1.388 C 3.697,1.796 1.264,3.294 0.098,4.045 c -1.3,0.827 -1.334,1.232 -2.295,3.014 -0.961,1.777 -1.653,3.001 -2.343,4.033 -0.692,1.032 -2.153,2.437 -2.153,2.437 0,0 1.039,-1.844 1.741,-3.974 C -4.252,7.421 -3.012,3.017 0,0"
           style="fill:#6b1841;fill-opacity:1;fill-rule:nonzero;stroke:none"
           id="path3047"
           inkscape:connector-curvature="0" />
      </g>
      <g
         id="g3049"
         transform="translate(480.6032,253.2035)">
        <path
           d="M 0,0 C 1.258,-2.67 5.402,-1.881 5.402,-1.881 3.562,-1.523 2.264,-0.838 1.854,0.693 1.44,2.222 2.463,3.568 2.933,4.306 3.401,5.046 5.426,7.47 5.116,10.997 4.822,8.449 3.719,7.002 1.658,5.537 0.797,4.925 -1.402,2.968 0,0"
           style="fill:#6b1841;fill-opacity:1;fill-rule:nonzero;stroke:none"
           id="path3051"
           inkscape:connector-curvature="0" />
      </g>
      <g
         id="g3053"
         transform="translate(462.3522,309.8316)">
        <path
           d="m 0,0 c 0,0 -0.452,-1.904 -3.078,-2.591 -2.09,-0.549 -7.836,-2.189 -11.243,-7.778 0,0 3.266,4.099 7.825,5.862 C -2.507,-2.963 -0.078,-2.818 0,0"
           style="fill:#6b1841;fill-opacity:1;fill-rule:nonzero;stroke:none"
           id="path3055"
           inkscape:connector-curvature="0" />
      </g>
      <g
         id="g3057"
         transform="translate(468.6012,321.9186)">
        <path
           d="m 0,0 c 0,0 11.489,-4.901 12.614,-19.342 0.665,2.833 0.538,6.838 -2.379,11.822 0,0 -5.348,6.098 -10.235,7.52"
           style="fill:#6b1841;fill-opacity:1;fill-rule:nonzero;stroke:none"
           id="path3059"
           inkscape:connector-curvature="0" />
      </g>
      <g
         id="g3061"
         transform="translate(480.7492,284.8635)">
        <path
           d="m 0,0 0,0 c -5.126,2.355 -5.455,5.599 -5.064,8.12 0.293,1.899 1.381,3.442 2.122,5.057 0.757,1.622 0.683,4.147 0.683,4.147 0,0 -0.705,6.126 -5.756,8.078 0,0 2.198,-2.729 2.213,-5.712 0.01,-2.984 -0.605,-4.441 -1.942,-6.76 C -9.077,10.61 -11.117,1.411 0,0"
           style="fill:#6b1841;fill-opacity:1;fill-rule:nonzero;stroke:none"
           id="path3063"
           inkscape:connector-curvature="0" />
      </g>
      <g
         id="g3065"
         transform="translate(470.7642,263.0225)">
        <path
           d="m 0,0 c -5.684,-0.591 -7.616,-4.945 -7.616,-4.945 0,0 -3.226,-0.907 -4.158,-5.188 -0.938,-4.274 2.28,-7.102 2.28,-7.102 -0.763,0.163 -2.126,0.789 -2.126,0.789 0.699,-0.867 2.207,-1.941 2.207,-1.941 0,0 3.746,-2.327 7.096,-0.99 0,0 -2.379,0.461 -3.23,1.832 0,0 0.546,-0.036 1.105,0.239 0,0 -3.756,0.938 -4.367,4.771 -0.614,3.833 1.213,5.582 2.564,6.114 0,0 0.501,4.228 6.245,6.421"
           style="fill:#6b1841;fill-opacity:1;fill-rule:nonzero;stroke:none"
           id="path3067"
           inkscape:connector-curvature="0" />
      </g>
      <g
         id="g3069"
         transform="translate(445.5572,313.0191)">
        <path
           d="m 0,0 c 0,0 1.531,-0.722 2.59,-0.323 1.048,0.396 1.745,1.704 2.908,2.049 1.158,0.335 2.634,-0.358 3.109,-0.807 0,0 -1.963,-0.021 -2.952,-1.057 C 4.658,-1.179 1.898,-2.884 0,0"
           style="fill:#00a363;fill-opacity:1;fill-rule:nonzero;stroke:none"
           id="path3071"
           inkscape:connector-curvature="0" />
      </g>
      <g
         id="g3073"
         transform="translate(508.1222,301.2838)">
        <path
           d="m 0,0 c 0,0 -1.619,1.864 -2.564,2.253 0,0 2.289,-2.398 1.817,-6.607 -0.477,-4.211 -2.157,-8.536 -2.145,-10.339 0.013,-1.801 0.523,-6.501 3.72,-8.347 0,0 -16.222,5.887 -10.371,20.124 0,0 -2.074,-1.539 -3.611,-1.762 0,0 3.157,4.276 3.807,7.23 0.642,2.955 0.294,6.995 -2.348,8.079 -2.64,1.084 -7.164,-1.722 -6.666,-9.52 0,0 0.784,1.561 2.647,1.682 0,0 -3.178,-2.577 -1.716,-8.365 1.452,-5.787 4.63,-10.622 5.317,-15.538 0.683,-4.916 -1.477,-12.259 -11.423,-14.29 l -1.495,2.565 c 0,0 12.788,0.591 8.918,12.893 0,0 0.795,-0.412 1.506,-1.54 0,0 -2.266,6.36 -3.746,10.018 -1.534,3.8 -2.317,8.294 -2.265,13.289 0,0 -0.299,8.482 5.886,10.712 6.18,2.225 8.994,-0.589 9.543,-1.336 0,0 -1.357,0.435 -2.461,0.421 0,0 7.191,-3.623 7.65,-11.622"
           style="fill:#a8173c;fill-opacity:1;fill-rule:nonzero;stroke:none"
           id="path3075"
           inkscape:connector-curvature="0" />
      </g>
      <g
         id="g3077"
         transform="translate(496.3922,314.5729)">
        <path
           d="m 0,0 c 4.114,0.535 6.092,-1.475 6.54,-2.088 0,0 -1.356,0.434 -2.459,0.421 0,0 7.19,-3.624 7.649,-11.622 0,0 -1.619,1.864 -2.564,2.253 0,0 2.289,-2.398 1.818,-6.607 -0.478,-4.21 -2.159,-8.536 -2.144,-10.34 0.01,-1.801 0.521,-6.501 3.717,-8.346 0,0 -9.532,3.292 -8.381,15.571 0,0 0.182,-1.921 0.761,-2.664 0,0 -0.179,3.471 0.601,6.451 0.785,2.975 1.041,8.558 -1.079,11.701 0,0 1.92,-0.83 3.5,-2.686 0,0 -2.063,5.89 -8.525,6.789 0,0 1.101,0.493 2.666,0.458 0,0 -0.473,0.634 -2.1,0.709"
           style="fill:#6b1841;fill-opacity:1;fill-rule:nonzero;stroke:none"
           id="path3079"
           inkscape:connector-curvature="0" />
      </g>
      <g
         id="g3081"
         transform="translate(448.7572,295.2213)">
        <path
           d="m 0,0 c -3.167,-2.641 -3.365,-6.431 -3.365,-6.431 0,0 1.275,3.496 6.657,4.382 0,0 7.974,0.62 11.319,2.523 3.346,1.9 6.317,5.368 6.694,9.037 0.373,3.667 -1.057,7.832 -3.644,8.968 0,0 1.996,-4.41 -0.442,-8.742 C 15.403,6.513 13.434,5.038 9.295,3.916 9.295,3.916 3.484,2.907 0,0"
           style="fill:#6b1841;fill-opacity:1;fill-rule:nonzero;stroke:none"
           id="path3083"
           inkscape:connector-curvature="0" />
      </g>
      <g
         id="g3085"
         transform="translate(479.1942,274.0475)">
        <path
           d="m 0,0 c -1.364,1.489 -3.169,3.365 -4.261,5.841 -1.09,2.481 -0.924,3.822 -0.924,3.822 -6.89,1.846 -6.903,8.255 -6.903,8.255 0,0 -0.645,-15.467 12.088,-17.918"
           style="fill:#6b1841;fill-opacity:1;fill-rule:nonzero;stroke:none"
           id="path3087"
           inkscape:connector-curvature="0" />
      </g>
      <g
         id="g3089"
         transform="translate(470.4252,226.0105)">
        <path
           d="m 0,0 c 0,0 2.274,0.332 2.826,2.458 0.549,2.129 0.935,6.412 4.254,8.224 0,0 5.03,2.494 7.893,3.962 2.866,1.476 3.778,2.69 5.645,5.567 1.861,2.878 1.705,5.704 1.705,5.704 -1.865,-1.596 -3.293,-1.986 -3.293,-1.986 0,0 1.1,-0.163 1.674,0.078 0,0 -0.674,-3.711 -4.225,-6.811 -3.547,-3.098 -8.998,-6.374 -14.571,-7.611 0,0 0.606,-0.724 1.374,-0.939 0,0 -0.166,-0.808 -0.29,-2.031 C 2.871,5.395 2.866,3.526 0.475,2.137 c 0,0 -0.541,-0.741 -1.307,-0.555 0,0 -1.568,-0.884 0.009,-3.409 0,0 -0.485,1.23 0.823,1.827"
           style="fill:#6b1841;fill-opacity:1;fill-rule:nonzero;stroke:none"
           id="path3091"
           inkscape:connector-curvature="0" />
      </g>
      <g
         id="g3093"
         transform="translate(438.0132,272.9845)">
        <path
           d="m 0,0 c 0,0 3.735,0 6.092,1.556 0,0 -0.736,-1.734 -1.053,-1.868 0,0 3.143,0.497 5.571,3.211 0,0 1.291,1.38 2.671,2.713 1.508,1.459 3.114,2.326 3.114,2.326 0,0 3.627,2.32 8.252,2.115 0,0 -4.252,1.433 -8.344,-1.19 C 12.208,6.24 10.801,4.542 9.749,3.597 8.989,2.904 8.215,2.538 8.215,2.538 c 0,0 0.627,1.77 0.732,2.697 C 8.947,5.235 5.809,0.586 0,0"
           style="fill:#6b1841;fill-opacity:1;fill-rule:nonzero;stroke:none"
           id="path3095"
           inkscape:connector-curvature="0" />
      </g>
      <g
         id="g3097"
         transform="translate(466.9562,268.1125)">
        <path
           d="m 0,0 c 0,0 -2.237,2.165 -6.284,2.512 l 0.211,-0.156 c 1.052,-0.798 1.509,-1.316 1.509,-1.316 -0.27,0.034 -0.27,0.034 0,0 C -2.603,0.79 -1.07,0.371 0,0"
           style="fill:#6b1841;fill-opacity:1;fill-rule:nonzero;stroke:none"
           id="path3099"
           inkscape:connector-curvature="0" />
      </g>
      <g
         id="g3101"
         transform="translate(427.5428,317.8961)">
        <path
           d="m 0,0 c 0,0 1.841,0.984 2.953,-0.074 1.114,-1.057 0.086,-1.723 0.086,-1.723 l -1.535,0.303 c 0,0 0.107,0.458 -0.381,0.903 C 0.632,-0.148 0,0 0,0"
           style="fill:#00a363;fill-opacity:1;fill-rule:nonzero;stroke:none"
           id="path3103"
           inkscape:connector-curvature="0" />
      </g>
      <g
         id="g3105"
         transform="translate(423.1913,313.5074)">
        <path
           d="m 0,0 c 0,0 0.633,1.521 1.799,1.803 1.163,0.283 1.769,-0.132 1.769,-0.132 0,0 0.342,-0.641 0.252,-1.16 L 3.73,-0.007 2.262,-0.25 c 0,0 -0.36,0.273 -1.1,0.395 C 0.416,0.267 0,0 0,0"
           style="fill:#00a363;fill-opacity:1;fill-rule:nonzero;stroke:none"
           id="path3107"
           inkscape:connector-curvature="0" />
      </g>
      <g
         id="g3109"
         transform="translate(429.1727,281.0654)">
        <path
           d="m 0,0 c 0,0 -0.365,1.598 -2.065,1.111 -1.704,-0.494 -2.159,-1.82 -2.159,-1.82 0,0 1.049,0.544 1.565,0.15 C -2.144,-0.956 -1.8,-1.09 -1.8,-1.09 L -0.44,-0.595 0,0 z"
           style="fill:#00a363;fill-opacity:1;fill-rule:nonzero;stroke:none"
           id="path3111"
           inkscape:connector-curvature="0" />
      </g>
      <g
         id="g3113"
         transform="translate(428.7596,276.8984)">
        <path
           d="m 0,0 c 0,0 -0.949,1.153 -1.74,0.485 -2.192,-1.843 -0.483,-3.197 -0.483,-3.197 0,0 0.547,1.104 1.155,1.095 0.609,-0.008 0.697,-0.002 0.697,-0.002 L 0,0 z"
           style="fill:#00a363;fill-opacity:1;fill-rule:nonzero;stroke:none"
           id="path3115"
           inkscape:connector-curvature="0" />
      </g>
      <g
         id="g3117"
         transform="translate(429.9648,273.3925)">
        <path
           d="m 0,0 c 0,0 0.141,-1.217 0.826,-1.91 0.684,-0.701 1.619,-0.865 1.619,-0.865 0,0 -0.347,0.691 -0.077,1.199 0.267,0.515 0.403,0.932 0.403,0.932 0,0 -0.58,0.216 -0.832,0.778 -0.253,0.564 -0.186,0.672 -0.186,0.672 0,0 -0.651,0.081 -1.136,-0.171 C 0.137,0.383 0,0 0,0"
           style="fill:#00a363;fill-opacity:1;fill-rule:nonzero;stroke:none"
           id="path3119"
           inkscape:connector-curvature="0" />
      </g>
      <g
         id="g3121"
         transform="translate(446.0663,249.4465)">
        <path
           d="m 0,0 c -0.197,0.386 -1.166,1.137 -2.693,0.296 -1.487,-0.817 -1.16,-2.068 -1.16,-2.068 0,0 1.009,0.647 1.494,0.361 0.48,-0.289 0.607,-0.419 0.607,-0.419 0,0 0.186,0.35 0.729,0.397 0.54,0.042 0.998,-0.094 0.998,-0.094 0,0 0.222,1.145 0.025,1.527"
           style="fill:#00a363;fill-opacity:1;fill-rule:nonzero;stroke:none"
           id="path3123"
           inkscape:connector-curvature="0" />
      </g>
      <g
         id="g3125"
         transform="translate(445.5522,244.6705)">
        <path
           d="m 0,0 c 0,0 -0.929,1.163 -2.023,0.495 -1.086,-0.673 -1.129,-1.813 -1.163,-2.322 -0.034,-0.46 0.436,-1.484 0.436,-1.484 0,0 0.248,0.966 0.84,1.154 0.596,0.198 0.857,0.158 0.857,0.158 0,0 -0.072,0.723 0.348,1.197 C -0.365,-0.412 0,0 0,0"
           style="fill:#00a363;fill-opacity:1;fill-rule:nonzero;stroke:none"
           id="path3127"
           inkscape:connector-curvature="0" />
      </g>
      <g
         id="g3129"
         transform="translate(448.8633,240.1005)">
        <path
           d="M 0,0 C -0.092,0.108 -0.14,0.197 -0.17,0.271 -0.24,0.415 -0.318,0.595 -0.391,0.81 -0.516,1.194 -0.449,1.577 -0.332,1.898 -0.83,1.951 -2.508,2.02 -2.274,0.383 c 0.233,-1.589 2.165,-2.14 2.165,-2.14 0,0 -0.256,0.943 0.06,1.292 0.149,0.171 0.227,0.224 0.266,0.23 C 0.172,-0.201 0.094,-0.127 0,0"
           style="fill:#00a363;fill-opacity:1;fill-rule:nonzero;stroke:none"
           id="path3131"
           inkscape:connector-curvature="0" />
      </g>
      <g
         id="g3133"
         transform="translate(465.3942,235.8655)">
        <path
           d="m 0,0 c 0,0 -0.607,1.065 -1.601,0.862 -2.322,-0.472 -2.158,-3.017 -2.158,-3.017 0,0 0.806,0.597 1.632,0.664 0.586,0.042 0.805,-0.022 0.805,-0.022 0,0 -0.037,0.633 0.493,1.141 C -0.279,0.156 0,0 0,0"
           style="fill:#00a363;fill-opacity:1;fill-rule:nonzero;stroke:none"
           id="path3135"
           inkscape:connector-curvature="0" />
      </g>
      <g
         id="g3137"
         transform="translate(465.5202,231.7445)">
        <path
           d="m 0,0 c 0,0 -1.688,0.998 -2.569,-0.676 -0.806,-1.54 -0.076,-2.259 0.131,-2.623 0.209,-0.356 0.5,-0.552 0.5,-0.552 0,0 -0.049,0.328 0.402,0.876 0.475,0.584 1.029,0.709 1.029,0.709 0,0 -0.193,0.644 -0.06,1.241 C -0.384,-0.205 0,0 0,0"
           style="fill:#00a363;fill-opacity:1;fill-rule:nonzero;stroke:none"
           id="path3139"
           inkscape:connector-curvature="0" />
      </g>
      <g
         id="g3141"
         transform="translate(467.8962,226.9125)">
        <path
           d="m 0,0 c -0.099,-0.175 -0.358,-0.447 -0.15,-1.234 0.271,-1.019 1.976,-1.618 1.976,-1.618 0,0 -0.384,1.039 0.175,1.496 0.191,0.153 0.22,0.292 0.22,0.292 l -0.322,0.133 c 0,0 -0.502,0.147 -0.536,0.653 C 1.328,0.23 1.728,0.683 1.728,0.683 1.728,0.683 0.428,0.756 0,0"
           style="fill:#00a363;fill-opacity:1;fill-rule:nonzero;stroke:none"
           id="path3143"
           inkscape:connector-curvature="0" />
      </g>
      <g
         id="g3145"
         transform="translate(425.6777,309.2975)">
        <path
           d="m 0,0 c -0.232,0.207 -0.619,0.42 -0.824,0.368 0,0 -1.262,-0.32 -1.613,-1.075 -0.35,-0.755 -0.119,-1.659 -0.119,-1.659 0,0 0.704,0.747 1.146,0.846 0.474,0.103 0.924,-0.06 0.924,-0.06 0,0 -0.11,0.469 0.152,0.695 0.133,0.116 0.248,0.227 0.363,0.358 0.09,0.1 0.223,0.179 0.145,0.324 L 0,0"
           style="fill:#00a363;fill-opacity:1;fill-rule:nonzero;stroke:none"
           id="path3147"
           inkscape:connector-curvature="0" />
      </g>
      <g
         id="g3149"
         transform="translate(482.6392,337.5035)">
        <path
           d="m 0,0 -1.759,5.902 c 0,0 1.917,-0.915 4.881,-0.915 2.965,0 4.887,0.915 4.887,0.915 L 6.245,0 3.122,0.274 0,0 z"
           style="fill:#6b1841;fill-opacity:1;fill-rule:nonzero;stroke:none"
           id="path3151"
           inkscape:connector-curvature="0" />
      </g>
      <g
         id="g3153"
         transform="translate(493.6162,332.9566)">
        <path
           d="m 0,0 c 0.413,0.593 0.686,1.229 0.788,1.872 0.135,0.643 0.125,1.307 -0.049,1.957 -0.424,1.588 -1.504,2.769 -3.401,3.232 0.797,-0.7 1.336,-1.459 1.614,-2.5 0.213,-0.807 0.219,-1.619 0.052,-2.399 -0.05,0.231 -0.398,0.684 -0.669,0.829 -0.256,0.138 -0.479,0.179 -0.594,0.19 0.117,-0.966 -0.025,-1.973 -0.465,-2.913 -0.824,-1.757 -2.475,-2.857 -4.281,-3.065 l -0.148,-0.023 0,1.38 c 2.187,0.279 3.867,1.831 3.867,3.722 0,2.088 -2.046,3.781 -4.569,3.781 -2.519,0 -4.566,-1.693 -4.566,-3.781 0,-1.891 1.681,-3.443 3.867,-3.723 l 0,-1.377 -0.131,0.021 c -1.803,0.208 -3.459,1.308 -4.279,3.065 -0.44,0.94 -0.582,1.947 -0.467,2.913 -0.115,-0.011 -0.336,-0.052 -0.593,-0.19 -0.272,-0.145 -0.62,-0.598 -0.668,-0.829 -0.169,0.78 -0.165,1.592 0.052,2.399 0.278,1.041 0.817,1.8 1.612,2.5 -1.897,-0.463 -2.979,-1.644 -3.403,-3.232 -0.172,-0.65 -0.18,-1.314 -0.045,-1.957 0.098,-0.643 0.373,-1.279 0.789,-1.872 -0.555,-0.03 -1.089,-0.287 -1.596,-0.878 0.283,0.08 0.555,0.127 0.824,0.137 l 0.19,0 0.019,0 c 0.224,-0.008 0.45,-0.044 0.684,-0.114 0.334,-0.131 0.821,-0.422 1.784,-1.047 0.699,-0.45 1.41,-0.768 2.013,-0.984 1.1,-0.419 2.455,-0.666 3.924,-0.666 1.463,0 2.816,0.245 3.914,0.661 0.606,0.214 1.32,0.536 2.025,0.989 0.961,0.625 1.446,0.916 1.781,1.047 0.235,0.07 0.462,0.106 0.686,0.114 l 0.02,0 0.187,0 C 1.04,-0.751 1.311,-0.798 1.593,-0.878 1.085,-0.287 0.553,-0.03 0,0"
           style="fill:#00a363;fill-opacity:1;fill-rule:nonzero;stroke:none"
           id="path3155"
           inkscape:connector-curvature="0" />
      </g>
      <g
         id="g3157"
         transform="translate(517.0352,325.7887)">
        <path
           d="m 0,0 -1.761,5.902 c 0,0 1.92,-0.911 4.883,-0.911 2.964,0 4.886,0.911 4.886,0.911 L 6.245,0 3.122,0.276 0,0 z"
           style="fill:#6b1841;fill-opacity:1;fill-rule:nonzero;stroke:none"
           id="path3159"
           inkscape:connector-curvature="0" />
      </g>
      <g
         id="g3161"
         transform="translate(528.0092,321.2428)">
        <path
           d="M 0,0 C 0.416,0.594 0.69,1.229 0.789,1.874 0.924,2.516 0.916,3.179 0.743,3.832 0.321,5.42 -0.761,6.6 -2.658,7.06 -1.863,6.361 -1.323,5.602 -1.048,4.562 -0.832,3.756 -0.827,2.942 -0.993,2.163 -1.043,2.396 -1.391,2.847 -1.664,2.993 -1.92,3.132 -2.142,3.169 -2.257,3.184 -2.14,2.219 -2.281,1.211 -2.723,0.268 -3.545,-1.485 -5.198,-2.59 -7.002,-2.797 l -0.148,-0.023 0,1.38 c 2.189,0.282 3.866,1.833 3.866,3.722 0,2.09 -2.046,3.782 -4.568,3.782 -2.521,0 -4.564,-1.692 -4.564,-3.782 0,-1.889 1.681,-3.442 3.868,-3.723 l 0,-1.377 -0.135,0.021 c -1.803,0.207 -3.456,1.312 -4.279,3.065 -0.44,0.943 -0.583,1.951 -0.467,2.916 -0.114,-0.015 -0.338,-0.052 -0.592,-0.191 -0.274,-0.146 -0.621,-0.597 -0.67,-0.83 -0.168,0.779 -0.162,1.593 0.051,2.399 0.28,1.04 0.818,1.799 1.615,2.498 -1.898,-0.46 -2.979,-1.64 -3.4,-3.228 -0.176,-0.653 -0.182,-1.316 -0.049,-1.958 0.097,-0.645 0.373,-1.28 0.788,-1.874 -0.553,-0.03 -1.087,-0.284 -1.595,-0.876 0.281,0.078 0.554,0.127 0.826,0.139 l 0.187,0 0.018,0 c 0.226,-0.01 0.452,-0.046 0.689,-0.117 0.332,-0.133 0.817,-0.422 1.78,-1.047 0.697,-0.452 1.41,-0.769 2.013,-0.983 1.102,-0.419 2.457,-0.666 3.925,-0.666 1.463,0 2.816,0.245 3.914,0.662 0.606,0.214 1.321,0.531 2.026,0.987 0.96,0.625 1.446,0.914 1.78,1.047 0.235,0.071 0.463,0.107 0.686,0.117 l 0.019,0 0.189,0 C 1.041,-0.749 1.314,-0.798 1.598,-0.876 1.09,-0.284 0.554,-0.03 0,0"
           style="fill:#00a363;fill-opacity:1;fill-rule:nonzero;stroke:none"
           id="path3163"
           inkscape:connector-curvature="0" />
      </g>
      <g
         id="g3165"
         transform="translate(519.4001,293.3164)">
        <path
           d="m 0,0 -1.762,5.901 c 0,0 1.922,-0.912 4.883,-0.912 2.967,0 4.887,0.912 4.887,0.912 L 6.244,0 3.121,0.276 0,0 z"
           style="fill:#6b1841;fill-opacity:1;fill-rule:nonzero;stroke:none"
           id="path3167"
           inkscape:connector-curvature="0" />
      </g>
      <g
         id="g3169"
         transform="translate(530.3751,288.7704)">
        <path
           d="M 0,0 C 0.416,0.592 0.691,1.225 0.789,1.872 0.922,2.513 0.916,3.177 0.741,3.829 0.316,5.42 -0.762,6.596 -2.66,7.059 -1.865,6.357 -1.325,5.598 -1.046,4.557 -0.831,3.755 -0.828,2.941 -0.995,2.16 -1.044,2.39 -1.393,2.844 -1.663,2.99 -1.919,3.129 -2.143,3.169 -2.255,3.179 -2.143,2.215 -2.283,1.208 -2.725,0.266 -3.545,-1.49 -5.199,-2.587 -7.003,-2.797 l -0.148,-0.025 0,1.379 c 2.189,0.283 3.866,1.834 3.866,3.724 0,2.089 -2.045,3.781 -4.569,3.781 -2.519,0 -4.562,-1.692 -4.562,-3.781 0,-1.891 1.679,-3.443 3.866,-3.724 l 0,-1.376 -0.134,0.022 c -1.803,0.21 -3.457,1.307 -4.279,3.063 -0.44,0.942 -0.583,1.949 -0.467,2.913 -0.113,-0.01 -0.336,-0.05 -0.594,-0.189 -0.272,-0.146 -0.619,-0.6 -0.668,-0.83 -0.168,0.781 -0.162,1.595 0.053,2.397 0.277,1.041 0.817,1.8 1.613,2.502 -1.897,-0.463 -2.978,-1.639 -3.4,-3.23 -0.176,-0.652 -0.182,-1.316 -0.049,-1.957 0.099,-0.647 0.371,-1.28 0.789,-1.872 -0.555,-0.033 -1.09,-0.287 -1.597,-0.878 0.283,0.08 0.556,0.127 0.828,0.138 l 0.185,-0.001 0.021,0 c 0.225,-0.008 0.453,-0.043 0.686,-0.117 0.336,-0.131 0.818,-0.422 1.78,-1.046 0.7,-0.453 1.411,-0.766 2.015,-0.984 1.1,-0.418 2.457,-0.665 3.927,-0.665 1.46,0 2.813,0.247 3.911,0.66 0.605,0.221 1.32,0.535 2.027,0.989 0.959,0.624 1.445,0.915 1.778,1.046 0.236,0.074 0.463,0.109 0.689,0.117 l 0.018,0 0.187,0.001 C 1.041,-0.751 1.312,-0.798 1.597,-0.878 1.089,-0.287 0.552,-0.033 0,0"
           style="fill:#00a363;fill-opacity:1;fill-rule:nonzero;stroke:none"
           id="path3171"
           inkscape:connector-curvature="0" />
      </g>
      <g
         id="g3173"
         transform="translate(509.9562,260.8495)">
        <path
           d="m 0,0 -1.762,5.904 c 0,0 1.92,-0.912 4.885,-0.912 2.962,0 4.884,0.912 4.884,0.912 L 6.245,0 3.123,0.276 0,0 z"
           style="fill:#6b1841;fill-opacity:1;fill-rule:nonzero;stroke:none"
           id="path3175"
           inkscape:connector-curvature="0" />
      </g>
      <g
         id="g3177"
         transform="translate(520.9312,256.3035)">
        <path
           d="M 0,0 C 0.416,0.593 0.69,1.229 0.789,1.876 0.922,2.516 0.914,3.18 0.74,3.831 0.318,5.42 -0.763,6.599 -2.66,7.059 -1.865,6.362 -1.324,5.601 -1.047,4.561 -0.834,3.758 -0.828,2.943 -0.996,2.164 -1.043,2.392 -1.392,2.848 -1.664,2.993 -1.922,3.129 -2.142,3.171 -2.259,3.183 -2.139,2.22 -2.283,1.21 -2.726,0.269 -3.547,-1.483 -5.199,-2.586 -7.006,-2.795 l -0.146,-0.023 0,1.378 c 2.185,0.282 3.865,1.832 3.865,3.722 0,2.091 -2.045,3.783 -4.564,3.783 -2.524,0 -4.567,-1.692 -4.567,-3.783 0,-1.89 1.678,-3.44 3.867,-3.722 l 0,-1.376 -0.133,0.021 c -1.804,0.209 -3.458,1.312 -4.279,3.064 -0.441,0.941 -0.584,1.951 -0.466,2.914 -0.116,-0.012 -0.338,-0.054 -0.595,-0.19 -0.273,-0.145 -0.619,-0.601 -0.668,-0.829 -0.167,0.779 -0.163,1.594 0.051,2.397 0.278,1.04 0.817,1.801 1.614,2.498 -1.898,-0.46 -2.979,-1.639 -3.401,-3.228 -0.174,-0.651 -0.181,-1.315 -0.047,-1.955 0.098,-0.647 0.373,-1.283 0.789,-1.876 -0.554,-0.029 -1.088,-0.285 -1.597,-0.876 0.283,0.082 0.554,0.129 0.826,0.141 l 0.189,0 0.018,0 c 0.225,-0.009 0.45,-0.046 0.688,-0.118 0.333,-0.134 0.818,-0.421 1.779,-1.049 0.699,-0.451 1.41,-0.766 2.015,-0.983 1.1,-0.417 2.456,-0.664 3.924,-0.664 1.461,0 2.816,0.244 3.913,0.66 0.607,0.217 1.324,0.531 2.025,0.987 0.963,0.628 1.447,0.915 1.781,1.049 0.236,0.072 0.463,0.109 0.688,0.118 l 0.019,0 0.186,0 C 1.041,-0.747 1.313,-0.794 1.594,-0.876 1.088,-0.285 0.553,-0.029 0,0"
           style="fill:#00a363;fill-opacity:1;fill-rule:nonzero;stroke:none"
           id="path3179"
           inkscape:connector-curvature="0" />
      </g>
      <g
         id="g3181"
         transform="translate(412.3066,260.8524)">
        <path
           d="m 0,0 -1.764,5.903 c 0,0 1.92,-0.914 4.886,-0.914 2.962,0 4.883,0.914 4.883,0.914 L 6.242,0 3.122,0.275 0,0 z"
           style="fill:#6b1841;fill-opacity:1;fill-rule:nonzero;stroke:none"
           id="path3183"
           inkscape:connector-curvature="0" />
      </g>
      <g
         id="g3185"
         transform="translate(423.2792,256.3055)">
        <path
           d="M 0,0 C 0.414,0.593 0.689,1.227 0.79,1.874 0.922,2.514 0.915,3.18 0.74,3.829 0.32,5.42 -0.762,6.597 -2.66,7.059 -1.865,6.361 -1.325,5.6 -1.046,4.559 -0.832,3.755 -0.828,2.944 -0.997,2.162 -1.044,2.39 -1.393,2.846 -1.664,2.991 -1.92,3.129 -2.143,3.171 -2.258,3.18 -2.143,2.218 -2.284,1.208 -2.725,0.266 -3.547,-1.485 -5.199,-2.586 -7.005,-2.797 l -0.148,-0.023 0,1.378 c 2.188,0.282 3.868,1.833 3.868,3.724 0,2.088 -2.045,3.782 -4.565,3.782 -2.525,0 -4.567,-1.694 -4.567,-3.782 0,-1.891 1.677,-3.441 3.864,-3.724 l 0,-1.376 -0.131,0.021 c -1.805,0.211 -3.459,1.312 -4.279,3.063 -0.441,0.942 -0.584,1.952 -0.467,2.914 -0.115,-0.009 -0.338,-0.051 -0.593,-0.189 -0.273,-0.145 -0.622,-0.601 -0.668,-0.829 -0.168,0.782 -0.164,1.593 0.05,2.397 0.279,1.041 0.82,1.802 1.615,2.5 -1.898,-0.462 -2.979,-1.639 -3.402,-3.23 -0.174,-0.649 -0.182,-1.315 -0.047,-1.955 0.097,-0.647 0.372,-1.281 0.786,-1.874 -0.551,-0.031 -1.084,-0.287 -1.593,-0.878 0.283,0.084 0.555,0.129 0.827,0.14 l 0.187,0 0.018,0 c 0.225,-0.009 0.451,-0.045 0.689,-0.118 0.333,-0.131 0.817,-0.42 1.78,-1.046 0.698,-0.452 1.409,-0.768 2.011,-0.985 1.103,-0.417 2.46,-0.664 3.926,-0.664 1.463,0 2.815,0.247 3.914,0.663 0.606,0.214 1.325,0.53 2.026,0.986 0.963,0.626 1.446,0.915 1.78,1.046 0.237,0.073 0.462,0.109 0.686,0.118 l 0.019,0 0.189,0 C 1.04,-0.749 1.312,-0.794 1.596,-0.878 1.086,-0.287 0.554,-0.031 0,0"
           style="fill:#00a363;fill-opacity:1;fill-rule:nonzero;stroke:none"
           id="path3187"
           inkscape:connector-curvature="0" />
      </g>
      <g
         id="g3189"
         transform="translate(431.6756,231.4285)">
        <path
           d="m 0,0 -1.762,5.904 c 0,0 1.918,-0.914 4.883,-0.914 2.963,0 4.884,0.914 4.884,0.914 L 6.243,0 3.121,0.275 0,0 z"
           style="fill:#6b1841;fill-opacity:1;fill-rule:nonzero;stroke:none"
           id="path3191"
           inkscape:connector-curvature="0" />
      </g>
      <g
         id="g3193"
         transform="translate(442.6492,226.8816)">
        <path
           d="M 0,0 C 0.413,0.594 0.689,1.229 0.789,1.874 0.92,2.515 0.914,3.181 0.741,3.829 0.319,5.42 -0.765,6.598 -2.661,7.061 c 0.794,-0.701 1.335,-1.459 1.613,-2.5 0.214,-0.806 0.219,-1.617 0.05,-2.399 -0.046,0.23 -0.396,0.685 -0.667,0.829 -0.256,0.138 -0.477,0.18 -0.594,0.19 0.117,-0.962 -0.025,-1.973 -0.465,-2.913 -0.824,-1.753 -2.477,-2.855 -4.283,-3.065 l -0.145,-0.023 0,1.379 c 2.188,0.28 3.866,1.834 3.866,3.723 0,2.088 -2.044,3.782 -4.566,3.782 -2.522,0 -4.566,-1.694 -4.566,-3.782 0,-1.889 1.678,-3.44 3.862,-3.723 l 0,-1.377 -0.128,0.021 c -1.804,0.21 -3.459,1.312 -4.28,3.065 -0.441,0.94 -0.584,1.951 -0.469,2.913 -0.113,-0.01 -0.335,-0.052 -0.591,-0.19 -0.272,-0.144 -0.621,-0.599 -0.666,-0.829 -0.171,0.782 -0.166,1.593 0.048,2.399 0.278,1.041 0.819,1.799 1.616,2.5 C -14.925,6.598 -16.007,5.42 -16.429,3.829 -16.6,3.181 -16.61,2.515 -16.475,1.874 -16.378,1.229 -16.102,0.594 -15.69,0 c -0.55,-0.03 -1.084,-0.287 -1.592,-0.878 0.282,0.082 0.555,0.129 0.825,0.141 l 0.189,0 0.017,0 c 0.225,-0.01 0.451,-0.046 0.688,-0.118 0.332,-0.131 0.818,-0.421 1.781,-1.047 0.699,-0.453 1.41,-0.768 2.012,-0.986 1.101,-0.417 2.459,-0.664 3.925,-0.664 1.461,0 2.815,0.247 3.914,0.664 0.608,0.214 1.323,0.531 2.025,0.986 0.963,0.626 1.447,0.916 1.781,1.047 0.235,0.072 0.462,0.108 0.687,0.118 l 0.017,0 0.192,0 C 1.039,-0.749 1.31,-0.796 1.595,-0.878 1.085,-0.287 0.553,-0.03 0,0"
           style="fill:#00a363;fill-opacity:1;fill-rule:nonzero;stroke:none"
           id="path3195"
           inkscape:connector-curvature="0" />
      </g>
      <g
         id="g3197"
         transform="translate(490.7012,231.4285)">
        <path
           d="m 0,0 -1.762,5.904 c 0,0 1.918,-0.914 4.883,-0.914 2.963,0 4.884,0.914 4.884,0.914 L 6.244,0 3.121,0.275 0,0 z"
           style="fill:#6b1841;fill-opacity:1;fill-rule:nonzero;stroke:none"
           id="path3199"
           inkscape:connector-curvature="0" />
      </g>
      <g
         id="g3201"
         transform="translate(501.6742,226.8816)">
        <path
           d="M 0,0 C 0.414,0.594 0.689,1.229 0.789,1.874 0.92,2.515 0.914,3.181 0.742,3.829 0.32,5.42 -0.764,6.598 -2.661,7.061 -1.867,6.36 -1.326,5.602 -1.047,4.561 -0.834,3.755 -0.829,2.944 -0.998,2.162 -1.043,2.392 -1.393,2.847 -1.665,2.991 -1.92,3.129 -2.141,3.171 -2.258,3.181 -2.141,2.219 -2.284,1.208 -2.723,0.268 -3.545,-1.485 -5.201,-2.587 -7.006,-2.797 l -0.146,-0.023 0,1.379 c 2.189,0.28 3.866,1.834 3.866,3.723 0,2.088 -2.044,3.782 -4.566,3.782 -2.522,0 -4.566,-1.694 -4.566,-3.782 0,-1.889 1.678,-3.44 3.863,-3.723 l 0,-1.377 -0.127,0.021 c -1.806,0.21 -3.461,1.312 -4.28,3.065 -0.443,0.94 -0.585,1.951 -0.468,2.913 -0.115,-0.01 -0.338,-0.052 -0.594,-0.19 -0.271,-0.144 -0.621,-0.599 -0.666,-0.829 -0.171,0.782 -0.166,1.593 0.049,2.399 0.277,1.041 0.819,1.799 1.615,2.5 -1.898,-0.463 -2.98,-1.641 -3.402,-3.232 -0.172,-0.648 -0.182,-1.314 -0.047,-1.955 0.098,-0.645 0.373,-1.28 0.785,-1.874 -0.55,-0.03 -1.084,-0.287 -1.592,-0.878 0.282,0.082 0.555,0.129 0.826,0.141 l 0.188,0 0.017,0 c 0.225,-0.01 0.452,-0.046 0.688,-0.118 0.334,-0.131 0.819,-0.421 1.781,-1.047 0.699,-0.453 1.41,-0.768 2.012,-0.986 1.102,-0.417 2.459,-0.664 3.926,-0.664 1.463,0 2.814,0.247 3.914,0.664 0.607,0.214 1.322,0.531 2.024,0.986 0.963,0.626 1.447,0.916 1.781,1.047 0.236,0.072 0.462,0.108 0.687,0.118 l 0.018,0 0.191,0 C 1.039,-0.749 1.31,-0.796 1.595,-0.878 1.085,-0.287 0.553,-0.03 0,0"
           style="fill:#00a363;fill-opacity:1;fill-rule:nonzero;stroke:none"
           id="path3203"
           inkscape:connector-curvature="0" />
      </g>
      <g
         id="g3205"
         transform="translate(460.8902,208.2106)">
        <path
           d="m 0,0 -1.761,5.901 c 0,0 1.918,-0.914 4.883,-0.914 2.962,0 4.883,0.914 4.883,0.914 L 6.244,0 3.122,0.274 0,0 z"
           style="fill:#6b1841;fill-opacity:1;fill-rule:nonzero;stroke:none"
           id="path3207"
           inkscape:connector-curvature="0" />
      </g>
      <g
         id="g3209"
         transform="translate(471.8642,203.6636)">
        <path
           d="M 0,0 C 0.414,0.593 0.689,1.227 0.789,1.872 0.923,2.515 0.916,3.178 0.742,3.829 0.319,5.418 -0.762,6.595 -2.659,7.061 -1.864,6.359 -1.325,5.602 -1.047,4.559 -0.832,3.753 -0.829,2.943 -0.995,2.162 -1.043,2.392 -1.393,2.844 -1.665,2.991 -1.92,3.127 -2.142,3.169 -2.258,3.178 -2.142,2.215 -2.284,1.208 -2.723,0.266 -3.547,-1.489 -5.198,-2.59 -7.005,-2.799 l -0.146,-0.025 0,1.381 c 2.187,0.28 3.867,1.834 3.867,3.725 0,2.086 -2.045,3.781 -4.568,3.781 -2.522,0 -4.566,-1.695 -4.566,-3.781 0,-1.891 1.679,-3.443 3.865,-3.723 l 0,-1.377 -0.131,0.019 c -1.803,0.209 -3.458,1.31 -4.279,3.065 -0.44,0.942 -0.583,1.949 -0.467,2.912 -0.113,-0.009 -0.337,-0.051 -0.593,-0.187 -0.273,-0.147 -0.621,-0.599 -0.668,-0.829 -0.169,0.781 -0.166,1.591 0.051,2.397 0.278,1.043 0.819,1.8 1.614,2.502 -1.899,-0.466 -2.979,-1.643 -3.402,-3.232 -0.173,-0.651 -0.182,-1.314 -0.048,-1.957 0.098,-0.645 0.374,-1.279 0.789,-1.872 -0.552,-0.033 -1.088,-0.29 -1.595,-0.88 0.282,0.082 0.555,0.129 0.826,0.14 l 0.187,0 0.019,0 c 0.225,-0.009 0.452,-0.047 0.686,-0.115 0.334,-0.135 0.819,-0.423 1.782,-1.047 0.699,-0.455 1.41,-0.77 2.013,-0.985 1.103,-0.419 2.458,-0.667 3.926,-0.667 1.462,0 2.815,0.248 3.912,0.664 0.608,0.214 1.322,0.531 2.026,0.988 0.963,0.624 1.446,0.912 1.781,1.047 0.237,0.068 0.463,0.106 0.688,0.115 l 0.017,0 0.189,0 C 1.041,-0.751 1.311,-0.798 1.597,-0.88 1.085,-0.29 0.556,-0.033 0,0"
           style="fill:#00a363;fill-opacity:1;fill-rule:nonzero;stroke:none"
           id="path3211"
           inkscape:connector-curvature="0" />
      </g>
      <g
         id="g3213"
         transform="translate(402.6894,293.3164)">
        <path
           d="m 0,0 -1.761,5.901 c 0,0 1.919,-0.912 4.884,-0.912 2.965,0 4.883,0.912 4.883,0.912 L 6.246,0 3.123,0.276 0,0 z"
           style="fill:#6b1841;fill-opacity:1;fill-rule:nonzero;stroke:none"
           id="path3215"
           inkscape:connector-curvature="0" />
      </g>
      <g
         id="g3217"
         transform="translate(413.664,288.7704)">
        <path
           d="M 0,0 C 0.416,0.592 0.69,1.225 0.791,1.872 0.923,2.513 0.916,3.177 0.742,3.829 0.32,5.42 -0.762,6.596 -2.659,7.059 -1.863,6.357 -1.324,5.598 -1.045,4.557 -0.832,3.755 -0.826,2.941 -0.994,2.16 -1.043,2.39 -1.392,2.844 -1.664,2.99 -1.92,3.129 -2.143,3.169 -2.258,3.179 -2.139,2.215 -2.282,1.208 -2.723,0.266 -3.545,-1.49 -5.197,-2.587 -7.002,-2.797 l -0.149,-0.025 0,1.379 c 2.188,0.282 3.868,1.834 3.868,3.724 0,2.089 -2.047,3.781 -4.57,3.781 -2.52,0 -4.565,-1.692 -4.565,-3.781 0,-1.89 1.68,-3.442 3.867,-3.724 l 0,-1.376 -0.133,0.022 c -1.802,0.21 -3.459,1.307 -4.279,3.063 -0.44,0.942 -0.58,1.949 -0.467,2.913 -0.113,-0.01 -0.337,-0.05 -0.591,-0.189 -0.272,-0.146 -0.622,-0.6 -0.67,-0.83 -0.166,0.781 -0.162,1.595 0.052,2.397 0.278,1.041 0.817,1.8 1.613,2.502 -1.898,-0.463 -2.978,-1.639 -3.402,-3.23 -0.175,-0.652 -0.18,-1.316 -0.048,-1.957 0.099,-0.647 0.375,-1.28 0.79,-1.872 -0.552,-0.033 -1.088,-0.287 -1.595,-0.878 0.283,0.08 0.554,0.127 0.824,0.138 l 0.189,-0.001 0.018,0 c 0.226,-0.008 0.451,-0.043 0.687,-0.117 0.335,-0.131 0.822,-0.422 1.781,-1.046 0.698,-0.453 1.411,-0.766 2.014,-0.984 1.102,-0.418 2.457,-0.665 3.928,-0.665 1.461,0 2.814,0.247 3.912,0.66 0.607,0.221 1.322,0.535 2.024,0.989 0.962,0.624 1.447,0.915 1.781,1.046 0.234,0.074 0.461,0.109 0.687,0.117 l 0.02,0 0.186,0.001 C 1.041,-0.751 1.314,-0.798 1.596,-0.878 1.088,-0.287 0.555,-0.033 0,0"
           style="fill:#00a363;fill-opacity:1;fill-rule:nonzero;stroke:none"
           id="path3219"
           inkscape:connector-curvature="0" />
      </g>
      <g
         id="g3221"
         transform="translate(404.9804,325.6471)">
        <path
           d="m 0,0 -1.763,5.901 c 0,0 1.921,-0.912 4.886,-0.912 2.961,0 4.883,0.912 4.883,0.912 L 6.242,0 3.123,0.275 0,0 z"
           style="fill:#6b1841;fill-opacity:1;fill-rule:nonzero;stroke:none"
           id="path3223"
           inkscape:connector-curvature="0" />
      </g>
      <g
         id="g3225"
         transform="translate(415.955,321.1002)">
        <path
           d="M 0,0 C 0.412,0.594 0.69,1.227 0.789,1.872 0.92,2.515 0.916,3.177 0.74,3.831 0.318,5.418 -0.762,6.599 -2.662,7.06 -1.866,6.359 -1.324,5.599 -1.049,4.56 -0.834,3.756 -0.828,2.94 -0.996,2.162 -1.045,2.394 -1.393,2.847 -1.666,2.991 -1.922,3.131 -2.143,3.167 -2.258,3.181 -2.14,2.216 -2.282,1.21 -2.727,0.267 -3.547,-1.488 -5.199,-2.587 -7.006,-2.799 l -0.146,-0.023 0,1.38 c 2.187,0.281 3.867,1.834 3.867,3.724 0,2.088 -2.045,3.781 -4.567,3.781 -2.523,0 -4.566,-1.693 -4.566,-3.781 0,-1.89 1.678,-3.442 3.865,-3.724 l 0,-1.376 -0.132,0.019 c -1.802,0.212 -3.458,1.311 -4.28,3.066 -0.44,0.943 -0.582,1.949 -0.465,2.914 -0.117,-0.014 -0.339,-0.05 -0.595,-0.19 -0.272,-0.144 -0.619,-0.597 -0.666,-0.829 -0.169,0.778 -0.163,1.594 0.049,2.398 0.278,1.039 0.819,1.799 1.616,2.5 -1.898,-0.461 -2.98,-1.642 -3.402,-3.229 -0.175,-0.654 -0.18,-1.316 -0.047,-1.959 0.098,-0.645 0.372,-1.278 0.788,-1.872 -0.553,-0.03 -1.088,-0.288 -1.596,-0.878 0.281,0.081 0.555,0.127 0.826,0.139 l 0.188,0 0.017,0 c 0.226,-0.01 0.453,-0.044 0.689,-0.117 0.333,-0.133 0.817,-0.421 1.781,-1.046 0.698,-0.452 1.409,-0.77 2.013,-0.984 1.101,-0.418 2.458,-0.666 3.925,-0.666 1.461,0 2.814,0.246 3.912,0.661 0.609,0.217 1.325,0.533 2.027,0.989 0.962,0.625 1.446,0.913 1.78,1.046 0.235,0.073 0.463,0.107 0.687,0.117 l 0.018,0 0.189,0 C 1.039,-0.751 1.312,-0.797 1.596,-0.878 1.088,-0.288 0.553,-0.03 0,0"
           style="fill:#00a363;fill-opacity:1;fill-rule:nonzero;stroke:none"
           id="path3227"
           inkscape:connector-curvature="0" />
      </g>
      <g
         id="g3229"
         transform="translate(439.3732,337.5279)">
        <path
           d="m 0,0 -1.76,5.9 c 0,0 1.922,-0.91 4.884,-0.91 2.963,0 4.883,0.91 4.883,0.91 L 6.246,0 3.124,0.275 0,0 z"
           style="fill:#6b1841;fill-opacity:1;fill-rule:nonzero;stroke:none"
           id="path3231"
           inkscape:connector-curvature="0" />
      </g>
      <g
         id="g3233"
         transform="translate(450.3502,332.9811)">
        <path
           d="M 0,0 C 0.413,0.594 0.687,1.229 0.79,1.874 0.922,2.515 0.915,3.179 0.741,3.831 0.316,5.418 -0.762,6.598 -2.66,7.061 -1.867,6.359 -1.325,5.602 -1.05,4.562 -0.832,3.755 -0.829,2.942 -0.995,2.163 -1.044,2.395 -1.393,2.848 -1.665,2.993 -1.921,3.129 -2.143,3.169 -2.259,3.181 -2.143,2.219 -2.283,1.21 -2.725,0.27 -3.546,-1.488 -5.201,-2.589 -7.007,-2.797 l -0.146,-0.023 0,1.379 c 2.185,0.281 3.866,1.834 3.866,3.723 0,2.088 -2.045,3.783 -4.565,3.783 -2.523,0 -4.567,-1.695 -4.567,-3.783 0,-1.89 1.678,-3.443 3.867,-3.723 l 0,-1.377 -0.132,0.021 c -1.803,0.208 -3.457,1.309 -4.28,3.067 -0.44,0.94 -0.584,1.949 -0.464,2.911 -0.118,-0.012 -0.338,-0.052 -0.596,-0.188 -0.274,-0.145 -0.621,-0.598 -0.668,-0.83 -0.17,0.779 -0.162,1.592 0.051,2.399 0.279,1.04 0.818,1.797 1.613,2.499 -1.897,-0.463 -2.977,-1.643 -3.398,-3.23 -0.176,-0.652 -0.183,-1.316 -0.049,-1.957 0.095,-0.645 0.373,-1.28 0.789,-1.874 -0.555,-0.029 -1.089,-0.286 -1.599,-0.877 0.284,0.08 0.558,0.128 0.83,0.14 l 0.185,0 0.019,0 c 0.225,-0.012 0.453,-0.05 0.687,-0.117 0.335,-0.133 0.819,-0.423 1.781,-1.046 0.699,-0.454 1.41,-0.77 2.013,-0.986 1.099,-0.419 2.457,-0.666 3.925,-0.666 1.463,0 2.815,0.247 3.915,0.664 0.606,0.214 1.321,0.531 2.026,0.988 0.96,0.623 1.444,0.913 1.778,1.046 0.237,0.067 0.465,0.105 0.69,0.117 l 0.015,0 0.19,0 C 1.04,-0.749 1.312,-0.797 1.595,-0.877 1.088,-0.286 0.552,-0.029 0,0"
           style="fill:#00a363;fill-opacity:1;fill-rule:nonzero;stroke:none"
           id="path3235"
           inkscape:connector-curvature="0" />
      </g>
      <g
         id="g3237"
         transform="translate(376.3124,204.2616)">
        <path
           d="m 0,0 c -1.4,-0.998 -3.363,-0.685 -4.365,0.715 -1,1.397 -0.668,3.372 0.729,4.373 1.398,1.001 3.361,0.66 4.359,-0.738 C 1.725,2.949 1.396,1.001 0,0"
           style="fill:#17233a;fill-opacity:1;fill-rule:nonzero;stroke:none"
           id="path3239"
           inkscape:connector-curvature="0" />
      </g>
      <g
         id="g3241"
         transform="translate(555.3041,204.4526)">
        <path
           d="m 0,0 c -1.402,-0.998 -3.365,-0.685 -4.364,0.715 -0.998,1.397 -0.668,3.372 0.73,4.371 1.399,1.003 3.36,0.662 4.361,-0.736 C 1.725,2.949 1.401,1.001 0,0"
           style="fill:#17233a;fill-opacity:1;fill-rule:nonzero;stroke:none"
           id="path3243"
           inkscape:connector-curvature="0" />
      </g>
      <g
         id="g3245"
         transform="translate(513.9962,167.8296)">
        <path
           d="m 0,0 c -1.397,-0.998 -3.361,-0.689 -4.361,0.713 -1.001,1.399 -0.671,3.372 0.728,4.373 1.398,1 3.361,0.659 4.36,-0.738 C 1.725,2.949 1.4,1.001 0,0"
           style="fill:#17233a;fill-opacity:1;fill-rule:nonzero;stroke:none"
           id="path3247"
           inkscape:connector-curvature="0" />
      </g>
      <g
         id="g3249"
         transform="translate(418.0781,169.1596)">
        <path
           d="m 0,0 c -1.396,-0.995 -3.361,-0.685 -4.361,0.714 -1,1.398 -0.67,3.374 0.728,4.375 1.401,0.998 3.361,0.659 4.36,-0.74 C 1.728,2.949 1.4,1.001 0,0"
           style="fill:#17233a;fill-opacity:1;fill-rule:nonzero;stroke:none"
           id="path3251"
           inkscape:connector-curvature="0" />
      </g>
      <g
         id="g3253"
         transform="translate(386.3251,203.7836)">
        <path
           d="m 0,0 5.514,-5.99 -1.601,-1.471 -3.637,3.954 -2.502,-2.3 3.33,-3.621 -1.599,-1.471 -3.329,3.619 -2.851,-2.623 3.668,-3.983 -1.6,-1.471 -5.538,6.018 L 0,0 z"
           style="fill:#17233a;fill-opacity:1;fill-rule:nonzero;stroke:none"
           id="path3255"
           inkscape:connector-curvature="0" />
      </g>
      <g
         id="g3257"
         transform="translate(397.9072,189.0706)">
        <path
           d="M 0,0 C -0.433,0.842 -1.041,1.625 -1.787,2.239 -2.517,2.844 -3.724,3.303 -4.681,2.144 -6.2,0.303 -0.9,-2.765 -3.84,-6.329 c -1.923,-2.327 -4.495,-1.692 -6.641,0.08 -1.157,0.955 -1.547,1.534 -2.387,2.66 l 1.781,1.756 c 0.404,-1.001 1.029,-1.949 1.867,-2.642 0.805,-0.665 2.227,-1.146 3.018,-0.187 1.671,2.026 -3.678,5.033 -0.776,8.551 1.959,2.373 4.518,1.721 6.39,0.176 C 0.328,3.312 1.079,2.486 1.643,1.587 L 0,0 z"
           style="fill:#17233a;fill-opacity:1;fill-rule:nonzero;stroke:none"
           id="path3259"
           inkscape:connector-curvature="0" />
      </g>
      <g
         id="g3261"
         transform="translate(403.1845,184.9276)">
        <path
           d="m 0,0 -3.149,2.383 1.31,1.731 8.505,-6.431 -1.313,-1.735 -3.149,2.383 -7.008,-9.26 -2.203,1.667 L 0,0 z"
           style="fill:#17233a;fill-opacity:1;fill-rule:nonzero;stroke:none"
           id="path3263"
           inkscape:connector-curvature="0" />
      </g>
      <g
         id="g3265"
         transform="translate(517.6422,182.6186)">
        <path
           d="M 0,0 2.061,1.323 9.522,-10.271 7.196,-11.766 1.436,-2.811 0.501,-5.67 -1.634,-4.907 0,0 z"
           style="fill:#17233a;fill-opacity:1;fill-rule:nonzero;stroke:none"
           id="path3267"
           inkscape:connector-curvature="0" />
      </g>
      <g
         id="g3269"
         transform="translate(530.9882,184.1546)">
        <path
           d="m 0,0 0.026,-0.033 c 1.952,0.463 3.337,0.053 4.32,-1.186 1.728,-2.177 0.91,-4.39 -1.221,-6.084 -2.103,-1.67 -4.529,-2.108 -6.273,0.089 -0.958,1.206 -0.94,2.581 -0.145,4.248 l -0.023,0.029 c -1.464,-0.379 -2.889,-0.049 -3.785,1.08 -1.534,1.935 -0.786,4.012 1.177,5.572 1.9,1.511 4.246,2.086 5.68,0.274 C 0.529,3.015 0.822,1.411 0.013,-0.018 L 0,0 z m -2.022,1.975 c -0.64,0.802 -1.588,0.953 -2.41,0.303 -0.787,-0.627 -1.232,-1.685 -0.546,-2.55 0.737,-0.927 2.029,-0.584 2.99,-0.274 0.431,0.693 0.494,1.854 -0.034,2.521 m 1.014,-7.44 c 0.713,-0.898 1.988,-0.918 2.856,-0.229 0.863,0.686 1.118,1.767 0.404,2.665 -0.848,1.066 -2.166,0.852 -3.293,0.435 -0.482,-0.985 -0.689,-1.957 0.033,-2.871"
           style="fill:#17233a;fill-opacity:1;fill-rule:nonzero;stroke:none"
           id="path3271"
           inkscape:connector-curvature="0" />
      </g>
      <g
         id="g3273"
         transform="translate(530.1091,191.6545)">
        <path
           d="M 0,0 6.707,5.83 8.211,4.1 12.053,-7.786 9.789,-9.757 6.031,2.365 1.424,-1.638 0,0 z"
           style="fill:#17233a;fill-opacity:1;fill-rule:nonzero;stroke:none"
           id="path3275"
           inkscape:connector-curvature="0" />
      </g>
      <g
         id="g3277"
         transform="translate(546.2421,191.4316)">
        <path
           d="M 0,0 C 0.926,0.43 1.816,0.998 2.565,1.787 3.352,2.621 4.16,4.278 3.138,5.242 1.964,6.355 0.695,5.79 -0.514,4.513 l -0.923,-0.976 -1.581,1.492 0.87,0.918 C -0.87,7.297 -0.486,8.591 -1.363,9.42 -2.366,10.37 -3.457,9.852 -4.31,8.95 -5.059,8.159 -5.592,7.223 -5.909,6.192 l -1.716,1.407 c 0.445,1.102 1.166,2.238 2.143,3.275 1.167,1.231 3.552,2.89 5.693,0.865 C 1.572,10.45 1.416,8.995 0.839,7.607 L 0.869,7.582 C 2.246,8.693 3.836,8.39 5.055,7.235 7.437,4.982 5.988,2.246 4.416,0.582 3.589,-0.294 2.521,-1.191 1.6,-1.733 L 0,0 z"
           style="fill:#17233a;fill-opacity:1;fill-rule:nonzero;stroke:none"
           id="path3279"
           inkscape:connector-curvature="0" />
      </g>
      <g
         id="g3281"
         transform="translate(559.4521,217.1855)">
        <path
           d="m 0,0 c -0.527,0.283 -0.722,0.931 -0.444,1.457 7.995,15.035 12.528,32.19 12.528,50.413 0,24.083 -7.912,46.304 -21.28,64.224 -0.356,0.48 -0.258,1.151 0.22,1.507 0.476,0.355 1.147,0.258 1.506,-0.221 C 6.161,99.105 14.237,76.425 14.233,51.87 14.237,33.291 9.612,15.783 1.458,0.448 1.263,0.082 0.888,-0.127 0.504,-0.127 0.334,-0.127 0.163,-0.082 0,0"
           style="fill:#17233a;fill-opacity:1;fill-rule:nonzero;stroke:none"
           id="path3283"
           inkscape:connector-curvature="0" />
      </g>
      <g
         id="g3285"
         transform="translate(367.4491,217.6325)">
        <path
           d="m 0,0 c -8.158,15.336 -12.781,32.844 -12.781,51.423 0,24.556 8.074,47.233 21.711,65.51 0.351,0.477 1.027,0.576 1.502,0.221 0.474,-0.354 0.572,-1.03 0.218,-1.507 C -2.718,97.727 -10.629,75.504 -10.629,51.423 -10.629,33.2 -6.096,16.045 1.9,1.008 2.18,0.484 1.979,-0.167 1.452,-0.447 1.293,-0.529 1.12,-0.572 0.951,-0.572 0.565,-0.572 0.191,-0.364 0,0"
           style="fill:#17233a;fill-opacity:1;fill-rule:nonzero;stroke:none"
           id="path3287"
           inkscape:connector-curvature="0" />
      </g>
      <g
         id="g3289"
         transform="translate(464.0952,167.7986)">
        <path
           d="m 0,0 c -4.744,-1.875 -16.679,-5.272 -16.679,-5.272 l 16.748,-7.986 0.022,0 c 0.23,0.097 16.716,7.961 16.716,7.961 0,0 -12.029,3.408 -16.807,5.297"
           style="fill:#17233a;fill-opacity:1;fill-rule:nonzero;stroke:none"
           id="path3291"
           inkscape:connector-curvature="0" />
      </g>
      <g
         id="g3293"
         transform="translate(418.9443,372.5015)">
        <path
           d="m 0,0 c -0.944,-0.052 -1.907,-0.294 -2.771,-0.721 -0.839,-0.425 -1.752,-1.339 -1.083,-2.675 1.063,-2.136 6.012,1.456 8.07,-2.664 1.349,-2.699 -0.272,-4.787 -2.755,-6.027 -1.345,-0.668 -2.03,-0.79 -3.394,-1.1 l -0.881,2.335 c 1.077,-0.039 2.196,0.146 3.161,0.634 0.931,0.461 1.95,1.567 1.397,2.679 -1.179,2.346 -6.084,-1.322 -8.112,2.747 -1.378,2.749 0.252,4.819 2.428,5.906 1.048,0.522 2.104,0.876 3.156,1.028 L 0,0 z"
           style="fill:#17233a;fill-opacity:1;fill-rule:nonzero;stroke:none"
           id="path3295"
           inkscape:connector-curvature="0" />
      </g>
      <g
         id="g3297"
         transform="translate(436.5898,367.4185)">
        <path
           d="m 0,0 c -0.869,-0.558 -1.825,-1.104 -2.811,-1.451 -4.191,-1.484 -7.849,-0.419 -9.395,3.967 -1.571,4.433 0.263,7.88 4.661,9.433 0.854,0.306 2.046,0.533 3.125,0.497 l 0.586,-2.258 c -1.18,0.214 -2.119,0.032 -3.049,-0.3 -2.664,-0.944 -3.619,-3.577 -2.678,-6.229 0.93,-2.64 3.272,-4.048 6.033,-3.068 1.012,0.358 2.143,1.008 2.645,1.54 L 0,0 z"
           style="fill:#17233a;fill-opacity:1;fill-rule:nonzero;stroke:none"
           id="path3299"
           inkscape:connector-curvature="0" />
      </g>
      <g
         id="g3301"
         transform="translate(441.8782,382.6831)">
        <path
           d="m 0,0 c 4.231,0.831 7.172,-1.568 7.961,-5.64 0.797,-4.08 -0.966,-7.473 -5.24,-8.308 -4.322,-0.847 -7.168,1.589 -7.975,5.722 C -6.062,-4.086 -4.289,-0.835 0,0 m 2.311,-11.824 c 2.762,0.545 3.306,3.195 2.834,5.629 -0.469,2.376 -2.043,4.594 -4.73,4.073 -2.684,-0.523 -3.313,-3.177 -2.847,-5.553 0.477,-2.43 1.981,-4.691 4.743,-4.149"
           style="fill:#17233a;fill-opacity:1;fill-rule:nonzero;stroke:none"
           id="path3303"
           inkscape:connector-curvature="0" />
      </g>
      <g
         id="g3305"
         transform="translate(455.4102,381.6733)">
        <path
           d="M 0,0 -3.94,-0.21 -4.048,1.953 6.567,2.515 6.679,0.354 2.75,0.146 3.359,-11.409 0.611,-11.559 0,0 z"
           style="fill:#17233a;fill-opacity:1;fill-rule:nonzero;stroke:none"
           id="path3307"
           inkscape:connector-curvature="0" />
      </g>
      <g
         id="g3309"
         transform="translate(465.4122,384.4556)">
        <path
           d="M 0,0 2.748,-0.15 2.098,-11.716 7.427,-12.02 7.31,-14.181 -0.773,-13.719 0,0 z"
           style="fill:#17233a;fill-opacity:1;fill-rule:nonzero;stroke:none"
           id="path3311"
           inkscape:connector-curvature="0" />
      </g>
      <g
         id="g3313"
         transform="translate(482.2342,382.8853)">
        <path
           d="m 0,0 3.068,-0.571 2.761,-14.501 -2.991,0.563 -0.587,3.312 -5.48,1.027 -1.755,-2.879 -2.806,0.534 L 0,0 z m 0.986,-2.986 -0.037,0.007 -2.998,-5.208 3.942,-0.742 -0.907,5.943 z"
           style="fill:#17233a;fill-opacity:1;fill-rule:nonzero;stroke:none"
           id="path3315"
           inkscape:connector-curvature="0" />
      </g>
      <g
         id="g3317"
         transform="translate(493.8262,380.5649)">
        <path
           d="m 0,0 3.215,-1.052 1.789,-11.393 0.037,-0.006 3.187,9.763 2.508,-0.818 -4.262,-13.062 -3.2,1.046 -1.803,11.401 -0.045,0.011 -3.182,-9.768 -2.515,0.82 L 0,0 z"
           style="fill:#17233a;fill-opacity:1;fill-rule:nonzero;stroke:none"
           id="path3319"
           inkscape:connector-curvature="0" />
      </g>
      <g
         id="g3321"
         transform="translate(508.0112,375.3315)">
        <path
           d="M 0,0 3.407,-1.585 C 7.223,-3.364 9.994,-6.222 7.692,-11.17 5.391,-16.107 1.415,-15.825 -2.394,-14.045 L -5.806,-12.454 0,0 z m -2.385,-11.655 1.382,-0.647 c 2.086,-0.977 4.83,-0.358 6.091,2.352 1.264,2.708 -0.027,5.203 -2.113,6.175 l -1.394,0.647 -3.966,-8.527 z"
           style="fill:#17233a;fill-opacity:1;fill-rule:nonzero;stroke:none"
           id="path3323"
           inkscape:connector-curvature="0" />
      </g>
      <g
         id="g3325"
         transform="translate(405.9794,358.3043)">
        <path
           d="m 0,0 c -1.4,-0.998 -3.363,-0.684 -4.364,0.715 -1,1.398 -0.668,3.372 0.728,4.373 1.398,1.001 3.362,0.66 4.36,-0.738 C 1.725,2.948 1.398,1.001 0,0"
           style="fill:#17233a;fill-opacity:1;fill-rule:nonzero;stroke:none"
           id="path3327"
           inkscape:connector-curvature="0" />
      </g>
      <g
         id="g3329"
         transform="translate(525.4102,358.3043)">
        <path
           d="m 0,0 c -1.401,-0.998 -3.363,-0.684 -4.365,0.715 -1,1.398 -0.668,3.372 0.729,4.373 1.398,1.001 3.361,0.66 4.359,-0.738 C 1.724,2.948 1.396,1.001 0,0"
           style="fill:#17233a;fill-opacity:1;fill-rule:nonzero;stroke:none"
           id="path3331"
           inkscape:connector-curvature="0" />
      </g>
    </g>
  </g>
</svg>
