<?xml version="1.0" encoding="UTF-8" standalone="no"?>
<!-- Created with Inkscape (http://www.inkscape.org/) -->

<svg
   xmlns:dc="http://purl.org/dc/elements/1.1/"
   xmlns:cc="http://creativecommons.org/ns#"
   xmlns:rdf="http://www.w3.org/1999/02/22-rdf-syntax-ns#"
   xmlns:svg="http://www.w3.org/2000/svg"
   xmlns="http://www.w3.org/2000/svg"
   xmlns:xlink="http://www.w3.org/1999/xlink"
   xmlns:sodipodi="http://sodipodi.sourceforge.net/DTD/sodipodi-0.dtd"
   xmlns:inkscape="http://www.inkscape.org/namespaces/inkscape"
   id="svg2"
   version="1.1"
   inkscape:version="0.91 r13725"
   xml:space="preserve"
   width="473.60001"
   height="800"
   viewBox="0 0 473.60001 800"
   sodipodi:docname="Logo Fédération Ukraine Football.svg"><metadata
     id="metadata8"><rdf:RDF><cc:Work
         rdf:about=""><dc:format>image/svg+xml</dc:format><dc:type
           rdf:resource="http://purl.org/dc/dcmitype/StillImage" /><dc:title /></cc:Work></rdf:RDF></metadata><defs
     id="defs6"><linearGradient
       inkscape:collect="always"
       id="linearGradient5525"><stop
         style="stop-color:#2b4b7b;stop-opacity:1"
         offset="0"
         id="stop5527" /><stop
         id="stop5539"
         offset="0.2092931"
         style="stop-color:#38639f;stop-opacity:1" /><stop
         id="stop5537"
         offset="0.41194195"
         style="stop-color:#3c69a8;stop-opacity:1" /><stop
         style="stop-color:#3e6db0;stop-opacity:1"
         offset="0.49320406"
         id="stop5667" /><stop
         id="stop5535"
         offset="0.57142544"
         style="stop-color:#38639f;stop-opacity:1" /><stop
         id="stop5533"
         offset="0.81066167"
         style="stop-color:#2e5183;stop-opacity:1" /><stop
         style="stop-color:#2b4b7b;stop-opacity:1"
         offset="1"
         id="stop5529" /></linearGradient><linearGradient
       inkscape:collect="always"
       id="linearGradient5479"><stop
         style="stop-color:#2b4b7b;stop-opacity:1"
         offset="0"
         id="stop5481" /><stop
         id="stop5487"
         offset="0.1565188"
         style="stop-color:#2e5285;stop-opacity:1" /><stop
         style="stop-color:#37629d;stop-opacity:1"
         offset="0.38389668"
         id="stop5489" /><stop
         id="stop5498"
         offset="0.51171255"
         style="stop-color:#3f6fb3;stop-opacity:1" /><stop
         id="stop5491"
         offset="0.62558115"
         style="stop-color:#3b68a6;stop-opacity:1" /><stop
         style="stop-color:#345b93;stop-opacity:1"
         offset="0.81518251"
         id="stop5493" /><stop
         style="stop-color:#2b4b7b;stop-opacity:1"
         offset="1"
         id="stop5483" /></linearGradient><linearGradient
       inkscape:collect="always"
       id="linearGradient5441"><stop
         style="stop-color:#c98b2b;stop-opacity:1"
         offset="0"
         id="stop5443" /><stop
         id="stop5449"
         offset="0.18173164"
         style="stop-color:#d6a02d;stop-opacity:1" /><stop
         style="stop-color:#f5db33;stop-opacity:1"
         offset="0.58606339"
         id="stop5451" /><stop
         style="stop-color:#f9e736;stop-opacity:1"
         offset="1"
         id="stop5445" /></linearGradient><linearGradient
       inkscape:collect="always"
       id="linearGradient5419"><stop
         style="stop-color:#4172b8;stop-opacity:1"
         offset="0"
         id="stop5421" /><stop
         id="stop5431"
         offset="0.26947746"
         style="stop-color:#3a67a4;stop-opacity:1" /><stop
         id="stop5429"
         offset="0.50493693"
         style="stop-color:#345b93;stop-opacity:1" /><stop
         id="stop5427"
         offset="0.755027"
         style="stop-color:#2c4e7f;stop-opacity:1" /><stop
         style="stop-color:#2b4b7b;stop-opacity:1"
         offset="1"
         id="stop5423" /></linearGradient><linearGradient
       inkscape:collect="always"
       id="linearGradient5375"><stop
         style="stop-color:#f9e736;stop-opacity:1"
         offset="0"
         id="stop5377" /><stop
         id="stop5387"
         offset="0.19544458"
         style="stop-color:#f9e736;stop-opacity:1" /><stop
         id="stop5385"
         offset="0.47346413"
         style="stop-color:#f5d933;stop-opacity:1" /><stop
         id="stop5383"
         offset="0.77437407"
         style="stop-color:#e2b22f;stop-opacity:1" /><stop
         style="stop-color:#c7872b;stop-opacity:1"
         offset="1"
         id="stop5379" /></linearGradient><linearGradient
       inkscape:collect="always"
       id="linearGradient5243"><stop
         style="stop-color:#f5d532;stop-opacity:0.86274511"
         offset="0"
         id="stop5245" /><stop
         id="stop5255"
         offset="0.23897548"
         style="stop-color:#f3d231;stop-opacity:1" /><stop
         id="stop5253"
         offset="0.40311801"
         style="stop-color:#f2cf30;stop-opacity:1" /><stop
         id="stop5251"
         offset="0.71648103"
         style="stop-color:#e0b02f;stop-opacity:1" /><stop
         style="stop-color:#d39b2d;stop-opacity:1"
         offset="1"
         id="stop5247" /></linearGradient><linearGradient
       inkscape:collect="always"
       id="linearGradient5223"><stop
         style="stop-color:#c7872b;stop-opacity:1"
         offset="0"
         id="stop5225" /><stop
         id="stop5231"
         offset="0.20788027"
         style="stop-color:#cd922c;stop-opacity:1" /><stop
         style="stop-color:#f2cf30;stop-opacity:1"
         offset="0.39976975"
         id="stop5233" /><stop
         id="stop5235"
         offset="0.6160292"
         style="stop-color:#f3d131;stop-opacity:1" /><stop
         style="stop-color:#f4d632;stop-opacity:1"
         offset="0.81610596"
         id="stop5237" /><stop
         id="stop5241"
         offset="0.88559324"
         style="stop-color:#f1c930;stop-opacity:1" /><stop
         id="stop5239"
         offset="0.95071459"
         style="stop-color:#d8a32e;stop-opacity:1" /><stop
         style="stop-color:#d29a2d;stop-opacity:1"
         offset="1"
         id="stop5227" /></linearGradient><linearGradient
       inkscape:collect="always"
       id="linearGradient5189"><stop
         style="stop-color:#4071b6;stop-opacity:1"
         offset="0"
         id="stop5191" /><stop
         id="stop5197"
         offset="0.15636252"
         style="stop-color:#3c6aa9;stop-opacity:1" /><stop
         style="stop-color:#38639f;stop-opacity:1"
         offset="0.39078423"
         id="stop5199" /><stop
         id="stop5201"
         offset="0.6720171"
         style="stop-color:#345c94;stop-opacity:1" /><stop
         style="stop-color:#2b4b7b;stop-opacity:1"
         offset="0.85932255"
         id="stop5203" /><stop
         style="stop-color:#2c4e7f;stop-opacity:1"
         offset="1"
         id="stop5193" /></linearGradient><linearGradient
       inkscape:collect="always"
       id="linearGradient5157"><stop
         style="stop-color:#4274bb;stop-opacity:1"
         offset="0"
         id="stop5159" /><stop
         id="stop5169"
         offset="0.29850751"
         style="stop-color:#3c6aaa;stop-opacity:1" /><stop
         id="stop5167"
         offset="0.74129355"
         style="stop-color:#2f5488;stop-opacity:1" /><stop
         id="stop5165"
         offset="0.89552236"
         style="stop-color:#2b4b7b;stop-opacity:1" /><stop
         style="stop-color:#2b4b7b;stop-opacity:1"
         offset="1"
         id="stop5161" /></linearGradient><linearGradient
       inkscape:collect="always"
       id="linearGradient5137"><stop
         style="stop-color:#d7a12d;stop-opacity:1"
         offset="0"
         id="stop5139" /><stop
         id="stop5147"
         offset="0.18827991"
         style="stop-color:#f9e736;stop-opacity:1" /><stop
         id="stop5145"
         offset="0.70758855"
         style="stop-color:#f9e736;stop-opacity:1" /><stop
         style="stop-color:#f9e736;stop-opacity:1"
         offset="1"
         id="stop5141" /></linearGradient><linearGradient
       inkscape:collect="always"
       id="linearGradient5119"><stop
         style="stop-color:#36609a;stop-opacity:1"
         offset="0"
         id="stop5121" /><stop
         id="stop5135"
         offset="0.05737452"
         style="stop-color:#365f99;stop-opacity:1" /><stop
         id="stop5133"
         offset="0.13245748"
         style="stop-color:#365f99;stop-opacity:1" /><stop
         id="stop5131"
         offset="0.26710296"
         style="stop-color:#335991;stop-opacity:1" /><stop
         id="stop5129"
         offset="0.40836108"
         style="stop-color:#2f5488;stop-opacity:1" /><stop
         id="stop5127"
         offset="0.65787256"
         style="stop-color:#2b4b7b;stop-opacity:1" /><stop
         style="stop-color:#2b4b7b;stop-opacity:1"
         offset="1"
         id="stop5123" /></linearGradient><linearGradient
       inkscape:collect="always"
       id="linearGradient5103"><stop
         style="stop-color:#daa62e;stop-opacity:1"
         offset="0"
         id="stop5105" /><stop
         id="stop5117"
         offset="0.1298482"
         style="stop-color:#d8a32e;stop-opacity:1" /><stop
         id="stop5115"
         offset="0.31146708"
         style="stop-color:#cf952c;stop-opacity:1" /><stop
         id="stop5113"
         offset="0.55834734"
         style="stop-color:#c98b2b;stop-opacity:1" /><stop
         id="stop5111"
         offset="0.77908933"
         style="stop-color:#c7872b;stop-opacity:1" /><stop
         style="stop-color:#c6872b;stop-opacity:1"
         offset="1"
         id="stop5107" /></linearGradient><linearGradient
       inkscape:collect="always"
       id="linearGradient5059"><stop
         style="stop-color:#f9e736;stop-opacity:1"
         offset="0"
         id="stop5061" /><stop
         id="stop5073"
         offset="0.2516557"
         style="stop-color:#f8e435;stop-opacity:1" /><stop
         id="stop5071"
         offset="0.49668881"
         style="stop-color:#f5da33;stop-opacity:1" /><stop
         id="stop5069"
         offset="0.75496697"
         style="stop-color:#f2ce30;stop-opacity:1" /><stop
         style="stop-color:#e5b92f;stop-opacity:1"
         offset="0.81456959"
         id="stop5077" /><stop
         style="stop-color:#d39b2d;stop-opacity:1"
         offset="0.90066236"
         id="stop5075" /><stop
         style="stop-color:#c98c2b;stop-opacity:1"
         offset="1"
         id="stop5063" /></linearGradient><linearGradient
       inkscape:collect="always"
       xlink:href="#linearGradient5059"
       id="linearGradient5067"
       x1="249.16447"
       y1="554.14081"
       x2="249.16447"
       y2="888.84186"
       gradientUnits="userSpaceOnUse" /><linearGradient
       inkscape:collect="always"
       xlink:href="#linearGradient5103"
       id="linearGradient5109"
       x1="391.83673"
       y1="492.36734"
       x2="389.87756"
       y2="325.83673"
       gradientUnits="userSpaceOnUse"
       gradientTransform="matrix(0.8,0,0,-0.8,-56.721264,792)" /><linearGradient
       inkscape:collect="always"
       xlink:href="#linearGradient5119"
       id="linearGradient5125"
       x1="391.83673"
       y1="570.73468"
       x2="387.91837"
       y2="-316.77551"
       gradientUnits="userSpaceOnUse"
       gradientTransform="matrix(0.8,0,0,-0.8,-56.721264,792)" /><radialGradient
       inkscape:collect="always"
       xlink:href="#linearGradient5137"
       id="radialGradient5143"
       cx="-56.591827"
       cy="476.79507"
       fx="-56.591827"
       fy="476.79507"
       r="69.608871"
       gradientTransform="matrix(0.04503299,3.737736,-1.9890552,0.02396159,949.05613,472.81891)"
       gradientUnits="userSpaceOnUse" /><linearGradient
       inkscape:collect="always"
       xlink:href="#linearGradient5157"
       id="linearGradient5163"
       x1="38.886898"
       y1="545.43677"
       x2="38.886898"
       y2="230.39999"
       gradientUnits="userSpaceOnUse" /><linearGradient
       inkscape:collect="always"
       xlink:href="#linearGradient5189"
       id="linearGradient5195"
       x1="-55.153915"
       y1="611.26532"
       x2="145.46649"
       y2="612.83264"
       gradientUnits="userSpaceOnUse" /><linearGradient
       inkscape:collect="always"
       xlink:href="#linearGradient5223"
       id="linearGradient5229"
       x1="-56.721264"
       y1="467.0694"
       x2="141.93996"
       y2="469.02856"
       gradientUnits="userSpaceOnUse" /><linearGradient
       inkscape:collect="always"
       xlink:href="#linearGradient5243"
       id="linearGradient5249"
       x1="24.780777"
       y1="537.59998"
       x2="129.79303"
       y2="534.46533"
       gradientUnits="userSpaceOnUse" /><linearGradient
       inkscape:collect="always"
       xlink:href="#linearGradient5059"
       id="linearGradient5320"
       gradientUnits="userSpaceOnUse"
       x1="249.16447"
       y1="554.14081"
       x2="249.16447"
       y2="888.84186" /><linearGradient
       inkscape:collect="always"
       xlink:href="#linearGradient5189"
       id="linearGradient5322"
       gradientUnits="userSpaceOnUse"
       x1="-55.153915"
       y1="611.26532"
       x2="145.46649"
       y2="612.83264" /><linearGradient
       inkscape:collect="always"
       xlink:href="#linearGradient5223"
       id="linearGradient5324"
       gradientUnits="userSpaceOnUse"
       x1="-56.721264"
       y1="467.0694"
       x2="141.93996"
       y2="469.02856" /><radialGradient
       inkscape:collect="always"
       xlink:href="#linearGradient5137"
       id="radialGradient5326"
       gradientUnits="userSpaceOnUse"
       gradientTransform="matrix(0.04503299,3.737736,-1.9890552,0.02396159,949.05613,472.81891)"
       cx="-56.591827"
       cy="476.79507"
       fx="-56.591827"
       fy="476.79507"
       r="69.608871" /><linearGradient
       inkscape:collect="always"
       xlink:href="#linearGradient5243"
       id="linearGradient5328"
       gradientUnits="userSpaceOnUse"
       x1="24.780777"
       y1="537.59998"
       x2="129.79303"
       y2="534.46533" /><linearGradient
       inkscape:collect="always"
       xlink:href="#linearGradient5157"
       id="linearGradient5330"
       gradientUnits="userSpaceOnUse"
       x1="38.886898"
       y1="545.43677"
       x2="38.886898"
       y2="230.39999" /><linearGradient
       inkscape:collect="always"
       xlink:href="#linearGradient5375"
       id="linearGradient5381"
       x1="248.91139"
       y1="-388.70206"
       x2="252.04608"
       y2="-180.2449"
       gradientUnits="userSpaceOnUse" /><linearGradient
       inkscape:collect="always"
       xlink:href="#linearGradient5419"
       id="linearGradient5425"
       x1="173.67874"
       y1="286.04083"
       x2="333.54813"
       y2="283.68979"
       gradientUnits="userSpaceOnUse" /><linearGradient
       inkscape:collect="always"
       xlink:href="#linearGradient5441"
       id="linearGradient5447"
       x1="324.14404"
       y1="1010.9388"
       x2="327.27875"
       y2="738.2204"
       gradientUnits="userSpaceOnUse" /><linearGradient
       inkscape:collect="always"
       xlink:href="#linearGradient5479"
       id="linearGradient5485"
       x1="179.34273"
       y1="165.13397"
       x2="181.5593"
       y2="398.98138"
       gradientUnits="userSpaceOnUse"
       gradientTransform="matrix(1.25,0,0,-1.25,70.90158,990)" /><linearGradient
       inkscape:collect="always"
       xlink:href="#linearGradient5525"
       id="linearGradient5531"
       x1="477.06122"
       y1="779.38776"
       x2="475.10205"
       y2="484.53061"
       gradientUnits="userSpaceOnUse" /><linearGradient
       inkscape:collect="always"
       xlink:href="#linearGradient5419"
       id="linearGradient5764"
       gradientUnits="userSpaceOnUse"
       x1="173.67874"
       y1="286.04083"
       x2="333.54813"
       y2="283.68979" /><linearGradient
       inkscape:collect="always"
       xlink:href="#linearGradient5419"
       id="linearGradient5766"
       gradientUnits="userSpaceOnUse"
       x1="173.67874"
       y1="286.04083"
       x2="333.54813"
       y2="283.68979" /><linearGradient
       inkscape:collect="always"
       xlink:href="#linearGradient5419"
       id="linearGradient5768"
       gradientUnits="userSpaceOnUse"
       x1="173.67874"
       y1="286.04083"
       x2="333.54813"
       y2="283.68979" /><linearGradient
       inkscape:collect="always"
       xlink:href="#linearGradient5419"
       id="linearGradient5770"
       gradientUnits="userSpaceOnUse"
       x1="173.67874"
       y1="286.04083"
       x2="333.54813"
       y2="283.68979" /><linearGradient
       inkscape:collect="always"
       xlink:href="#linearGradient5419"
       id="linearGradient5772"
       gradientUnits="userSpaceOnUse"
       x1="173.67874"
       y1="286.04083"
       x2="333.54813"
       y2="283.68979" /><linearGradient
       inkscape:collect="always"
       xlink:href="#linearGradient5419"
       id="linearGradient5774"
       gradientUnits="userSpaceOnUse"
       x1="173.67874"
       y1="286.04083"
       x2="333.54813"
       y2="283.68979" /></defs><sodipodi:namedview
     pagecolor="#ffffff"
     bordercolor="#666666"
     borderopacity="1"
     objecttolerance="10"
     gridtolerance="10"
     guidetolerance="10"
     inkscape:pageopacity="0"
     inkscape:pageshadow="2"
     inkscape:window-width="1280"
     inkscape:window-height="691"
     id="namedview4"
     showgrid="false"
     inkscape:zoom="0.51041666"
     inkscape:cx="-149.47577"
     inkscape:cy="314.04412"
     inkscape:window-x="0"
     inkscape:window-y="1"
     inkscape:window-maximized="1"
     inkscape:current-layer="g5409" /><g
     id="g10"
     inkscape:groupmode="layer"
     inkscape:label="photoscan_1_1_en - copie"
     transform="matrix(1.25,0,0,-1.25,0,800)"><g
       id="g5409"
       transform="translate(56.721264,0)"><g
         id="g5726"
         transform="matrix(0.61003386,0,0,0.61003386,-22.358406,-0.58417613)"><g
           id="g5693"><g
             id="g5564"><path
               sodipodi:nodetypes="csccccc"
               inkscape:connector-curvature="0"
               id="path5435"
               d="m 280.54678,995.79107 c -15.64553,-21.94319 -20.79626,-64.04014 -23.33812,-90.31875 -6.20714,-64.17138 6.96067,-154.88227 15.58015,-170.12744 l -34.91087,-2.21656 -2.77071,245.48438 23.82806,42.1147 z"
               style="fill:url(#linearGradient5447);fill-opacity:1;fill-rule:evenodd;stroke:none;stroke-width:0.80000001px;stroke-linecap:butt;stroke-linejoin:miter;stroke-opacity:1" /><path
               id="path4905"
               d="m 254.15218,540.56406 -67.88282,-144.07656 25.21406,12.46875 42.66876,115.82188 42.66874,-115.82188 25.2125,-12.46875 -67.88124,144.07656 z"
               style="fill:url(#linearGradient5109);fill-opacity:1;fill-rule:evenodd;stroke:none;stroke-width:0.80000001px;stroke-linecap:butt;stroke-linejoin:miter;stroke-opacity:1"
               inkscape:connector-curvature="0" /><path
               id="path4907"
               d="m 254.15218,1050.0797 c -22.12164,-22.5159 -36.74694,-51.20972 -38.35938,-85.02501 -2.31183,-48.48289 3.61785,-103.64331 6.90156,-158.54063 5.28931,-88.42718 13.98562,-180.00219 -17.34844,-265.42968 -8.18922,-22.32667 -14.19802,-47.4087 -25.63281,-74.26563 -19.31514,-45.36558 -49.26359,-89.72269 -58.27813,-129.07031 l 75.64063,70.92969 57.07657,124.1 57.07656,-124.1 75.63906,-70.92969 c -9.01453,39.34762 -38.96298,83.70473 -58.27813,129.07031 -11.43479,26.85693 -17.44359,51.93896 -25.63281,74.26563 -31.33405,85.42749 -22.63775,177.0025 -17.34844,265.42968 3.28372,54.89732 9.21496,110.05774 6.90313,158.54063 -1.61244,33.81529 -16.23773,62.50911 -38.35937,85.02501 z m 10.4,-40.7078 c 5.52768,0.173 8.73325,-6.1242 12.03124,-16.10159 11.41644,-34.53795 8.08273,-123.13457 -8.14531,-253.48281 -29.31184,73.60505 -26.43961,198.85403 -14.60937,245.84688 2.59211,10.29653 5.20782,23.17372 10.72344,23.73752 z"
               style="fill:url(#linearGradient5125);fill-opacity:1;fill-rule:evenodd;stroke:none;stroke-width:0.80000001px;stroke-linecap:butt;stroke-linejoin:miter;stroke-opacity:1"
               inkscape:connector-curvature="0" /></g><g
             id="g5269"><path
               sodipodi:nodetypes="cccsccc"
               inkscape:connector-curvature="0"
               id="path4895"
               d="M 71.285264,845.89598 C 103.34127,806.90934 117.09528,676.28328 128.43663,569.01918 L 78.462408,547.78776 C 75.919472,596.63475 68.47447,672.32399 57.683125,733.12442 48.885185,782.69364 30.830991,829.9195 -12.83555,870.66123 l 26.644899,28.60408 z"
               style="fill:url(#linearGradient5067);fill-opacity:1;fill-rule:evenodd;stroke:none;stroke-width:0.80000001px;stroke-linecap:butt;stroke-linejoin:miter;stroke-opacity:1" /><path
               sodipodi:nodetypes="ccccscccscccc"
               inkscape:connector-curvature="0"
               id="path4893"
               d="m -56.329427,972.93062 8.1e-5,-406.38362 4.428839,-26.51467 31.863182,-73.61688 60.576432,-78.07661 c 17.364947,-22.38158 65.286673,-34.61822 87.112743,-40.50259 l 19.77383,49.48621 c -10.85099,1.03981 -25.23268,1.48978 -30.9551,3.91836 C 74.446979,425.32181 39.470773,449.6445 15.581885,497.14921 2.5473979,523.06919 -5.5531024,559.62368 -5.390064,616.64951 l 0,248.47869 c 4.8390908,42.58929 45.630649,1.7175 77.97492,-19.54452 -18.807451,31.50262 -42.667974,77.30176 -128.914283,127.34694 z"
               style="fill:url(#linearGradient5195);fill-opacity:1;fill-rule:evenodd;stroke:none;stroke-width:0.80000001px;stroke-linecap:butt;stroke-linejoin:miter;stroke-opacity:1" /><path
               sodipodi:nodetypes="cssccssc"
               inkscape:connector-curvature="0"
               id="path4899"
               d="m -56.329346,566.547 c 9.746372,-49.7712 42.696278,-98.46266 81.273027,-126.36407 19.982344,-14.45263 41.535247,-27.16897 64.713544,-33.71598 18.438845,-5.20828 36.346125,-10.19946 52.949915,-15.37222 l -11.24677,-24.53146 c -25.12084,0.23117 -49.891664,1.38014 -70.684641,11.10638 -39.354435,18.40867 -72.796469,46.62977 -93.9098,91.62393 -12.325694,26.26702 -21.233266,43.67079 -23.095275,97.25342 z"
               style="fill:url(#linearGradient5229);fill-opacity:1;fill-rule:evenodd;stroke:none;stroke-width:0.80000001px;stroke-linecap:butt;stroke-linejoin:miter;stroke-opacity:1" /><path
               sodipodi:nodetypes="csccccccc"
               inkscape:connector-curvature="0"
               id="path4903"
               d="M 108.55124,536.13126 C 81.951882,509.92803 65.67743,478.07128 53.60851,446.30599 29.30214,382.33185 26.548861,317.04294 22.520874,287.18349 c 31.631775,-6.4132 62.774614,-6.47023 94.065406,-8.45065 l 0,-19.53346 -139.217748,0 L 5.5807776,428.27755 78.854248,518.4 Z"
               style="fill:url(#radialGradient5143);fill-opacity:1;fill-rule:evenodd;stroke:none;stroke-width:0.80000001px;stroke-linecap:butt;stroke-linejoin:miter;stroke-opacity:1" /><path
               sodipodi:nodetypes="ccscc"
               inkscape:connector-curvature="0"
               id="path4897"
               d="M 128.43663,569.01918 C 53.862568,552.35272 41.495495,520.04378 26.692428,490.20745 l 70.65778,42.19695 c 9.468482,5.65459 22.039302,10.73984 33.422412,13.03234 z"
               style="fill:url(#linearGradient5249);fill-opacity:1;fill-rule:evenodd;stroke:none;stroke-width:0.80000001px;stroke-linecap:butt;stroke-linejoin:miter;stroke-opacity:1" /><path
               sodipodi:nodetypes="csccccccc"
               inkscape:connector-curvature="0"
               id="path4901"
               d="M 130.4398,545.27458 C 80.391223,531.12091 45.862973,510.40984 21.789976,485.47385 -39.086095,422.41546 -56.762403,348.34693 -56.167123,254.56529 -56.334589,242.58477 -45.186542,224.26857 -33.7518,224.42703 L 131.68662,224.7041 113.39997,275.96213 7.5590721,276.2392 C -3.189197,275.45133 -1.6724552,288.29125 0.63231178,302.00675 18.040533,404.26823 63.201701,526.86939 130.4398,545.27458 Z"
               style="fill:url(#linearGradient5163);fill-opacity:1;fill-rule:evenodd;stroke:none;stroke-width:0.80000001px;stroke-linecap:butt;stroke-linejoin:miter;stroke-opacity:1" /></g><g
             id="g5304"
             transform="matrix(-1,0,0,1,508.30467,0)"><path
               style="fill:url(#linearGradient5320);fill-opacity:1;fill-rule:evenodd;stroke:none;stroke-width:0.80000001px;stroke-linecap:butt;stroke-linejoin:miter;stroke-opacity:1"
               d="M 71.285264,845.89598 C 103.34127,806.90934 117.09528,676.28328 128.43663,569.01918 L 78.462408,547.78776 C 75.919472,596.63475 68.47447,672.32399 57.683125,733.12442 48.885185,782.69364 30.830991,829.9195 -12.83555,870.66123 l 26.644899,28.60408 z"
               id="path5306"
               inkscape:connector-curvature="0"
               sodipodi:nodetypes="cccsccc" /><path
               style="fill:url(#linearGradient5322);fill-opacity:1;fill-rule:evenodd;stroke:none;stroke-width:0.80000001px;stroke-linecap:butt;stroke-linejoin:miter;stroke-opacity:1"
               d="m -56.329427,972.93062 8.1e-5,-406.38362 4.428839,-26.51467 31.863182,-73.61688 60.576432,-78.07661 c 17.364947,-22.38158 65.286673,-34.61822 87.112743,-40.50259 l 19.77383,49.48621 c -10.85099,1.03981 -25.23268,1.48978 -30.9551,3.91836 C 74.446979,425.32181 39.470773,449.6445 15.581885,497.14921 2.5473979,523.06919 -5.5531024,559.62368 -5.390064,616.64951 l 0,248.47869 c 4.8390908,42.58929 45.630649,1.7175 77.97492,-19.54452 -18.807451,31.50262 -42.667974,77.30176 -128.914283,127.34694 z"
               id="path5308"
               inkscape:connector-curvature="0"
               sodipodi:nodetypes="ccccscccscccc" /><path
               style="fill:url(#linearGradient5324);fill-opacity:1;fill-rule:evenodd;stroke:none;stroke-width:0.80000001px;stroke-linecap:butt;stroke-linejoin:miter;stroke-opacity:1"
               d="m -56.329346,566.547 c 9.746372,-49.7712 42.696278,-98.46266 81.273027,-126.36407 19.982344,-14.45263 41.535247,-27.16897 64.713544,-33.71598 18.438845,-5.20828 36.346125,-10.19946 52.949915,-15.37222 l -11.24677,-24.53146 c -25.12084,0.23117 -49.891664,1.38014 -70.684641,11.10638 -39.354435,18.40867 -72.796469,46.62977 -93.9098,91.62393 -12.325694,26.26702 -21.233266,43.67079 -23.095275,97.25342 z"
               id="path5310"
               inkscape:connector-curvature="0"
               sodipodi:nodetypes="cssccssc" /><path
               style="fill:url(#radialGradient5326);fill-opacity:1;fill-rule:evenodd;stroke:none;stroke-width:0.80000001px;stroke-linecap:butt;stroke-linejoin:miter;stroke-opacity:1"
               d="M 108.55124,536.13126 C 81.951882,509.92803 65.67743,478.07128 53.60851,446.30599 29.30214,382.33185 26.548861,317.04294 22.520874,287.18349 c 31.631775,-6.4132 62.774614,-6.47023 94.065406,-8.45065 l 0,-19.53346 -139.217748,0 L 5.5807776,428.27755 78.854248,518.4 Z"
               id="path5312"
               inkscape:connector-curvature="0"
               sodipodi:nodetypes="csccccccc" /><path
               style="fill:url(#linearGradient5328);fill-opacity:1;fill-rule:evenodd;stroke:none;stroke-width:0.80000001px;stroke-linecap:butt;stroke-linejoin:miter;stroke-opacity:1"
               d="M 128.43663,569.01918 C 53.862568,552.35272 41.495495,520.04378 26.692428,490.20745 l 70.65778,42.19695 c 9.468482,5.65459 22.039302,10.73984 33.422412,13.03234 z"
               id="path5314"
               inkscape:connector-curvature="0"
               sodipodi:nodetypes="ccscc" /><path
               style="fill:url(#linearGradient5330);fill-opacity:1;fill-rule:evenodd;stroke:none;stroke-width:0.80000001px;stroke-linecap:butt;stroke-linejoin:miter;stroke-opacity:1"
               d="M 130.4398,545.27458 C 80.391223,531.12091 45.862973,510.40984 21.789976,485.47385 -39.086095,422.41546 -56.762403,348.34693 -56.167123,254.56529 -56.334589,242.58477 -45.186542,224.26857 -33.7518,224.42703 L 131.68662,224.7041 113.39997,275.96213 7.5590721,276.2392 C -3.189197,275.45133 -1.6724552,288.29125 0.63231178,302.00675 18.040533,404.26823 63.201701,526.86939 130.4398,545.27458 Z"
               id="path5316"
               inkscape:connector-curvature="0"
               sodipodi:nodetypes="csccccccc" /></g><g
             id="g5569"><path
               transform="scale(1,-1)"
               style="opacity:1;fill:#2b4b7b;fill-opacity:1;fill-rule:nonzero;stroke:none;stroke-width:4;stroke-linecap:round;stroke-linejoin:round;stroke-miterlimit:4;stroke-dasharray:none;stroke-dashoffset:0;stroke-opacity:1"
               d="M 399.55789,-282.12247 A 145.40636,145.50868 0 0 1 254.15154,-136.61378 145.40636,145.50868 0 0 1 108.74518,-282.12247 145.40636,145.50868 0 0 1 254.15154,-427.63115 145.40636,145.50868 0 0 1 399.55789,-282.12247 Z"
               id="ellipse4934" /><path
               id="path5457"
               transform="matrix(0.8,0,0,-0.8,-56.721264,792)"
               d="m 352.09766,487.46875 c -74.00769,17.5513 -101.21639,70.64162 -116.29688,111.5918 -19.19989,52.13619 -8.62357,108.21864 6.15039,145.38086 a 181.75795,181.88585 0 0 0 36.14649,37.03711 l 31.38867,-23.64258 c -24.43911,-20.97653 -43.05177,-41.19247 -37.71485,-58.28516 l 95.02149,-180.24414 -14.69531,-31.83789 z"
               style="fill:url(#linearGradient5485);fill-opacity:1;fill-rule:evenodd;stroke:none;stroke-width:0.80000001px;stroke-linecap:butt;stroke-linejoin:miter;stroke-opacity:1"
               inkscape:connector-curvature="0" /><path
               id="path5453"
               transform="matrix(0.8,0,0,-0.8,-56.721264,792)"
               d="m 487.57227,484.99219 c 34.80653,79.92358 40.16891,136.85469 29.3125,161.36328 L 386.89844,782.44141 C 518.94586,771.36204 567.6121,700.82974 554.3457,563.27539 a 181.75795,181.88585 0 0 0 -66.77343,-78.2832 z"
               style="fill:url(#linearGradient5531);fill-opacity:1;fill-rule:evenodd;stroke:none;stroke-width:1px;stroke-linecap:butt;stroke-linejoin:miter;stroke-opacity:1"
               inkscape:connector-curvature="0" /><path
               transform="scale(1,-1)"
               style="opacity:1;fill:url(#linearGradient5381);fill-opacity:1;fill-rule:nonzero;stroke:none;stroke-width:4;stroke-linecap:round;stroke-linejoin:round;stroke-miterlimit:4;stroke-dasharray:none;stroke-dashoffset:0;stroke-opacity:1"
               d="M 359.68781,-282.12247 A 105.53628,105.61055 0 0 1 254.15154,-176.51192 105.53628,105.61055 0 0 1 148.61526,-282.12247 105.53628,105.61055 0 0 1 254.15154,-387.73302 105.53628,105.61055 0 0 1 359.68781,-282.12247 Z"
               id="ellipse4932" /><path
               transform="scale(1,-1)"
               style="opacity:1;fill:#ffffff;fill-opacity:1;fill-rule:nonzero;stroke:none;stroke-width:4;stroke-linecap:round;stroke-linejoin:round;stroke-miterlimit:4;stroke-dasharray:none;stroke-dashoffset:0;stroke-opacity:1"
               d="m 346.95154,-282.12247 a 92.800003,92.865311 0 0 1 -92.8,92.86531 92.800003,92.865311 0 0 1 -92.80001,-92.86531 92.800003,92.865311 0 0 1 92.80001,-92.86531 92.800003,92.865311 0 0 1 92.8,92.86531 z"
               id="path4928" /><g
               style="fill:url(#linearGradient5425);fill-opacity:1"
               id="g5411"><path
                 style="fill:url(#linearGradient5764);fill-opacity:1;fill-rule:evenodd;stroke:none;stroke-width:0.80000001px;stroke-linecap:butt;stroke-linejoin:miter;stroke-opacity:1"
                 d="m 184.60707,324.17239 18.56371,1.93949 1.80096,-29.78507 -19.25639,-22.99684 -12.1911,11.91403 c -0.52845,13.45116 2.75928,26.21489 11.08282,38.92839 z"
                 id="path4911"
                 inkscape:connector-curvature="0"
                 sodipodi:nodetypes="cccccc" /><path
                 style="fill:url(#linearGradient5766);fill-opacity:1;fill-rule:evenodd;stroke:none;stroke-width:0.80000001px;stroke-linecap:butt;stroke-linejoin:miter;stroke-opacity:1"
                 d="m 194.166,246.86974 28.53825,-6.64969 16.76276,-25.07487 -14.9618,-8.31212 c -13.20267,5.86901 -24.20184,13.94153 -32.97139,24.24367 z"
                 id="path4913"
                 inkscape:connector-curvature="0"
                 sodipodi:nodetypes="cccccc" /><path
                 style="fill:url(#linearGradient5768);fill-opacity:1;fill-rule:evenodd;stroke:none;stroke-width:0.80000001px;stroke-linecap:butt;stroke-linejoin:miter;stroke-opacity:1"
                 d="m 254.15218,312.65782 -31.17032,-22.8422 12.05156,-34.63437 38.23594,0 12.05313,34.63437 z"
                 id="path4915"
                 inkscape:connector-curvature="0"
                 sodipodi:nodetypes="cccccc" /><path
                 inkscape:connector-curvature="0"
                 style="fill:url(#linearGradient5770);fill-opacity:1;fill-rule:evenodd;stroke:none;stroke-width:0.80000001px;stroke-linecap:butt;stroke-linejoin:miter;stroke-opacity:1"
                 d="m 254.15218,362.75313 c -6.90591,6.4e-4 -14.69448,-0.76203 -20.71876,-2.15626 l -8.42344,-18.91562 29.1422,-10.74687 29.14218,10.74687 -8.425,18.91562 c -6.02427,1.39423 -13.81129,2.1569 -20.71718,2.15626 z"
                 id="path4917" /><path
                 sodipodi:nodetypes="cccccc"
                 inkscape:connector-curvature="0"
                 id="path5021"
                 d="m 323.6962,324.17239 -18.56371,1.93949 -1.80096,-29.78507 19.25639,-22.99684 12.1911,11.91403 c 0.52845,13.45116 -2.75928,26.21489 -11.08282,38.92839 z"
                 style="fill:url(#linearGradient5772);fill-opacity:1;fill-rule:evenodd;stroke:none;stroke-width:0.80000001px;stroke-linecap:butt;stroke-linejoin:miter;stroke-opacity:1" /><path
                 sodipodi:nodetypes="cccccc"
                 inkscape:connector-curvature="0"
                 id="path5023"
                 d="m 314.13727,246.86974 -28.53825,-6.64969 -16.76276,-25.07487 14.9618,-8.31212 c 13.20267,5.86901 24.20184,13.94153 32.97139,24.24367 z"
                 style="fill:url(#linearGradient5774);fill-opacity:1;fill-rule:evenodd;stroke:none;stroke-width:0.80000001px;stroke-linecap:butt;stroke-linejoin:miter;stroke-opacity:1" /></g></g></g><g
           transform="matrix(0.72213501,0,0,-0.72213501,-29.987224,661.84288)"
           style="font-style:normal;font-weight:normal;font-size:18.75px;line-height:0%;font-family:Sans;text-align:end;letter-spacing:0px;word-spacing:0px;text-anchor:end;fill:#4274ba;fill-opacity:1;stroke:none;stroke-width:1px;stroke-linecap:butt;stroke-linejoin:miter;stroke-opacity:1"
           id="flowRoot5685"><path
             d="m 57.972656,915.18242 q -26.8125,0 -40.3,-13.325 -13.3249998,-13.325 -13.3249998,-37.8625 l 0,-74.75 29.2499998,0 0,74.75 q 0,13.1625 6.0125,19.825 6.175,6.6625 18.3625,6.6625 12.1875,0 18.2,-6.6625 6.175,-6.6625 6.175,-19.825 l 0,-74.75 29.250004,0 0,74.75 q 0,24.5375 -13.325004,37.8625 -13.325,13.325 -40.3,13.325 z"
             style="font-style:normal;font-variant:normal;font-weight:900;font-stretch:normal;font-size:162.5px;font-family:Biryani;-inkscape-font-specification:'Biryani Heavy';letter-spacing:0px;fill:#4274ba;fill-opacity:1"
             id="path4289" /><path
             d="m 172.26094,868.54492 -5.3625,6.175 0,37.7 -29.25,0 0,-123.175 29.25,0 0,43.55 38.025,-43.55 36.2375,0 -50.2125,57.85 51.025,65.325 -36.5625,0 -33.15,-43.875 z"
             style="font-style:normal;font-variant:normal;font-weight:900;font-stretch:normal;font-size:162.5px;font-family:Biryani;-inkscape-font-specification:'Biryani Heavy';letter-spacing:0px;fill:#4274ba;fill-opacity:1"
             id="path4291" /><path
             d="m 301.15391,867.89492 -13.65,0 0,44.525 -29.25,0 0,-123.175 49.8875,0 q 46.9625,0 46.9625,39.4875 0,28.1125 -24.5375,36.075 l 29.4125,47.6125 -32.5,0 -26.325,-44.525 z m -13.65,-24.7 20.6375,0 q 17.3875,0 17.3875,-14.4625 0,-7.6375 -4.225,-11.2125 -4.225,-3.575 -13.1625,-3.575 l -20.6375,0 0,29.25 z"
             style="font-style:normal;font-variant:normal;font-weight:900;font-stretch:normal;font-size:162.5px;font-family:Biryani;-inkscape-font-specification:'Biryani Heavy';letter-spacing:0px;fill:#4274ba;fill-opacity:1"
             id="path4293" /><path
             d="m 455.89199,887.39492 -47.6125,0 -8.6125,25.025 -29.25,0 43.0625,-124.6375 37.05,0 43.225,124.6375 -29.25,0 -8.6125,-25.025 z m -8.45,-25.025 -15.4375,-44.85 -15.275,44.85 30.7125,0 z"
             style="font-style:normal;font-variant:normal;font-weight:900;font-stretch:normal;font-size:162.5px;font-family:Biryani;-inkscape-font-specification:'Biryani Heavy';letter-spacing:0px;fill:#4274ba;fill-opacity:1"
             id="path4295" /><path
             d="m 511.52539,789.24492 29.25,0 0,123.175 -29.25,0 0,-123.175 z"
             style="font-style:normal;font-variant:normal;font-weight:900;font-stretch:normal;font-size:162.5px;font-family:Biryani;-inkscape-font-specification:'Biryani Heavy';letter-spacing:0px;fill:#4274ba;fill-opacity:1"
             id="path4297" /><path
             d="m 674.15488,789.24492 0,123.175 -33.6375,0 -44.2,-75.725 0,75.725 -29.25,0 0,-123.175 33.6375,0 44.2,75.725 0,-75.725 29.25,0 z"
             style="font-style:normal;font-variant:normal;font-weight:900;font-stretch:normal;font-size:162.5px;font-family:Biryani;-inkscape-font-specification:'Biryani Heavy';letter-spacing:0px;fill:#4274ba;fill-opacity:1"
             id="path4299" /><path
             d="m 782.59316,889.01992 0,23.4 -82.225,0 0,-123.175 81.4125,0 0,23.4 -52.1625,0 0,26.1625 44.0375,0 0,23.4 -44.0375,0 0,26.8125 52.975,0 z"
             style="font-style:normal;font-variant:normal;font-weight:900;font-stretch:normal;font-size:162.5px;font-family:Biryani;-inkscape-font-specification:'Biryani Heavy';letter-spacing:0px;fill:#4274ba;fill-opacity:1"
             id="path4301" /></g></g></g></g></svg>